{"glyphs":{"0":{"ha":867,"x_min":81,"x_max":821,"o":"m 378 -11 q 243 24 300 -11 q 151 117 187 58 q 98 251 115 176 q 81 407 81 326 q 114 661 81 545 q 208 861 148 776 q 348 992 269 946 q 519 1039 428 1039 q 690 986 624 1039 q 789 840 757 933 q 821 629 821 747 q 788 388 821 503 q 696 182 756 272 q 556 41 637 92 q 378 -11 475 -11 m 399 107 q 510 151 462 107 q 591 268 558 195 q 640 431 624 342 q 657 610 657 519 q 642 777 657 708 q 593 883 626 847 q 506 921 560 920 q 402 890 447 922 q 327 802 358 857 q 277 682 297 748 q 249 549 258 616 q 240 425 240 482 q 257 264 240 335 q 309 149 274 192 q 399 107 344 107 z "},"1":{"ha":628,"x_min":119,"x_max":506,"o":"m 196 0 l 319 841 q 232 812 278 826 q 140 794 185 799 l 119 890 q 224 927 167 901 q 336 984 282 953 q 426 1046 390 1016 l 428 1046 l 506 1032 l 353 0 l 196 0 z "},"2":{"ha":821,"x_min":18,"x_max":744,"o":"m 43 0 l 18 85 q 171 186 93 129 q 321 309 249 243 q 450 448 393 375 q 540 596 507 520 q 574 749 574 672 q 558 828 574 789 q 505 894 543 868 q 400 921 467 921 q 306 906 347 921 q 232 868 265 890 q 174 825 199 846 l 118 913 q 190 972 146 941 q 292 1024 234 1003 q 421 1046 351 1046 q 583 1018 519 1046 q 681 945 646 990 q 731 848 717 900 q 744 749 744 797 q 711 602 744 677 q 622 454 678 527 q 497 315 566 381 q 353 195 427 249 q 211 104 279 141 l 704 129 l 706 0 l 43 0 z "},"3":{"ha":789,"x_min":44,"x_max":689,"o":"m 183 -11 q 119 -8 152 -11 q 44 -3 85 -6 l 58 113 q 121 108 92 110 q 176 106 151 106 q 305 119 244 106 q 413 161 366 133 q 487 228 460 188 q 514 319 514 268 q 494 393 514 360 q 429 444 474 425 q 311 464 385 463 l 210 442 l 221 567 q 323 598 269 576 q 424 653 377 620 q 501 725 472 685 q 531 810 531 765 q 500 894 531 863 q 393 925 470 925 q 308 911 347 925 q 235 877 269 898 q 172 835 201 856 l 125 938 q 193 985 147 960 q 300 1029 238 1011 q 435 1047 363 1047 q 565 1023 508 1047 q 656 949 622 998 q 689 826 689 900 q 651 703 689 760 q 553 602 614 645 q 424 535 493 558 q 569 507 512 537 q 654 430 626 478 q 682 328 682 381 q 640 187 682 250 q 528 80 599 124 q 368 13 457 36 q 183 -11 278 -11 z "},"4":{"ha":861,"x_min":19,"x_max":799,"o":"m 439 0 l 464 207 l 50 207 l 19 282 q 169 517 97 399 q 315 763 242 635 q 468 1038 388 890 l 550 1038 l 635 982 l 240 378 l 185 310 l 479 321 l 517 606 l 665 632 l 624 328 l 799 338 l 782 207 l 608 207 l 585 0 l 439 0 z "},"5":{"ha":819,"x_min":67,"x_max":754,"o":"m 156 -8 q 113 -6 139 -8 q 67 3 88 -4 l 85 111 q 114 107 101 108 q 139 106 126 106 q 285 122 213 106 q 415 171 357 138 q 508 257 474 205 q 543 381 543 309 q 499 501 543 459 q 365 543 454 543 q 309 539 340 543 q 248 526 278 534 q 193 507 217 518 l 135 567 l 243 1038 l 635 1038 l 649 1049 l 754 1049 l 722 908 l 364 908 l 294 638 q 367 653 325 647 q 443 658 409 658 q 601 628 539 658 q 692 541 663 597 q 722 407 722 484 q 679 238 722 314 q 559 106 636 161 q 379 22 482 51 q 156 -8 276 -8 z "},"6":{"ha":854,"x_min":89,"x_max":776,"o":"m 395 -11 q 225 38 293 -11 q 123 168 157 88 q 89 343 89 249 q 159 658 89 516 q 356 900 228 801 q 656 1046 483 1000 l 690 954 q 509 863 588 917 q 377 742 431 808 q 296 603 323 676 q 351 640 319 623 q 425 668 383 658 q 516 679 467 679 q 660 641 602 679 q 747 540 718 602 q 776 410 776 478 q 753 261 776 336 q 682 125 729 187 q 563 26 635 64 q 395 -11 491 -11 m 406 97 q 496 123 456 97 q 564 193 536 149 q 607 288 592 236 q 622 390 622 340 q 600 488 622 451 q 542 543 577 526 q 469 560 507 561 q 366 544 408 560 q 298 506 324 527 q 258 469 272 484 q 245 398 248 430 q 242 329 242 367 q 256 213 242 266 q 306 129 270 160 q 406 97 342 97 z "},"7":{"ha":728,"x_min":90,"x_max":749,"o":"m 131 0 l 571 914 l 90 913 l 104 1038 l 725 1038 l 749 1006 l 313 0 l 131 0 z "},"8":{"ha":856,"x_min":74,"x_max":781,"o":"m 379 -11 q 233 17 303 -11 q 118 101 163 45 q 74 239 74 156 q 106 369 74 313 q 192 466 138 426 q 311 532 246 506 q 248 598 276 563 q 203 677 219 634 q 188 771 188 719 q 233 922 188 861 q 351 1014 278 983 q 508 1046 424 1045 q 647 1020 585 1047 q 744 943 708 993 q 781 825 781 893 q 748 695 781 754 q 662 595 715 637 q 551 535 610 554 q 642 462 600 500 q 711 378 685 424 q 738 275 738 333 q 690 121 738 185 q 560 23 642 57 q 379 -11 479 -11 m 401 92 q 493 112 453 92 q 555 168 533 133 q 578 250 578 204 q 554 335 578 297 q 488 407 531 372 q 390 479 446 441 q 311 425 347 456 q 256 353 276 394 q 235 258 235 312 q 281 139 235 185 q 401 92 328 92 m 479 590 q 587 678 543 621 q 631 813 631 735 q 590 914 631 881 q 496 947 550 947 q 385 903 428 947 q 342 792 342 858 q 381 681 342 728 q 479 590 420 634 z "},"9":{"ha":854,"x_min":97,"x_max":788,"o":"m 225 -12 l 190 79 q 372 166 293 116 q 504 277 451 216 q 585 411 558 339 q 495 363 553 381 q 368 344 437 344 q 216 388 276 344 q 127 498 156 431 q 97 633 97 564 q 122 785 97 713 q 195 915 147 858 q 315 1006 244 972 q 479 1039 387 1039 q 653 990 585 1039 q 755 860 722 941 q 788 686 788 780 q 718 372 788 513 q 522 132 648 231 q 225 -12 395 33 m 411 461 q 513 477 469 461 q 584 515 556 494 q 625 551 613 536 q 635 625 635 592 q 635 693 635 658 q 616 810 635 756 q 558 897 597 864 q 461 931 519 931 q 370 906 410 931 q 305 840 331 881 q 266 750 279 799 q 253 653 253 701 q 301 507 253 552 q 411 461 350 461 z "},"A":{"ha":867,"x_min":-57,"x_max":810,"o":"m -57 0 l 449 1038 l 623 1038 l 810 0 l 658 0 l 617 256 l 222 256 l 106 0 l -57 0 m 273 369 l 599 369 l 526 835 l 518 913 l 484 835 l 273 369 z "},"B":{"ha":853,"x_min":71,"x_max":792,"o":"m 318 -10 q 282 -8 306 -10 q 231 -5 258 -7 q 178 -1 203 -3 q 140 0 154 0 l 71 0 l 204 1038 l 272 1038 q 311 1039 283 1038 q 373 1043 339 1041 q 436 1047 407 1045 q 480 1049 466 1049 q 661 1019 593 1049 q 761 938 730 990 q 792 818 792 886 q 737 645 792 715 q 585 544 683 575 q 688 507 644 535 q 758 433 733 478 q 784 331 783 389 q 730 139 786 214 q 569 27 674 63 q 318 -10 464 -10 m 348 98 q 500 121 439 98 q 592 192 561 144 q 623 313 623 240 q 570 443 623 401 q 412 485 517 485 q 347 484 379 485 q 283 481 315 483 l 235 109 q 268 103 248 106 q 310 99 288 101 q 348 98 332 98 m 298 591 q 340 590 317 590 q 405 590 363 590 q 574 645 508 590 q 639 802 639 701 q 593 907 639 874 q 446 943 547 940 q 415 943 433 944 q 378 941 397 942 q 342 938 359 940 l 298 591 z "},"C":{"ha":779,"x_min":69,"x_max":785,"o":"m 416 -11 q 214 53 290 -11 q 103 220 137 118 q 69 439 69 322 q 135 755 69 616 q 312 971 199 894 q 563 1049 424 1049 q 633 1044 598 1049 q 705 1028 667 1039 q 785 1000 742 1017 l 735 873 q 663 907 699 893 q 555 922 626 922 q 365 848 438 922 q 257 666 290 774 q 224 447 224 557 q 247 276 224 353 q 319 155 270 200 q 446 110 368 110 q 537 122 489 110 q 625 150 585 133 q 684 182 665 167 l 706 60 q 663 35 690 48 q 598 13 635 23 q 515 -5 560 2 q 416 -11 469 -11 z "},"D":{"ha":939,"x_min":71,"x_max":894,"o":"m 362 -11 q 289 -7 320 -10 q 224 -2 257 -5 q 144 0 191 0 l 71 0 l 204 1038 l 278 1038 q 311 1039 290 1038 q 358 1041 332 1040 q 411 1045 384 1043 q 462 1048 438 1047 q 501 1049 486 1049 q 799 933 705 1049 q 894 612 894 818 q 856 368 894 482 q 749 168 819 254 q 581 34 679 82 q 362 -11 483 -13 m 388 103 q 582 179 503 106 q 699 366 660 251 q 737 607 737 480 q 709 804 737 731 q 621 906 681 875 q 460 938 561 938 q 398 933 434 938 q 341 924 361 929 l 238 122 q 308 107 267 112 q 388 103 349 102 z "},"E":{"ha":779,"x_min":71,"x_max":740,"o":"m 71 0 l 204 1038 l 740 1038 l 733 918 l 340 923 l 298 586 l 593 590 l 582 466 l 283 476 l 236 115 l 704 125 l 692 0 l 71 0 z "},"F":{"ha":719,"x_min":71,"x_max":747,"o":"m 71 0 l 204 1038 l 747 1038 l 735 918 l 340 923 l 297 583 l 612 588 l 601 460 l 283 471 l 222 0 l 71 0 z "},"G":{"ha":918,"x_min":68,"x_max":855,"o":"m 420 -11 q 224 51 302 -11 q 109 212 145 113 q 70 423 72 310 q 134 749 68 606 q 318 970 201 891 q 578 1049 435 1049 q 650 1046 617 1049 q 714 1038 683 1044 q 778 1024 744 1033 q 855 1001 813 1015 l 812 864 q 755 893 792 878 q 671 917 718 908 q 574 926 624 926 q 376 853 455 926 q 260 669 297 779 q 224 446 224 558 q 247 276 224 353 q 319 153 269 199 q 446 107 368 107 q 548 118 492 107 q 653 152 604 130 l 683 386 l 524 386 l 540 508 l 845 508 l 787 62 q 745 54 767 60 q 685 38 724 49 q 552 3 617 17 q 420 -11 488 -11 z "},"H":{"ha":965,"x_min":69,"x_max":931,"o":"m 69 0 l 203 1038 l 355 1038 l 294 574 l 719 574 l 778 1038 l 931 1038 l 797 0 l 644 0 l 704 463 l 281 463 l 220 0 l 69 0 z "},"I":{"ha":407,"x_min":83,"x_max":369,"o":"m 83 0 l 217 1038 l 369 1038 l 235 0 l 83 0 z "},"J":{"ha":408,"x_min":-116,"x_max":367,"o":"m -92 -219 l -116 -156 q -55 -124 -87 -147 q 8 -69 -22 -100 q 59 -4 38 -37 q 85 58 80 29 q 116 220 103 140 q 140 385 129 300 q 161 568 151 471 q 185 781 172 665 q 216 1038 198 897 l 367 1038 l 287 381 q 255 157 269 239 q 233 51 241 75 q 163 -90 208 -35 q 55 -177 118 -146 q -92 -219 -9 -208 z "},"K":{"ha":853,"x_min":69,"x_max":904,"o":"m 69 0 l 203 1038 l 349 1038 l 282 525 l 728 1038 l 904 1038 l 493 576 q 525 521 512 544 q 553 468 538 497 q 593 394 568 440 q 660 272 617 349 q 701 198 680 236 q 744 123 723 160 q 785 55 766 86 q 819 0 804 23 l 638 0 q 619 32 633 6 q 585 95 604 59 q 548 167 566 132 q 518 226 530 203 l 392 469 l 257 325 l 214 0 l 69 0 z "},"L":{"ha":674,"x_min":71,"x_max":617,"o":"m 71 0 l 204 1038 l 356 1038 l 238 125 l 617 128 l 599 0 l 71 0 z "},"M":{"ha":1237,"x_min":24,"x_max":1131,"o":"m 505 -12 l 401 718 l 379 948 l 338 712 l 176 0 l 24 0 l 286 1038 l 487 1038 l 586 319 l 595 199 l 628 319 l 910 1038 l 1131 1038 l 1107 0 l 953 0 l 992 705 l 1009 948 l 924 732 l 628 -1 l 505 -12 z "},"N":{"ha":961,"x_min":71,"x_max":926,"o":"m 71 0 l 204 1038 l 356 1038 l 644 347 l 689 201 l 701 371 l 781 1038 l 926 1038 l 792 0 l 650 0 l 353 703 l 313 865 l 297 665 l 213 0 l 71 0 z "},"O":{"ha":936,"x_min":74,"x_max":897,"o":"m 414 -11 q 225 48 301 -11 q 111 206 149 107 q 74 424 74 304 q 107 661 74 549 q 205 861 141 774 q 358 999 268 949 q 558 1049 447 1049 q 708 1014 644 1049 q 814 919 772 980 q 876 781 856 859 q 897 614 897 702 q 864 375 897 488 q 768 175 831 263 q 616 39 706 88 q 414 -11 526 -11 m 435 104 q 567 148 509 104 q 663 265 624 192 q 722 426 702 338 q 740 603 742 515 q 718 785 739 712 q 652 894 697 858 q 536 931 608 931 q 405 886 463 931 q 309 769 348 842 q 250 609 269 697 q 231 435 230 522 q 283 184 234 263 q 435 104 333 104 z "},"P":{"ha":813,"x_min":71,"x_max":810,"o":"m 71 0 l 204 1038 l 288 1038 q 328 1039 301 1038 q 385 1043 354 1041 q 444 1047 416 1045 q 492 1049 473 1049 q 728 980 647 1049 q 810 772 810 911 q 758 550 810 647 q 609 401 705 453 q 389 349 513 349 q 316 351 347 349 q 268 356 286 353 l 222 0 l 71 0 m 388 467 q 589 543 524 467 q 658 765 654 618 q 613 895 660 852 q 466 938 565 938 q 404 934 440 938 q 341 924 367 930 l 283 476 q 332 469 301 472 q 388 467 363 467 z "},"Q":{"ha":937,"x_min":74,"x_max":897,"o":"m 612 -251 q 492 -228 545 -251 q 409 -162 440 -206 q 379 -56 379 -119 q 381 -22 379 -45 q 387 17 383 2 l 487 19 q 487 5 487 16 q 487 -12 487 -7 q 515 -78 487 -56 q 588 -108 542 -101 q 686 -116 633 -116 q 761 -111 719 -116 q 830 -97 802 -106 l 830 -206 q 777 -229 813 -219 q 696 -245 740 -239 q 612 -251 652 -251 m 414 -11 q 225 48 301 -11 q 111 206 149 107 q 74 424 74 304 q 107 661 74 549 q 205 861 141 774 q 358 999 268 949 q 558 1049 447 1049 q 708 1014 644 1049 q 814 919 772 980 q 876 781 856 859 q 897 614 897 702 q 864 375 897 488 q 768 175 831 263 q 616 39 706 88 q 414 -11 526 -11 m 435 104 q 567 148 509 104 q 663 265 624 192 q 722 426 702 338 q 740 603 742 515 q 718 785 739 712 q 652 894 697 858 q 536 931 608 931 q 405 886 463 931 q 309 769 348 842 q 250 609 269 697 q 231 435 230 522 q 283 184 234 263 q 435 104 333 104 z "},"R":{"ha":869,"x_min":69,"x_max":817,"o":"m 69 0 l 203 1038 l 283 1038 q 343 1040 302 1038 q 427 1046 385 1043 q 491 1049 469 1049 q 734 984 651 1049 q 817 796 817 919 q 756 582 817 673 q 580 456 695 492 q 615 410 597 440 q 649 345 633 380 q 675 278 665 310 q 720 167 697 222 q 764 67 743 111 q 800 0 785 22 l 628 0 q 612 33 621 13 q 592 79 603 53 q 570 138 582 106 q 546 207 558 170 q 520 286 534 247 q 489 358 506 325 q 452 411 472 390 q 410 433 433 431 l 276 434 l 221 0 l 69 0 m 440 553 q 564 584 515 553 q 636 670 613 615 q 658 796 660 725 q 611 900 657 865 q 474 935 565 935 q 430 934 456 935 q 378 930 403 932 q 341 925 354 927 l 292 554 q 347 553 310 553 q 440 553 383 553 z "},"S":{"ha":707,"x_min":16,"x_max":680,"o":"m 267 -11 q 197 -6 235 -11 q 123 9 160 0 q 58 29 87 18 q 16 52 30 40 l 60 174 q 112 143 75 158 q 193 118 149 128 q 271 108 237 108 q 376 125 330 108 q 448 174 422 141 q 474 258 474 208 q 439 363 474 312 q 329 463 403 415 q 219 552 266 507 q 148 651 173 598 q 122 772 122 705 q 165 923 122 861 q 281 1017 208 985 q 445 1049 354 1049 q 589 1032 529 1049 q 680 990 648 1015 l 632 874 q 552 917 604 903 q 452 932 499 932 q 363 919 403 932 q 299 877 323 906 q 272 800 274 848 q 293 721 272 763 q 351 642 315 680 q 426 576 386 604 q 535 490 490 533 q 606 397 581 447 q 631 285 631 348 q 582 119 631 185 q 452 21 534 53 q 267 -11 369 -11 z "},"T":{"ha":765,"x_min":88,"x_max":815,"o":"m 251 0 l 370 926 l 88 918 l 106 1038 l 815 1038 l 800 918 l 522 926 l 403 0 l 251 0 z "},"U":{"ha":933,"x_min":95,"x_max":910,"o":"m 410 -11 q 175 70 256 -11 q 95 297 95 151 q 98 336 95 313 q 105 403 100 360 l 185 1038 l 338 1038 l 259 428 q 253 360 255 391 q 251 303 251 328 q 297 159 251 206 q 433 111 344 111 q 558 147 508 111 q 639 255 608 183 q 684 435 669 326 l 761 1038 l 910 1038 l 831 422 q 802 281 820 344 q 758 170 784 217 q 619 32 705 75 q 410 -11 533 -11 z "},"V":{"ha":800,"x_min":85,"x_max":885,"o":"m 253 0 l 85 1038 l 235 1038 l 342 304 l 357 149 l 415 304 l 724 1038 l 885 1038 l 417 0 l 253 0 z "},"W":{"ha":1206,"x_min":83,"x_max":1293,"o":"m 235 -6 l 83 1038 l 234 1038 l 321 308 l 340 161 l 383 308 l 606 877 l 589 1038 l 735 1038 l 806 308 l 817 161 l 866 308 l 1139 1038 l 1293 1038 l 870 -6 l 710 -6 l 649 543 l 640 660 l 601 543 l 392 -6 l 235 -6 z "},"X":{"ha":794,"x_min":-45,"x_max":860,"o":"m -45 0 l 335 540 l 118 1038 l 285 1038 l 434 644 l 690 1038 l 860 1038 l 495 509 l 730 0 l 558 0 l 395 411 l 135 0 l -45 0 z "},"Y":{"ha":744,"x_min":57,"x_max":852,"o":"m 251 0 l 303 400 l 57 1038 l 217 1038 l 374 587 l 395 529 l 422 587 l 688 1038 l 852 1038 l 449 400 l 397 0 l 251 0 z "},"Z":{"ha":785,"x_min":1,"x_max":811,"o":"m 19 0 l 1 60 l 529 822 l 615 920 l 158 911 l 176 1038 l 793 1038 l 811 979 l 286 211 l 206 121 l 701 129 l 681 0 l 19 0 z "},"À":{"ha":867,"x_min":-57,"x_max":810,"o":"m -57 0 l 449 1038 l 623 1038 l 810 0 l 658 0 l 617 256 l 222 256 l 106 0 l -57 0 m 273 369 l 599 369 l 526 835 l 518 913 l 484 835 l 273 369 m 597 1136 q 536 1174 573 1146 q 461 1238 499 1201 q 391 1308 422 1274 q 348 1364 360 1342 l 458 1464 l 658 1187 l 597 1136 z "},"Á":{"ha":867,"x_min":-57,"x_max":810,"o":"m -57 0 l 449 1038 l 623 1038 l 810 0 l 658 0 l 617 256 l 222 256 l 106 0 l -57 0 m 273 369 l 599 369 l 526 835 l 518 913 l 484 835 l 273 369 m 513 1136 l 453 1187 l 665 1464 l 774 1364 q 741 1319 765 1346 q 688 1264 718 1293 q 624 1209 657 1235 q 563 1163 592 1183 q 513 1136 533 1143 z "},"Â":{"ha":867,"x_min":-57,"x_max":810,"o":"m -57 0 l 449 1038 l 623 1038 l 810 0 l 658 0 l 617 256 l 222 256 l 106 0 l -57 0 m 273 369 l 599 369 l 526 835 l 518 913 l 484 835 l 273 369 m 347 1128 l 288 1180 l 515 1424 l 635 1424 l 767 1180 l 697 1133 l 557 1293 l 347 1128 z "},"Ã":{"ha":867,"x_min":-57,"x_max":810,"o":"m -57 0 l 449 1038 l 623 1038 l 810 0 l 658 0 l 617 256 l 222 256 l 106 0 l -57 0 m 273 369 l 599 369 l 526 835 l 518 913 l 484 835 l 273 369 m 641 1149 q 570 1165 603 1149 q 515 1204 538 1181 q 479 1235 495 1225 q 442 1246 463 1246 q 398 1231 417 1246 q 358 1183 378 1216 l 302 1247 q 340 1303 315 1276 q 397 1347 365 1330 q 459 1364 428 1364 q 524 1348 492 1364 q 581 1304 556 1331 q 615 1276 600 1285 q 645 1268 630 1268 q 682 1277 665 1268 q 711 1303 698 1287 q 737 1343 725 1320 l 791 1276 q 758 1213 780 1242 q 705 1166 735 1184 q 641 1149 675 1149 z "},"Ä":{"ha":867,"x_min":-57,"x_max":810,"o":"m -57 0 l 449 1038 l 623 1038 l 810 0 l 658 0 l 617 256 l 222 256 l 106 0 l -57 0 m 273 369 l 599 369 l 526 835 l 518 913 l 484 835 l 273 369 m 383 1136 q 326 1161 351 1136 q 301 1219 301 1185 q 332 1296 301 1267 q 404 1325 363 1325 q 466 1301 442 1325 q 491 1242 491 1276 q 463 1167 491 1199 q 383 1136 434 1136 m 683 1136 q 626 1161 651 1136 q 601 1219 601 1185 q 632 1296 601 1267 q 704 1325 663 1325 q 767 1301 742 1325 q 792 1242 792 1276 q 763 1167 792 1199 q 683 1136 735 1136 z "},"Å":{"ha":867,"x_min":-57,"x_max":810,"o":"m -57 0 l 449 1038 l 623 1038 l 810 0 l 658 0 l 617 256 l 222 256 l 106 0 l -57 0 m 273 369 l 599 369 l 526 835 l 518 913 l 484 835 l 273 369 m 537 1135 q 390 1181 442 1135 q 338 1309 338 1227 q 373 1414 338 1372 q 465 1478 409 1457 q 579 1499 521 1499 q 718 1452 667 1499 q 769 1323 769 1406 q 738 1220 769 1260 q 652 1157 706 1178 q 537 1135 599 1135 m 542 1212 q 634 1238 601 1212 q 667 1328 667 1264 q 639 1395 667 1369 q 567 1422 612 1422 q 476 1395 515 1422 q 438 1308 438 1369 q 469 1240 438 1268 q 542 1212 500 1212 z "},"Æ":{"ha":1220,"x_min":-87,"x_max":1182,"o":"m -87 0 l 435 947 l 243 962 l 254 1038 l 1182 1038 l 1174 918 l 782 923 l 738 586 l 1033 590 l 1022 466 l 725 476 l 677 115 l 1144 125 l 1133 0 l 512 0 l 546 269 l 219 269 l 78 0 l -87 0 m 281 383 l 561 383 l 631 927 l 570 932 l 281 383 z "},"Ç":{"ha":779,"x_min":69,"x_max":785,"o":"m 416 -11 q 214 53 290 -11 q 103 220 137 118 q 69 439 69 322 q 135 755 69 616 q 312 971 199 894 q 563 1049 424 1049 q 633 1044 598 1049 q 705 1028 667 1039 q 785 1000 742 1017 l 735 873 q 663 907 699 893 q 555 922 626 922 q 365 848 438 922 q 257 666 290 774 q 224 447 224 557 q 247 276 224 353 q 319 155 270 200 q 446 110 368 110 q 537 122 489 110 q 625 150 585 133 q 684 182 665 167 l 706 60 q 663 35 690 48 q 598 13 635 23 q 515 -5 560 2 q 416 -11 469 -11 m 294 -316 q 230 -310 265 -316 q 183 -296 194 -303 l 201 -187 q 225 -195 210 -192 q 269 -197 240 -197 q 336 -172 306 -197 q 368 -81 367 -147 q 368 -17 369 -41 q 366 21 368 7 l 412 24 l 452 21 q 475 -38 466 0 q 485 -121 485 -76 q 433 -269 485 -222 q 294 -316 381 -316 z "},"È":{"ha":779,"x_min":71,"x_max":740,"o":"m 71 0 l 204 1038 l 740 1038 l 733 918 l 340 923 l 298 586 l 593 590 l 582 466 l 283 476 l 236 115 l 704 125 l 692 0 l 71 0 m 565 1135 q 504 1172 541 1144 q 429 1236 467 1200 q 359 1306 390 1272 q 316 1363 328 1340 l 426 1463 l 626 1185 l 565 1135 z "},"É":{"ha":779,"x_min":71,"x_max":742,"o":"m 71 0 l 204 1038 l 740 1038 l 733 918 l 340 923 l 298 586 l 593 590 l 582 466 l 283 476 l 236 115 l 704 125 l 692 0 l 71 0 m 481 1135 l 421 1185 l 633 1463 l 742 1363 q 709 1318 733 1344 q 656 1263 686 1292 q 592 1208 625 1234 q 531 1161 560 1181 q 481 1135 501 1142 z "},"Ê":{"ha":779,"x_min":71,"x_max":740,"o":"m 71 0 l 204 1038 l 740 1038 l 733 918 l 340 923 l 298 586 l 593 590 l 582 466 l 283 476 l 236 115 l 704 125 l 692 0 l 71 0 m 315 1127 l 256 1178 l 483 1423 l 603 1423 l 735 1178 l 665 1132 l 525 1292 l 315 1127 z "},"Ë":{"ha":779,"x_min":71,"x_max":760,"o":"m 71 0 l 204 1038 l 740 1038 l 733 918 l 340 923 l 298 586 l 593 590 l 582 466 l 283 476 l 236 115 l 704 125 l 692 0 l 71 0 m 351 1135 q 294 1159 319 1135 q 269 1217 269 1184 q 300 1294 269 1265 q 372 1324 331 1324 q 434 1299 410 1324 q 459 1240 459 1275 q 431 1166 459 1197 q 351 1135 402 1135 m 651 1135 q 594 1159 619 1135 q 569 1217 569 1184 q 600 1294 569 1265 q 672 1324 631 1324 q 735 1299 710 1324 q 760 1240 760 1275 q 731 1166 760 1197 q 651 1135 703 1135 z "},"Ì":{"ha":407,"x_min":83,"x_max":433,"o":"m 83 0 l 217 1038 l 369 1038 l 235 0 l 83 0 m 372 1135 q 310 1172 347 1144 q 235 1236 274 1200 q 166 1306 197 1272 q 122 1363 135 1340 l 232 1463 l 433 1185 l 372 1135 z "},"Í":{"ha":407,"x_min":83,"x_max":549,"o":"m 83 0 l 217 1038 l 369 1038 l 235 0 l 83 0 m 288 1135 l 227 1185 l 440 1463 l 549 1363 q 516 1318 539 1344 q 462 1263 492 1292 q 399 1208 431 1234 q 337 1161 366 1181 q 288 1135 308 1142 z "},"Î":{"ha":407,"x_min":63,"x_max":541,"o":"m 83 0 l 217 1038 l 369 1038 l 235 0 l 83 0 m 122 1127 l 63 1178 l 289 1423 l 410 1423 l 541 1178 l 471 1132 l 331 1292 l 122 1127 z "},"Ï":{"ha":407,"x_min":76,"x_max":566,"o":"m 83 0 l 217 1038 l 369 1038 l 235 0 l 83 0 m 158 1135 q 101 1159 126 1135 q 76 1217 76 1184 q 106 1294 76 1265 q 178 1324 137 1324 q 241 1299 216 1324 q 265 1240 265 1275 q 237 1166 265 1197 q 158 1135 208 1135 m 458 1135 q 401 1159 426 1135 q 376 1217 376 1184 q 407 1294 376 1265 q 478 1324 438 1324 q 541 1299 517 1324 q 566 1240 566 1275 q 538 1166 566 1197 q 458 1135 509 1135 z "},"Ð":{"ha":939,"x_min":28,"x_max":894,"o":"m 548 586 l 536 485 l 28 485 l 38 586 l 548 586 m 362 -11 q 289 -7 320 -10 q 224 -2 257 -5 q 144 0 191 0 l 71 0 l 204 1038 l 278 1038 q 311 1039 290 1038 q 358 1041 332 1040 q 411 1045 384 1043 q 462 1048 438 1047 q 501 1049 486 1049 q 799 933 705 1049 q 894 612 894 818 q 856 368 894 482 q 749 168 819 254 q 581 34 679 82 q 362 -11 483 -13 m 388 103 q 582 179 503 106 q 699 366 660 251 q 737 607 737 480 q 709 804 737 731 q 621 906 681 875 q 460 938 561 938 q 398 933 434 938 q 341 924 361 929 l 238 122 q 308 107 267 112 q 388 103 349 102 z "},"Ñ":{"ha":961,"x_min":71,"x_max":926,"o":"m 71 0 l 204 1038 l 356 1038 l 644 347 l 689 201 l 701 371 l 781 1038 l 926 1038 l 792 0 l 650 0 l 353 703 l 313 865 l 297 665 l 213 0 l 71 0 m 688 1149 q 617 1165 649 1149 q 561 1204 584 1181 q 526 1235 542 1225 q 489 1246 510 1246 q 444 1231 464 1246 q 404 1183 425 1216 l 349 1247 q 387 1303 362 1276 q 443 1347 412 1330 q 506 1364 474 1364 q 570 1348 538 1364 q 628 1304 603 1331 q 661 1276 647 1285 q 692 1268 676 1268 q 728 1277 712 1268 q 758 1303 744 1287 q 783 1343 772 1320 l 838 1276 q 804 1213 826 1242 q 752 1166 782 1184 q 688 1149 722 1149 z "},"Ò":{"ha":936,"x_min":74,"x_max":897,"o":"m 414 -11 q 225 48 301 -11 q 111 206 149 107 q 74 424 74 304 q 107 661 74 549 q 205 861 141 774 q 358 999 268 949 q 558 1049 447 1049 q 708 1014 644 1049 q 814 919 772 980 q 876 781 856 859 q 897 614 897 702 q 864 375 897 488 q 768 175 831 263 q 616 39 706 88 q 414 -11 526 -11 m 435 104 q 567 148 509 104 q 663 265 624 192 q 722 426 702 338 q 740 603 742 515 q 718 785 739 712 q 652 894 697 858 q 536 931 608 931 q 405 886 463 931 q 309 769 348 842 q 250 609 269 697 q 231 435 230 522 q 283 184 234 263 q 435 104 333 104 m 642 1136 q 581 1174 618 1146 q 506 1238 544 1201 q 436 1308 467 1274 q 393 1364 406 1342 l 503 1464 l 703 1187 l 642 1136 z "},"Ó":{"ha":936,"x_min":74,"x_max":897,"o":"m 414 -11 q 225 48 301 -11 q 111 206 149 107 q 74 424 74 304 q 107 661 74 549 q 205 861 141 774 q 358 999 268 949 q 558 1049 447 1049 q 708 1014 644 1049 q 814 919 772 980 q 876 781 856 859 q 897 614 897 702 q 864 375 897 488 q 768 175 831 263 q 616 39 706 88 q 414 -11 526 -11 m 435 104 q 567 148 509 104 q 663 265 624 192 q 722 426 702 338 q 740 603 742 515 q 718 785 739 712 q 652 894 697 858 q 536 931 608 931 q 405 886 463 931 q 309 769 348 842 q 250 609 269 697 q 231 435 230 522 q 283 184 234 263 q 435 104 333 104 m 558 1136 l 498 1187 l 710 1464 l 819 1364 q 786 1319 810 1346 q 733 1264 763 1293 q 669 1209 702 1235 q 608 1163 637 1183 q 558 1136 578 1143 z "},"Ô":{"ha":936,"x_min":74,"x_max":897,"o":"m 414 -11 q 225 48 301 -11 q 111 206 149 107 q 74 424 74 304 q 107 661 74 549 q 205 861 141 774 q 358 999 268 949 q 558 1049 447 1049 q 708 1014 644 1049 q 814 919 772 980 q 876 781 856 859 q 897 614 897 702 q 864 375 897 488 q 768 175 831 263 q 616 39 706 88 q 414 -11 526 -11 m 435 104 q 567 148 509 104 q 663 265 624 192 q 722 426 702 338 q 740 603 742 515 q 718 785 739 712 q 652 894 697 858 q 536 931 608 931 q 405 886 463 931 q 309 769 348 842 q 250 609 269 697 q 231 435 230 522 q 283 184 234 263 q 435 104 333 104 m 392 1128 l 333 1180 l 560 1424 l 681 1424 l 812 1180 l 742 1133 l 602 1293 l 392 1128 z "},"Õ":{"ha":936,"x_min":74,"x_max":897,"o":"m 414 -11 q 225 48 301 -11 q 111 206 149 107 q 74 424 74 304 q 107 661 74 549 q 205 861 141 774 q 358 999 268 949 q 558 1049 447 1049 q 708 1014 644 1049 q 814 919 772 980 q 876 781 856 859 q 897 614 897 702 q 864 375 897 488 q 768 175 831 263 q 616 39 706 88 q 414 -11 526 -11 m 435 104 q 567 148 509 104 q 663 265 624 192 q 722 426 702 338 q 740 603 742 515 q 718 785 739 712 q 652 894 697 858 q 536 931 608 931 q 405 886 463 931 q 309 769 348 842 q 250 609 269 697 q 231 435 230 522 q 283 184 234 263 q 435 104 333 104 m 686 1149 q 615 1165 648 1149 q 560 1204 583 1181 q 524 1235 540 1225 q 488 1246 508 1246 q 443 1231 463 1246 q 403 1183 424 1216 l 347 1247 q 385 1303 360 1276 q 442 1347 410 1330 q 504 1364 473 1364 q 569 1348 537 1364 q 626 1304 601 1331 q 660 1276 645 1285 q 690 1268 675 1268 q 727 1277 710 1268 q 757 1303 743 1287 q 782 1343 770 1320 l 836 1276 q 803 1213 825 1242 q 750 1166 781 1184 q 686 1149 720 1149 z "},"Ö":{"ha":936,"x_min":74,"x_max":897,"o":"m 414 -11 q 225 48 301 -11 q 111 206 149 107 q 74 424 74 304 q 107 661 74 549 q 205 861 141 774 q 358 999 268 949 q 558 1049 447 1049 q 708 1014 644 1049 q 814 919 772 980 q 876 781 856 859 q 897 614 897 702 q 864 375 897 488 q 768 175 831 263 q 616 39 706 88 q 414 -11 526 -11 m 435 104 q 567 148 509 104 q 663 265 624 192 q 722 426 702 338 q 740 603 742 515 q 718 785 739 712 q 652 894 697 858 q 536 931 608 931 q 405 886 463 931 q 309 769 348 842 q 250 609 269 697 q 231 435 230 522 q 283 184 234 263 q 435 104 333 104 m 428 1136 q 372 1161 397 1136 q 347 1219 347 1185 q 377 1296 347 1267 q 449 1325 408 1325 q 511 1301 487 1325 q 536 1242 536 1276 q 508 1167 536 1199 q 428 1136 479 1136 m 728 1136 q 672 1161 697 1136 q 647 1219 647 1185 q 677 1296 647 1267 q 749 1325 708 1325 q 812 1301 788 1325 q 837 1242 837 1276 q 808 1167 837 1199 q 728 1136 780 1136 z "},"Ø":{"ha":937,"x_min":48,"x_max":892,"o":"m 108 -89 l 48 -57 l 159 110 q 92 250 115 169 q 69 425 69 331 q 131 742 69 599 q 304 966 194 884 q 552 1049 415 1049 q 738 992 660 1049 l 829 1132 l 889 1100 l 789 945 q 866 801 840 886 q 892 614 892 715 q 831 298 892 442 q 660 73 770 156 q 408 -10 551 -10 q 298 7 349 -10 q 206 60 248 24 l 108 -89 m 430 105 q 589 173 519 105 q 696 352 658 240 q 735 593 735 465 q 699 821 735 739 l 289 169 q 430 105 337 105 m 253 240 l 658 883 q 531 930 610 930 q 373 861 444 930 q 265 681 303 793 q 226 445 226 569 q 253 240 226 320 z "},"Ù":{"ha":933,"x_min":95,"x_max":910,"o":"m 410 -11 q 175 70 256 -11 q 95 297 95 151 q 98 336 95 313 q 105 403 100 360 l 185 1038 l 338 1038 l 259 428 q 253 360 255 391 q 251 303 251 328 q 297 159 251 206 q 433 111 344 111 q 558 147 508 111 q 639 255 608 183 q 684 435 669 326 l 761 1038 l 910 1038 l 831 422 q 802 281 820 344 q 758 170 784 217 q 619 32 705 75 q 410 -11 533 -11 m 623 1136 q 562 1174 599 1146 q 486 1238 525 1201 q 417 1308 448 1274 q 374 1364 386 1342 l 483 1464 l 684 1187 l 623 1136 z "},"Ú":{"ha":933,"x_min":95,"x_max":910,"o":"m 410 -11 q 175 70 256 -11 q 95 297 95 151 q 98 336 95 313 q 105 403 100 360 l 185 1038 l 338 1038 l 259 428 q 253 360 255 391 q 251 303 251 328 q 297 159 251 206 q 433 111 344 111 q 558 147 508 111 q 639 255 608 183 q 684 435 669 326 l 761 1038 l 910 1038 l 831 422 q 802 281 820 344 q 758 170 784 217 q 619 32 705 75 q 410 -11 533 -11 m 539 1136 l 478 1187 l 691 1464 l 800 1364 q 767 1319 790 1346 q 713 1264 744 1293 q 650 1209 683 1235 q 588 1163 617 1183 q 539 1136 559 1143 z "},"Û":{"ha":933,"x_min":95,"x_max":910,"o":"m 410 -11 q 175 70 256 -11 q 95 297 95 151 q 98 336 95 313 q 105 403 100 360 l 185 1038 l 338 1038 l 259 428 q 253 360 255 391 q 251 303 251 328 q 297 159 251 206 q 433 111 344 111 q 558 147 508 111 q 639 255 608 183 q 684 435 669 326 l 761 1038 l 910 1038 l 831 422 q 802 281 820 344 q 758 170 784 217 q 619 32 705 75 q 410 -11 533 -11 m 373 1128 l 314 1180 l 540 1424 l 661 1424 l 792 1180 l 722 1133 l 583 1293 l 373 1128 z "},"Ü":{"ha":933,"x_min":95,"x_max":910,"o":"m 410 -11 q 175 70 256 -11 q 95 297 95 151 q 98 336 95 313 q 105 403 100 360 l 185 1038 l 338 1038 l 259 428 q 253 360 255 391 q 251 303 251 328 q 297 159 251 206 q 433 111 344 111 q 558 147 508 111 q 639 255 608 183 q 684 435 669 326 l 761 1038 l 910 1038 l 831 422 q 802 281 820 344 q 758 170 784 217 q 619 32 705 75 q 410 -11 533 -11 m 409 1136 q 352 1161 377 1136 q 327 1219 327 1185 q 358 1296 327 1267 q 430 1325 388 1325 q 492 1301 467 1325 q 517 1242 517 1276 q 488 1167 517 1199 q 409 1136 460 1136 m 709 1136 q 652 1161 677 1136 q 627 1219 627 1185 q 658 1296 627 1267 q 730 1325 689 1325 q 793 1301 768 1325 q 817 1242 817 1276 q 789 1167 817 1199 q 709 1136 760 1136 z "},"Ý":{"ha":744,"x_min":57,"x_max":852,"o":"m 251 0 l 303 400 l 57 1038 l 217 1038 l 374 587 l 395 529 l 422 587 l 688 1038 l 852 1038 l 449 400 l 397 0 l 251 0 m 452 1136 l 392 1187 l 604 1464 l 713 1364 q 680 1319 703 1346 q 626 1264 657 1293 q 563 1209 596 1235 q 501 1163 531 1183 q 452 1136 472 1143 z "},"Þ":{"ha":831,"x_min":71,"x_max":789,"o":"m 71 0 l 204 1038 l 356 1038 l 334 870 q 376 874 349 872 q 430 877 403 876 q 470 878 457 878 q 707 810 625 878 q 788 603 788 741 q 737 383 789 477 q 588 234 684 287 q 367 182 492 182 q 301 184 331 182 q 247 189 271 186 l 223 0 l 71 0 m 367 300 q 568 375 503 300 q 636 597 633 451 q 591 725 638 682 q 444 767 544 767 q 422 767 435 767 q 397 765 410 766 q 370 763 383 764 q 343 759 356 761 q 320 754 331 757 l 263 309 q 310 302 280 305 q 367 300 341 299 z "},"Ā":{"ha":867,"x_min":-57,"x_max":810,"o":"m -57 0 l 449 1038 l 623 1038 l 810 0 l 658 0 l 617 256 l 222 256 l 106 0 l -57 0 m 273 369 l 599 369 l 526 835 l 518 913 l 484 835 l 273 369 m 369 1154 l 373 1261 l 726 1261 l 720 1154 l 369 1154 z "},"Ă":{"ha":867,"x_min":-57,"x_max":810,"o":"m -57 0 l 449 1038 l 623 1038 l 810 0 l 658 0 l 617 256 l 222 256 l 106 0 l -57 0 m 273 369 l 599 369 l 526 835 l 518 913 l 484 835 l 273 369 m 538 1136 q 422 1167 469 1136 q 352 1252 374 1198 q 333 1377 329 1307 l 431 1377 q 463 1277 438 1310 q 543 1244 488 1244 q 610 1261 585 1244 q 650 1309 635 1278 q 675 1377 665 1339 l 770 1377 q 740 1258 770 1313 q 657 1169 709 1203 q 538 1136 604 1136 z "},"Ą":{"ha":867,"x_min":-57,"x_max":833,"o":"m -57 0 l 449 1038 l 623 1038 l 810 0 l 658 0 l 617 256 l 222 256 l 106 0 l -57 0 m 273 369 l 599 369 l 526 835 l 518 913 l 484 835 l 273 369 m 654 -304 q 559 -273 595 -304 q 524 -197 524 -241 q 536 -139 524 -166 q 571 -87 548 -112 q 627 -41 594 -63 q 702 1 660 -19 l 765 31 l 810 0 q 702 -84 738 -49 q 665 -153 665 -120 q 678 -189 665 -178 q 708 -199 691 -199 q 751 -191 731 -199 q 799 -165 772 -183 l 833 -234 q 784 -269 811 -253 q 725 -294 758 -285 q 654 -304 693 -304 z "},"Ć":{"ha":779,"x_min":69,"x_max":817,"o":"m 416 -11 q 214 53 290 -11 q 103 220 137 118 q 69 439 69 322 q 135 755 69 616 q 312 971 199 894 q 563 1049 424 1049 q 633 1044 598 1049 q 705 1028 667 1039 q 785 1000 742 1017 l 735 873 q 663 907 699 893 q 555 922 626 922 q 365 848 438 922 q 257 666 290 774 q 224 447 224 557 q 247 276 224 353 q 319 155 270 200 q 446 110 368 110 q 537 122 489 110 q 625 150 585 133 q 684 182 665 167 l 706 60 q 663 35 690 48 q 598 13 635 23 q 515 -5 560 2 q 416 -11 469 -11 m 556 1136 l 495 1187 l 708 1464 l 817 1364 q 784 1319 807 1346 q 730 1264 760 1293 q 667 1209 699 1235 q 605 1163 634 1183 q 556 1136 576 1143 z "},"Ĉ":{"ha":779,"x_min":69,"x_max":809,"o":"m 416 -11 q 214 53 290 -11 q 103 220 137 118 q 69 439 69 322 q 135 755 69 616 q 312 971 199 894 q 563 1049 424 1049 q 633 1044 598 1049 q 705 1028 667 1039 q 785 1000 742 1017 l 735 873 q 663 907 699 893 q 555 922 626 922 q 365 848 438 922 q 257 666 290 774 q 224 447 224 557 q 247 276 224 353 q 319 155 270 200 q 446 110 368 110 q 537 122 489 110 q 625 150 585 133 q 684 182 665 167 l 706 60 q 663 35 690 48 q 598 13 635 23 q 515 -5 560 2 q 416 -11 469 -11 m 390 1128 l 331 1180 l 557 1424 l 678 1424 l 809 1180 l 739 1133 l 599 1293 l 390 1128 z "},"Ċ":{"ha":779,"x_min":69,"x_max":785,"o":"m 416 -11 q 214 53 290 -11 q 103 220 137 118 q 69 439 69 322 q 135 755 69 616 q 312 971 199 894 q 563 1049 424 1049 q 633 1044 598 1049 q 705 1028 667 1039 q 785 1000 742 1017 l 735 873 q 663 907 699 893 q 555 922 626 922 q 365 848 438 922 q 257 666 290 774 q 224 447 224 557 q 247 276 224 353 q 319 155 270 200 q 446 110 368 110 q 537 122 489 110 q 625 150 585 133 q 684 182 665 167 l 706 60 q 663 35 690 48 q 598 13 635 23 q 515 -5 560 2 q 416 -11 469 -11 m 574 1136 q 515 1160 541 1136 q 489 1219 489 1185 q 521 1293 489 1261 q 596 1325 553 1325 q 660 1302 635 1325 q 685 1244 685 1279 q 652 1169 685 1201 q 574 1136 619 1136 z "},"Č":{"ha":779,"x_min":69,"x_max":858,"o":"m 416 -11 q 214 53 290 -11 q 103 220 137 118 q 69 439 69 322 q 135 755 69 616 q 312 971 199 894 q 563 1049 424 1049 q 633 1044 598 1049 q 705 1028 667 1039 q 785 1000 742 1017 l 735 873 q 663 907 699 893 q 555 922 626 922 q 365 848 438 922 q 257 666 290 774 q 224 447 224 557 q 247 276 224 353 q 319 155 270 200 q 446 110 368 110 q 537 122 489 110 q 625 150 585 133 q 684 182 665 167 l 706 60 q 663 35 690 48 q 598 13 635 23 q 515 -5 560 2 q 416 -11 469 -11 m 519 1136 l 357 1351 l 421 1410 l 588 1250 l 794 1410 l 858 1353 l 638 1136 l 519 1136 z "},"Ď":{"ha":939,"x_min":71,"x_max":894,"o":"m 362 -11 q 289 -7 320 -10 q 224 -2 257 -5 q 144 0 191 0 l 71 0 l 204 1038 l 278 1038 q 311 1039 290 1038 q 358 1041 332 1040 q 411 1045 384 1043 q 462 1048 438 1047 q 501 1049 486 1049 q 799 933 705 1049 q 894 612 894 818 q 856 368 894 482 q 749 168 819 254 q 581 34 679 82 q 362 -11 483 -13 m 388 103 q 582 179 503 106 q 699 366 660 251 q 737 607 737 480 q 709 804 737 731 q 621 906 681 875 q 460 938 561 938 q 398 933 434 938 q 341 924 361 929 l 238 122 q 308 107 267 112 q 388 103 349 102 m 512 1136 l 350 1351 l 414 1410 l 581 1250 l 788 1410 l 851 1353 l 631 1136 l 512 1136 z "},"Đ":{"ha":939,"x_min":28,"x_max":894,"o":"m 548 586 l 536 485 l 28 485 l 38 586 l 548 586 m 362 -11 q 289 -7 320 -10 q 224 -2 257 -5 q 144 0 191 0 l 71 0 l 204 1038 l 278 1038 q 311 1039 290 1038 q 358 1041 332 1040 q 411 1045 384 1043 q 462 1048 438 1047 q 501 1049 486 1049 q 799 933 705 1049 q 894 612 894 818 q 856 368 894 482 q 749 168 819 254 q 581 34 679 82 q 362 -11 483 -13 m 388 103 q 582 179 503 106 q 699 366 660 251 q 737 607 737 480 q 709 804 737 731 q 621 906 681 875 q 460 938 561 938 q 398 933 434 938 q 341 924 361 929 l 238 122 q 308 107 267 112 q 388 103 349 102 z "},"Ē":{"ha":779,"x_min":71,"x_max":740,"o":"m 71 0 l 204 1038 l 740 1038 l 733 918 l 340 923 l 298 586 l 593 590 l 582 466 l 283 476 l 236 115 l 704 125 l 692 0 l 71 0 m 337 1153 l 341 1260 l 694 1260 l 688 1153 l 337 1153 z "},"Ĕ":{"ha":779,"x_min":71,"x_max":740,"o":"m 71 0 l 204 1038 l 740 1038 l 733 918 l 340 923 l 298 586 l 593 590 l 582 466 l 283 476 l 236 115 l 704 125 l 692 0 l 71 0 m 506 1135 q 390 1166 437 1135 q 320 1251 342 1197 q 301 1376 297 1306 l 399 1376 q 431 1275 406 1308 q 511 1242 456 1242 q 578 1260 553 1242 q 618 1307 603 1277 q 643 1376 633 1338 l 738 1376 q 708 1256 738 1311 q 625 1168 677 1201 q 506 1135 572 1135 z "},"Ė":{"ha":779,"x_min":71,"x_max":740,"o":"m 71 0 l 204 1038 l 740 1038 l 733 918 l 340 923 l 298 586 l 593 590 l 582 466 l 283 476 l 236 115 l 704 125 l 692 0 l 71 0 m 499 1135 q 441 1159 467 1135 q 415 1217 415 1183 q 447 1292 415 1260 q 522 1324 479 1324 q 585 1301 560 1324 q 610 1243 610 1278 q 577 1167 610 1200 q 499 1135 544 1135 z "},"Ę":{"ha":779,"x_min":71,"x_max":740,"o":"m 71 0 l 204 1038 l 740 1038 l 733 918 l 340 923 l 298 586 l 593 590 l 582 466 l 283 476 l 236 115 l 704 125 l 692 0 l 71 0 m 495 -304 q 400 -273 436 -304 q 365 -197 365 -241 q 377 -139 365 -166 q 412 -87 389 -112 q 468 -41 435 -63 q 543 1 501 -19 l 606 31 l 651 0 q 543 -84 579 -49 q 506 -153 506 -120 q 519 -189 506 -178 q 549 -199 532 -199 q 592 -191 572 -199 q 640 -165 613 -183 l 674 -234 q 625 -269 652 -253 q 566 -294 599 -285 q 495 -304 534 -304 z "},"Ě":{"ha":779,"x_min":71,"x_max":783,"o":"m 71 0 l 204 1038 l 740 1038 l 733 918 l 340 923 l 298 586 l 593 590 l 582 466 l 283 476 l 236 115 l 704 125 l 692 0 l 71 0 m 444 1135 l 283 1350 l 347 1408 l 513 1249 l 720 1408 l 783 1351 l 564 1135 l 444 1135 z "},"Ĝ":{"ha":918,"x_min":68,"x_max":855,"o":"m 420 -11 q 224 51 302 -11 q 109 212 145 113 q 70 423 72 310 q 134 749 68 606 q 318 970 201 891 q 578 1049 435 1049 q 650 1046 617 1049 q 714 1038 683 1044 q 778 1024 744 1033 q 855 1001 813 1015 l 812 864 q 755 893 792 878 q 671 917 718 908 q 574 926 624 926 q 376 853 455 926 q 260 669 297 779 q 224 446 224 558 q 247 276 224 353 q 319 153 269 199 q 446 107 368 107 q 548 118 492 107 q 653 152 604 130 l 683 386 l 524 386 l 540 508 l 845 508 l 787 62 q 745 54 767 60 q 685 38 724 49 q 552 3 617 17 q 420 -11 488 -11 m 372 1128 l 313 1180 l 540 1424 l 660 1424 l 792 1180 l 722 1133 l 582 1293 l 372 1128 z "},"Ğ":{"ha":918,"x_min":68,"x_max":855,"o":"m 420 -11 q 224 51 302 -11 q 109 212 145 113 q 70 423 72 310 q 134 749 68 606 q 318 970 201 891 q 578 1049 435 1049 q 650 1046 617 1049 q 714 1038 683 1044 q 778 1024 744 1033 q 855 1001 813 1015 l 812 864 q 755 893 792 878 q 671 917 718 908 q 574 926 624 926 q 376 853 455 926 q 260 669 297 779 q 224 446 224 558 q 247 276 224 353 q 319 153 269 199 q 446 107 368 107 q 548 118 492 107 q 653 152 604 130 l 683 386 l 524 386 l 540 508 l 845 508 l 787 62 q 745 54 767 60 q 685 38 724 49 q 552 3 617 17 q 420 -11 488 -11 m 563 1136 q 447 1167 494 1136 q 377 1252 399 1198 q 358 1377 354 1307 l 456 1377 q 488 1277 463 1310 q 568 1244 513 1244 q 635 1261 610 1244 q 675 1309 660 1278 q 700 1377 690 1339 l 795 1377 q 765 1258 795 1313 q 682 1169 734 1203 q 563 1136 629 1136 z "},"Ġ":{"ha":918,"x_min":68,"x_max":855,"o":"m 420 -11 q 224 51 302 -11 q 109 212 145 113 q 70 423 72 310 q 134 749 68 606 q 318 970 201 891 q 578 1049 435 1049 q 650 1046 617 1049 q 714 1038 683 1044 q 778 1024 744 1033 q 855 1001 813 1015 l 812 864 q 755 893 792 878 q 671 917 718 908 q 574 926 624 926 q 376 853 455 926 q 260 669 297 779 q 224 446 224 558 q 247 276 224 353 q 319 153 269 199 q 446 107 368 107 q 548 118 492 107 q 653 152 604 130 l 683 386 l 524 386 l 540 508 l 845 508 l 787 62 q 745 54 767 60 q 685 38 724 49 q 552 3 617 17 q 420 -11 488 -11 m 556 1136 q 498 1160 524 1136 q 472 1219 472 1185 q 504 1293 472 1261 q 578 1325 536 1325 q 642 1302 617 1325 q 667 1244 667 1279 q 634 1169 667 1201 q 556 1136 601 1136 z "},"Ģ":{"ha":918,"x_min":68,"x_max":855,"o":"m 420 -11 q 224 51 302 -11 q 109 212 145 113 q 70 423 72 310 q 134 749 68 606 q 318 970 201 891 q 578 1049 435 1049 q 650 1046 617 1049 q 714 1038 683 1044 q 778 1024 744 1033 q 855 1001 813 1015 l 812 864 q 755 893 792 878 q 671 917 718 908 q 574 926 624 926 q 376 853 455 926 q 260 669 297 779 q 224 446 224 558 q 247 276 224 353 q 319 153 269 199 q 446 107 368 107 q 548 118 492 107 q 653 152 604 130 l 683 386 l 524 386 l 540 508 l 845 508 l 787 62 q 745 54 767 60 q 685 38 724 49 q 552 3 617 17 q 420 -11 488 -11 m 335 -458 l 278 -422 l 281 -403 q 316 -363 305 -385 q 326 -305 326 -340 q 312 -258 326 -281 q 278 -232 298 -235 l 283 -190 l 382 -119 q 442 -169 422 -131 q 463 -259 463 -208 q 445 -350 463 -307 q 397 -422 426 -393 q 335 -458 368 -451 z "},"Ĥ":{"ha":965,"x_min":69,"x_max":931,"o":"m 69 0 l 203 1038 l 355 1038 l 294 574 l 719 574 l 778 1038 l 931 1038 l 797 0 l 644 0 l 704 463 l 281 463 l 220 0 l 69 0 m 396 1127 l 337 1178 l 563 1423 l 684 1423 l 815 1178 l 745 1132 l 606 1292 l 396 1127 z "},"Ħ":{"ha":967,"x_min":29,"x_max":1042,"o":"m 72 0 l 158 668 l 29 668 l 40 781 l 173 781 l 206 1038 l 358 1038 l 324 781 l 748 781 l 781 1038 l 933 1038 l 900 781 l 1042 781 l 1031 668 l 885 668 l 799 0 l 647 0 l 697 385 l 273 385 l 223 0 l 72 0 m 287 497 l 712 497 l 733 668 l 309 668 l 287 497 z "},"Ĩ":{"ha":407,"x_min":76,"x_max":565,"o":"m 83 0 l 217 1038 l 369 1038 l 235 0 l 83 0 m 415 1147 q 344 1163 377 1147 q 289 1203 312 1179 q 253 1234 269 1224 q 217 1244 238 1244 q 172 1230 192 1244 q 132 1182 153 1215 l 76 1246 q 115 1302 90 1275 q 171 1345 140 1328 q 233 1363 202 1363 q 298 1346 266 1363 q 356 1303 331 1330 q 389 1275 374 1283 q 419 1267 404 1267 q 456 1276 440 1267 q 486 1302 472 1285 q 511 1342 499 1319 l 565 1275 q 532 1212 554 1241 q 480 1165 510 1183 q 415 1147 449 1147 z "},"Ī":{"ha":407,"x_min":83,"x_max":500,"o":"m 83 0 l 217 1038 l 369 1038 l 235 0 l 83 0 m 143 1153 l 147 1260 l 500 1260 l 494 1153 l 143 1153 z "},"Ĭ":{"ha":407,"x_min":83,"x_max":544,"o":"m 83 0 l 217 1038 l 369 1038 l 235 0 l 83 0 m 312 1135 q 196 1166 243 1135 q 126 1251 149 1197 q 108 1376 103 1306 l 206 1376 q 238 1275 213 1308 q 317 1242 263 1242 q 384 1260 359 1242 q 424 1307 410 1277 q 449 1376 439 1338 l 544 1376 q 514 1256 544 1311 q 431 1168 483 1201 q 312 1135 378 1135 z "},"Į":{"ha":407,"x_min":-52,"x_max":369,"o":"m 83 0 l 217 1038 l 369 1038 l 235 0 l 83 0 m 78 -304 q -16 -273 19 -304 q -52 -197 -52 -241 q -40 -139 -52 -166 q -5 -87 -28 -112 q 51 -41 18 -63 q 126 1 85 -19 l 190 31 l 235 0 q 126 -84 163 -49 q 90 -153 90 -120 q 102 -189 90 -178 q 132 -199 115 -199 q 176 -191 155 -199 q 224 -165 197 -183 l 257 -234 q 209 -269 235 -253 q 150 -294 182 -285 q 78 -304 117 -304 z "},"İ":{"ha":407,"x_min":83,"x_max":417,"o":"m 83 0 l 217 1038 l 369 1038 l 235 0 l 83 0 m 306 1135 q 247 1159 273 1135 q 221 1217 221 1183 q 253 1292 221 1260 q 328 1324 285 1324 q 392 1301 367 1324 q 417 1243 417 1278 q 384 1167 417 1200 q 306 1135 351 1135 z "},"Ĳ":{"ha":815,"x_min":83,"x_max":774,"o":"m 83 0 l 217 1038 l 369 1038 l 235 0 l 83 0 m 315 -219 l 291 -156 q 352 -124 319 -147 q 415 -69 385 -100 q 466 -4 444 -37 q 492 58 487 29 q 523 220 510 140 q 547 385 536 300 q 568 568 558 471 q 592 781 578 665 q 623 1038 605 897 l 774 1038 l 694 381 q 662 157 676 239 q 640 51 648 75 q 570 -90 615 -35 q 461 -177 525 -146 q 315 -219 398 -208 z "},"Ĵ":{"ha":408,"x_min":-116,"x_max":558,"o":"m -92 -219 l -116 -156 q -55 -124 -87 -147 q 8 -69 -22 -100 q 59 -4 38 -37 q 85 58 80 29 q 116 220 103 140 q 140 385 129 300 q 161 568 151 471 q 185 781 172 665 q 216 1038 198 897 l 367 1038 l 287 381 q 255 157 269 239 q 233 51 241 75 q 163 -90 208 -35 q 55 -177 118 -146 q -92 -219 -9 -208 m 138 1128 l 79 1180 l 306 1424 l 426 1424 l 558 1180 l 488 1133 l 348 1293 l 138 1128 z "},"Ķ":{"ha":853,"x_min":69,"x_max":904,"o":"m 69 0 l 203 1038 l 349 1038 l 282 525 l 728 1038 l 904 1038 l 493 576 q 525 521 512 544 q 553 468 538 497 q 593 394 568 440 q 660 272 617 349 q 701 198 680 236 q 744 123 723 160 q 785 55 766 86 q 819 0 804 23 l 638 0 q 619 32 633 6 q 585 95 604 59 q 548 167 566 132 q 518 226 530 203 l 392 469 l 257 325 l 214 0 l 69 0 m 355 -458 l 298 -422 l 301 -403 q 336 -363 325 -385 q 347 -305 347 -340 q 332 -258 347 -281 q 298 -232 318 -235 l 303 -190 l 402 -119 q 463 -169 442 -131 q 483 -259 483 -208 q 465 -350 483 -307 q 417 -422 447 -393 q 355 -458 388 -451 z "},"Ĺ":{"ha":674,"x_min":71,"x_max":617,"o":"m 71 0 l 204 1038 l 356 1038 l 238 125 l 617 128 l 599 0 l 71 0 m 276 1136 l 216 1187 l 428 1464 l 538 1364 q 505 1319 528 1346 q 451 1264 481 1293 q 388 1209 420 1235 q 326 1163 355 1183 q 276 1136 297 1143 z "},"Ļ":{"ha":674,"x_min":71,"x_max":617,"o":"m 71 0 l 204 1038 l 356 1038 l 238 125 l 617 128 l 599 0 l 71 0 m 283 -458 l 226 -422 l 228 -403 q 264 -363 253 -385 q 274 -305 274 -340 q 260 -258 274 -281 q 226 -232 246 -235 l 231 -190 l 330 -119 q 390 -169 369 -131 q 411 -259 411 -208 q 393 -350 411 -307 q 345 -422 374 -393 q 283 -458 316 -451 z "},"Ľ":{"ha":675,"x_min":71,"x_max":698,"o":"m 614 681 l 540 707 l 536 724 q 557 832 549 778 q 564 934 564 885 q 559 1012 564 975 q 544 1065 553 1049 l 551 1088 l 677 1119 q 693 1058 689 1095 q 698 967 698 1022 q 688 868 698 921 q 658 766 677 815 q 614 681 640 717 m 71 0 l 204 1038 l 356 1038 l 238 125 l 617 128 l 599 0 l 71 0 z "},"Ŀ":{"ha":752,"x_min":71,"x_max":713,"o":"m 71 0 l 204 1038 l 356 1038 l 238 125 l 617 128 l 599 0 l 71 0 m 600 439 q 539 461 564 439 q 515 519 515 484 q 547 599 515 565 q 627 634 579 634 q 691 611 670 634 q 713 553 713 589 q 682 470 713 501 q 600 439 651 439 z "},"Ł":{"ha":675,"x_min":-24,"x_max":617,"o":"m 135 410 l 2 354 l -24 442 l 149 515 l 288 578 l 549 690 l 576 596 l 274 471 l 135 410 m 71 0 l 204 1038 l 356 1038 l 238 125 l 617 128 l 599 0 l 71 0 z "},"Ń":{"ha":961,"x_min":71,"x_max":926,"o":"m 71 0 l 204 1038 l 356 1038 l 644 347 l 689 201 l 701 371 l 781 1038 l 926 1038 l 792 0 l 650 0 l 353 703 l 313 865 l 297 665 l 213 0 l 71 0 m 560 1136 l 499 1187 l 712 1464 l 821 1364 q 788 1319 811 1346 q 734 1264 765 1293 q 671 1209 703 1235 q 609 1163 638 1183 q 560 1136 580 1143 z "},"Ņ":{"ha":961,"x_min":71,"x_max":926,"o":"m 71 0 l 204 1038 l 356 1038 l 644 347 l 689 201 l 701 371 l 781 1038 l 926 1038 l 792 0 l 650 0 l 353 703 l 313 865 l 297 665 l 213 0 l 71 0 m 356 -458 l 299 -422 l 302 -403 q 337 -363 326 -385 q 348 -305 348 -340 q 334 -258 348 -281 q 299 -232 319 -235 l 304 -190 l 403 -119 q 464 -169 443 -131 q 485 -259 485 -208 q 466 -350 485 -307 q 419 -422 448 -393 q 356 -458 390 -451 z "},"Ň":{"ha":961,"x_min":71,"x_max":926,"o":"m 71 0 l 204 1038 l 356 1038 l 644 347 l 689 201 l 701 371 l 781 1038 l 926 1038 l 792 0 l 650 0 l 353 703 l 313 865 l 297 665 l 213 0 l 71 0 m 523 1136 l 361 1351 l 425 1410 l 592 1250 l 799 1410 l 862 1353 l 642 1136 l 523 1136 z "},"Ŋ":{"ha":960,"x_min":72,"x_max":927,"o":"m 474 -225 l 448 -160 q 536 -117 497 -144 q 602 -56 574 -91 q 644 19 629 -22 l 355 703 l 314 865 l 299 665 l 214 0 l 72 0 l 206 1038 l 357 1038 l 645 347 l 690 201 l 702 371 l 783 1038 l 927 1038 l 791 0 q 722 -110 767 -64 q 615 -185 678 -156 q 474 -225 553 -213 z "},"Ō":{"ha":936,"x_min":74,"x_max":897,"o":"m 414 -11 q 225 48 301 -11 q 111 206 149 107 q 74 424 74 304 q 107 661 74 549 q 205 861 141 774 q 358 999 268 949 q 558 1049 447 1049 q 708 1014 644 1049 q 814 919 772 980 q 876 781 856 859 q 897 614 897 702 q 864 375 897 488 q 768 175 831 263 q 616 39 706 88 q 414 -11 526 -11 m 435 104 q 567 148 509 104 q 663 265 624 192 q 722 426 702 338 q 740 603 742 515 q 718 785 739 712 q 652 894 697 858 q 536 931 608 931 q 405 886 463 931 q 309 769 348 842 q 250 609 269 697 q 231 435 230 522 q 283 184 234 263 q 435 104 333 104 m 414 1154 l 418 1261 l 771 1261 l 765 1154 l 414 1154 z "},"Ŏ":{"ha":936,"x_min":74,"x_max":897,"o":"m 414 -11 q 225 48 301 -11 q 111 206 149 107 q 74 424 74 304 q 107 661 74 549 q 205 861 141 774 q 358 999 268 949 q 558 1049 447 1049 q 708 1014 644 1049 q 814 919 772 980 q 876 781 856 859 q 897 614 897 702 q 864 375 897 488 q 768 175 831 263 q 616 39 706 88 q 414 -11 526 -11 m 435 104 q 567 148 509 104 q 663 265 624 192 q 722 426 702 338 q 740 603 742 515 q 718 785 739 712 q 652 894 697 858 q 536 931 608 931 q 405 886 463 931 q 309 769 348 842 q 250 609 269 697 q 231 435 230 522 q 283 184 234 263 q 435 104 333 104 m 583 1136 q 467 1167 514 1136 q 397 1252 419 1198 q 378 1377 374 1307 l 476 1377 q 508 1277 483 1310 q 588 1244 533 1244 q 655 1261 630 1244 q 695 1309 681 1278 q 720 1377 710 1339 l 815 1377 q 785 1258 815 1313 q 702 1169 754 1203 q 583 1136 649 1136 z "},"Ő":{"ha":936,"x_min":74,"x_max":928,"o":"m 414 -11 q 225 48 301 -11 q 111 206 149 107 q 74 424 74 304 q 107 661 74 549 q 205 861 141 774 q 358 999 268 949 q 558 1049 447 1049 q 708 1014 644 1049 q 814 919 772 980 q 876 781 856 859 q 897 614 897 702 q 864 375 897 488 q 768 175 831 263 q 616 39 706 88 q 414 -11 526 -11 m 435 104 q 567 148 509 104 q 663 265 624 192 q 722 426 702 338 q 740 603 742 515 q 718 785 739 712 q 652 894 697 858 q 536 931 608 931 q 405 886 463 931 q 309 769 348 842 q 250 609 269 697 q 231 435 230 522 q 283 184 234 263 q 435 104 333 104 m 718 1117 l 651 1156 l 821 1442 l 928 1358 q 892 1298 917 1335 q 835 1224 867 1262 q 772 1157 803 1186 q 718 1117 741 1127 m 424 1117 l 356 1156 l 519 1442 l 625 1360 q 591 1298 615 1334 q 538 1226 567 1263 q 477 1159 508 1189 q 424 1117 447 1130 z "},"Œ":{"ha":1418,"x_min":74,"x_max":1381,"o":"m 414 -11 q 226 48 301 -11 q 112 205 150 106 q 74 424 74 303 q 108 660 74 548 q 205 860 142 773 q 358 998 269 948 q 558 1049 447 1049 q 734 996 663 1049 q 844 850 806 943 l 857 1038 l 1381 1038 l 1372 918 l 972 922 l 929 586 l 1232 590 l 1221 465 l 915 476 l 868 115 l 1343 125 l 1331 0 l 724 0 l 757 169 q 607 36 694 83 q 414 -11 519 -11 m 435 104 q 567 148 509 104 q 663 265 624 192 q 722 426 702 338 q 740 603 742 515 q 718 785 739 712 q 652 894 697 858 q 536 931 608 931 q 405 886 463 931 q 309 769 348 842 q 250 609 269 697 q 231 435 230 522 q 283 184 234 263 q 435 104 333 104 z "},"Ŕ":{"ha":869,"x_min":69,"x_max":817,"o":"m 69 0 l 203 1038 l 283 1038 q 343 1040 302 1038 q 427 1046 385 1043 q 491 1049 469 1049 q 734 984 651 1049 q 817 796 817 919 q 756 582 817 673 q 580 456 695 492 q 615 410 597 440 q 649 345 633 380 q 675 278 665 310 q 720 167 697 222 q 764 67 743 111 q 800 0 785 22 l 628 0 q 612 33 621 13 q 592 79 603 53 q 570 138 582 106 q 546 207 558 170 q 520 286 534 247 q 489 358 506 325 q 452 411 472 390 q 410 433 433 431 l 276 434 l 221 0 l 69 0 m 440 553 q 564 584 515 553 q 636 670 613 615 q 658 796 660 725 q 611 900 657 865 q 474 935 565 935 q 430 934 456 935 q 378 930 403 932 q 341 925 354 927 l 292 554 q 347 553 310 553 q 440 553 383 553 m 487 1135 l 426 1185 l 639 1463 l 748 1363 q 715 1318 738 1344 q 661 1263 692 1292 q 598 1208 631 1234 q 536 1161 565 1181 q 487 1135 507 1142 z "},"Ŗ":{"ha":869,"x_min":69,"x_max":817,"o":"m 69 0 l 203 1038 l 283 1038 q 343 1040 302 1038 q 427 1046 385 1043 q 491 1049 469 1049 q 734 984 651 1049 q 817 796 817 919 q 756 582 817 673 q 580 456 695 492 q 615 410 597 440 q 649 345 633 380 q 675 278 665 310 q 720 167 697 222 q 764 67 743 111 q 800 0 785 22 l 628 0 q 612 33 621 13 q 592 79 603 53 q 570 138 582 106 q 546 207 558 170 q 520 286 534 247 q 489 358 506 325 q 452 411 472 390 q 410 433 433 431 l 276 434 l 221 0 l 69 0 m 440 553 q 564 584 515 553 q 636 670 613 615 q 658 796 660 725 q 611 900 657 865 q 474 935 565 935 q 430 934 456 935 q 378 930 403 932 q 341 925 354 927 l 292 554 q 347 553 310 553 q 440 553 383 553 m 310 -458 l 253 -422 l 256 -403 q 291 -363 281 -385 q 302 -305 302 -340 q 288 -258 302 -281 q 253 -232 274 -235 l 258 -190 l 358 -119 q 418 -169 397 -131 q 439 -259 439 -208 q 420 -350 439 -307 q 373 -422 402 -393 q 310 -458 344 -451 z "},"Ř":{"ha":869,"x_min":69,"x_max":817,"o":"m 69 0 l 203 1038 l 283 1038 q 343 1040 302 1038 q 427 1046 385 1043 q 491 1049 469 1049 q 734 984 651 1049 q 817 796 817 919 q 756 582 817 673 q 580 456 695 492 q 615 410 597 440 q 649 345 633 380 q 675 278 665 310 q 720 167 697 222 q 764 67 743 111 q 800 0 785 22 l 628 0 q 612 33 621 13 q 592 79 603 53 q 570 138 582 106 q 546 207 558 170 q 520 286 534 247 q 489 358 506 325 q 452 411 472 390 q 410 433 433 431 l 276 434 l 221 0 l 69 0 m 440 553 q 564 584 515 553 q 636 670 613 615 q 658 796 660 725 q 611 900 657 865 q 474 935 565 935 q 430 934 456 935 q 378 930 403 932 q 341 925 354 927 l 292 554 q 347 553 310 553 q 440 553 383 553 m 450 1135 l 288 1350 l 352 1408 l 519 1249 l 726 1408 l 789 1351 l 569 1135 l 450 1135 z "},"Ś":{"ha":707,"x_min":16,"x_max":700,"o":"m 267 -11 q 197 -6 235 -11 q 123 9 160 0 q 58 29 87 18 q 16 52 30 40 l 60 174 q 112 143 75 158 q 193 118 149 128 q 271 108 237 108 q 376 125 330 108 q 448 174 422 141 q 474 258 474 208 q 439 363 474 312 q 329 463 403 415 q 219 552 266 507 q 148 651 173 598 q 122 772 122 705 q 165 923 122 861 q 281 1017 208 985 q 445 1049 354 1049 q 589 1032 529 1049 q 680 990 648 1015 l 632 874 q 552 917 604 903 q 452 932 499 932 q 363 919 403 932 q 299 877 323 906 q 272 800 274 848 q 293 721 272 763 q 351 642 315 680 q 426 576 386 604 q 535 490 490 533 q 606 397 581 447 q 631 285 631 348 q 582 119 631 185 q 452 21 534 53 q 267 -11 369 -11 m 439 1135 l 378 1185 l 591 1463 l 700 1363 q 667 1318 690 1344 q 613 1263 644 1292 q 550 1208 583 1234 q 488 1161 517 1181 q 439 1135 459 1142 z "},"Ŝ":{"ha":707,"x_min":16,"x_max":692,"o":"m 267 -11 q 197 -6 235 -11 q 123 9 160 0 q 58 29 87 18 q 16 52 30 40 l 60 174 q 112 143 75 158 q 193 118 149 128 q 271 108 237 108 q 376 125 330 108 q 448 174 422 141 q 474 258 474 208 q 439 363 474 312 q 329 463 403 415 q 219 552 266 507 q 148 651 173 598 q 122 772 122 705 q 165 923 122 861 q 281 1017 208 985 q 445 1049 354 1049 q 589 1032 529 1049 q 680 990 648 1015 l 632 874 q 552 917 604 903 q 452 932 499 932 q 363 919 403 932 q 299 877 323 906 q 272 800 274 848 q 293 721 272 763 q 351 642 315 680 q 426 576 386 604 q 535 490 490 533 q 606 397 581 447 q 631 285 631 348 q 582 119 631 185 q 452 21 534 53 q 267 -11 369 -11 m 273 1127 l 214 1178 l 440 1423 l 561 1423 l 692 1178 l 622 1132 l 483 1292 l 273 1127 z "},"Ş":{"ha":707,"x_min":16,"x_max":680,"o":"m 267 -11 q 197 -6 235 -11 q 123 9 160 0 q 58 29 87 18 q 16 52 30 40 l 60 174 q 112 143 75 158 q 193 118 149 128 q 271 108 237 108 q 376 125 330 108 q 448 174 422 141 q 474 258 474 208 q 439 363 474 312 q 329 463 403 415 q 219 552 266 507 q 148 651 173 598 q 122 772 122 705 q 165 923 122 861 q 281 1017 208 985 q 445 1049 354 1049 q 589 1032 529 1049 q 680 990 648 1015 l 632 874 q 552 917 604 903 q 452 932 499 932 q 363 919 403 932 q 299 877 323 906 q 272 800 274 848 q 293 721 272 763 q 351 642 315 680 q 426 576 386 604 q 535 490 490 533 q 606 397 581 447 q 631 285 631 348 q 582 119 631 185 q 452 21 534 53 q 267 -11 369 -11 m 178 -316 q 114 -310 149 -316 q 67 -296 78 -303 l 85 -187 q 109 -195 94 -192 q 153 -197 124 -197 q 220 -172 190 -197 q 252 -81 251 -147 q 252 -17 253 -41 q 250 21 252 7 l 296 24 l 336 21 q 359 -38 350 0 q 369 -121 369 -76 q 317 -269 369 -222 q 178 -316 265 -316 z "},"Š":{"ha":707,"x_min":16,"x_max":741,"o":"m 267 -11 q 197 -6 235 -11 q 123 9 160 0 q 58 29 87 18 q 16 52 30 40 l 60 174 q 112 143 75 158 q 193 118 149 128 q 271 108 237 108 q 376 125 330 108 q 448 174 422 141 q 474 258 474 208 q 439 363 474 312 q 329 463 403 415 q 219 552 266 507 q 148 651 173 598 q 122 772 122 705 q 165 923 122 861 q 281 1017 208 985 q 445 1049 354 1049 q 589 1032 529 1049 q 680 990 648 1015 l 632 874 q 552 917 604 903 q 452 932 499 932 q 363 919 403 932 q 299 877 323 906 q 272 800 274 848 q 293 721 272 763 q 351 642 315 680 q 426 576 386 604 q 535 490 490 533 q 606 397 581 447 q 631 285 631 348 q 582 119 631 185 q 452 21 534 53 q 267 -11 369 -11 m 402 1135 l 240 1350 l 304 1408 l 471 1249 l 678 1408 l 741 1351 l 522 1135 l 402 1135 z "},"Ţ":{"ha":765,"x_min":88,"x_max":815,"o":"m 251 0 l 370 926 l 88 918 l 106 1038 l 815 1038 l 800 918 l 522 926 l 403 0 l 251 0 m 206 -316 q 142 -310 177 -316 q 94 -296 106 -303 l 113 -187 q 137 -195 122 -192 q 181 -197 151 -197 q 248 -172 217 -197 q 280 -81 278 -147 q 280 -17 281 -41 q 278 21 280 7 l 324 24 l 364 21 q 387 -38 378 0 q 397 -121 397 -76 q 344 -269 397 -222 q 206 -316 292 -316 z "},"Ť":{"ha":765,"x_min":88,"x_max":815,"o":"m 251 0 l 370 926 l 88 918 l 106 1038 l 815 1038 l 800 918 l 522 926 l 403 0 l 251 0 m 425 1136 l 263 1351 l 327 1410 l 494 1250 l 701 1410 l 764 1353 l 544 1136 l 425 1136 z "},"Ŧ":{"ha":766,"x_min":90,"x_max":817,"o":"m 253 0 l 314 481 l 136 481 l 149 581 l 328 581 l 372 926 l 90 918 l 108 1038 l 817 1038 l 801 918 l 524 926 l 479 581 l 661 581 l 649 481 l 467 481 l 405 0 l 253 0 z "},"Ũ":{"ha":933,"x_min":95,"x_max":910,"o":"m 410 -11 q 175 70 256 -11 q 95 297 95 151 q 98 336 95 313 q 105 403 100 360 l 185 1038 l 338 1038 l 259 428 q 253 360 255 391 q 251 303 251 328 q 297 159 251 206 q 433 111 344 111 q 558 147 508 111 q 639 255 608 183 q 684 435 669 326 l 761 1038 l 910 1038 l 831 422 q 802 281 820 344 q 758 170 784 217 q 619 32 705 75 q 410 -11 533 -11 m 667 1149 q 596 1165 628 1149 q 540 1204 563 1181 q 505 1235 521 1225 q 468 1246 489 1246 q 424 1231 443 1246 q 383 1183 404 1216 l 328 1247 q 366 1303 341 1276 q 422 1347 391 1330 q 485 1364 453 1364 q 550 1348 517 1364 q 607 1304 582 1331 q 641 1276 626 1285 q 671 1268 656 1268 q 707 1277 691 1268 q 737 1303 724 1287 q 763 1343 751 1320 l 817 1276 q 783 1213 806 1242 q 731 1166 761 1184 q 667 1149 701 1149 z "},"Ū":{"ha":933,"x_min":95,"x_max":910,"o":"m 410 -11 q 175 70 256 -11 q 95 297 95 151 q 98 336 95 313 q 105 403 100 360 l 185 1038 l 338 1038 l 259 428 q 253 360 255 391 q 251 303 251 328 q 297 159 251 206 q 433 111 344 111 q 558 147 508 111 q 639 255 608 183 q 684 435 669 326 l 761 1038 l 910 1038 l 831 422 q 802 281 820 344 q 758 170 784 217 q 619 32 705 75 q 410 -11 533 -11 m 394 1154 l 399 1261 l 751 1261 l 746 1154 l 394 1154 z "},"Ŭ":{"ha":933,"x_min":95,"x_max":910,"o":"m 410 -11 q 175 70 256 -11 q 95 297 95 151 q 98 336 95 313 q 105 403 100 360 l 185 1038 l 338 1038 l 259 428 q 253 360 255 391 q 251 303 251 328 q 297 159 251 206 q 433 111 344 111 q 558 147 508 111 q 639 255 608 183 q 684 435 669 326 l 761 1038 l 910 1038 l 831 422 q 802 281 820 344 q 758 170 784 217 q 619 32 705 75 q 410 -11 533 -11 m 563 1136 q 447 1167 494 1136 q 377 1252 400 1198 q 359 1377 355 1307 l 457 1377 q 489 1277 464 1310 q 569 1244 514 1244 q 636 1261 610 1244 q 676 1309 661 1278 q 701 1377 690 1339 l 796 1377 q 765 1258 796 1313 q 682 1169 735 1203 q 563 1136 630 1136 z "},"Ů":{"ha":933,"x_min":95,"x_max":910,"o":"m 410 -11 q 175 70 256 -11 q 95 297 95 151 q 98 336 95 313 q 105 403 100 360 l 185 1038 l 338 1038 l 259 428 q 253 360 255 391 q 251 303 251 328 q 297 159 251 206 q 433 111 344 111 q 558 147 508 111 q 639 255 608 183 q 684 435 669 326 l 761 1038 l 910 1038 l 831 422 q 802 281 820 344 q 758 170 784 217 q 619 32 705 75 q 410 -11 533 -11 m 563 1135 q 416 1181 468 1135 q 363 1309 363 1227 q 399 1414 363 1372 q 491 1478 435 1457 q 605 1499 547 1499 q 744 1452 692 1499 q 795 1323 795 1406 q 764 1220 795 1260 q 678 1157 731 1178 q 563 1135 624 1135 m 567 1212 q 660 1238 627 1212 q 692 1328 692 1264 q 665 1395 692 1369 q 593 1422 638 1422 q 502 1395 540 1422 q 463 1308 463 1369 q 494 1240 463 1268 q 567 1212 526 1212 z "},"Ű":{"ha":933,"x_min":95,"x_max":910,"o":"m 410 -11 q 175 70 256 -11 q 95 297 95 151 q 98 336 95 313 q 105 403 100 360 l 185 1038 l 338 1038 l 259 428 q 253 360 255 391 q 251 303 251 328 q 297 159 251 206 q 433 111 344 111 q 558 147 508 111 q 639 255 608 183 q 684 435 669 326 l 761 1038 l 910 1038 l 831 422 q 802 281 820 344 q 758 170 784 217 q 619 32 705 75 q 410 -11 533 -11 m 699 1117 l 632 1156 l 801 1442 l 908 1358 q 873 1298 898 1335 q 816 1224 848 1262 q 753 1157 784 1186 q 699 1117 722 1127 m 404 1117 l 336 1156 l 500 1442 l 606 1360 q 572 1298 595 1334 q 518 1226 548 1263 q 458 1159 488 1189 q 404 1117 428 1130 z "},"Ų":{"ha":933,"x_min":95,"x_max":910,"o":"m 410 -11 q 175 70 256 -11 q 95 297 95 151 q 98 336 95 313 q 105 403 100 360 l 185 1038 l 338 1038 l 259 428 q 253 360 255 391 q 251 303 251 328 q 297 159 251 206 q 433 111 344 111 q 558 147 508 111 q 639 255 608 183 q 684 435 669 326 l 761 1038 l 910 1038 l 831 422 q 802 281 820 344 q 758 170 784 217 q 619 32 705 75 q 410 -11 533 -11 m 367 -304 q 273 -273 308 -304 q 237 -197 237 -241 q 249 -139 237 -166 q 284 -87 261 -112 q 340 -41 307 -63 q 415 1 374 -19 l 478 31 l 524 0 q 415 -84 451 -49 q 378 -153 378 -120 q 391 -189 378 -178 q 421 -199 404 -199 q 465 -191 444 -199 q 513 -165 485 -183 l 546 -234 q 498 -269 524 -253 q 439 -294 471 -285 q 367 -304 406 -304 z "},"Ŵ":{"ha":1206,"x_min":83,"x_max":1293,"o":"m 235 -6 l 83 1038 l 234 1038 l 321 308 l 340 161 l 383 308 l 606 877 l 589 1038 l 735 1038 l 806 308 l 817 161 l 866 308 l 1139 1038 l 1293 1038 l 870 -6 l 710 -6 l 649 543 l 640 660 l 601 543 l 392 -6 l 235 -6 m 517 1128 l 458 1180 l 684 1424 l 805 1424 l 936 1180 l 866 1133 l 726 1293 l 517 1128 z "},"Ŷ":{"ha":744,"x_min":57,"x_max":852,"o":"m 251 0 l 303 400 l 57 1038 l 217 1038 l 374 587 l 395 529 l 422 587 l 688 1038 l 852 1038 l 449 400 l 397 0 l 251 0 m 286 1128 l 227 1180 l 453 1424 l 574 1424 l 706 1180 l 635 1133 l 496 1293 l 286 1128 z "},"Ÿ":{"ha":744,"x_min":57,"x_max":852,"o":"m 251 0 l 303 400 l 57 1038 l 217 1038 l 374 587 l 395 529 l 422 587 l 688 1038 l 852 1038 l 449 400 l 397 0 l 251 0 m 322 1136 q 265 1161 290 1136 q 240 1219 240 1185 q 271 1296 240 1267 q 343 1325 301 1325 q 405 1301 381 1325 q 430 1242 430 1276 q 401 1167 430 1199 q 322 1136 373 1136 m 622 1136 q 565 1161 590 1136 q 540 1219 540 1185 q 571 1296 540 1267 q 643 1325 602 1325 q 706 1301 681 1325 q 731 1242 731 1276 q 702 1167 731 1199 q 622 1136 674 1136 z "},"Ź":{"ha":785,"x_min":1,"x_max":811,"o":"m 19 0 l 1 60 l 529 822 l 615 920 l 158 911 l 176 1038 l 793 1038 l 811 979 l 286 211 l 206 121 l 701 129 l 681 0 l 19 0 m 488 1136 l 428 1187 l 640 1464 l 749 1364 q 716 1319 740 1346 q 663 1264 693 1293 q 599 1209 632 1235 q 538 1163 567 1183 q 488 1136 508 1143 z "},"Ż":{"ha":785,"x_min":1,"x_max":811,"o":"m 19 0 l 1 60 l 529 822 l 615 920 l 158 911 l 176 1038 l 793 1038 l 811 979 l 286 211 l 206 121 l 701 129 l 681 0 l 19 0 m 506 1136 q 448 1160 474 1136 q 422 1219 422 1185 q 454 1293 422 1261 q 528 1325 486 1325 q 592 1302 567 1325 q 617 1244 617 1279 q 584 1169 617 1201 q 506 1136 551 1136 z "},"Ž":{"ha":785,"x_min":1,"x_max":811,"o":"m 19 0 l 1 60 l 529 822 l 615 920 l 158 911 l 176 1038 l 793 1038 l 811 979 l 286 211 l 206 121 l 701 129 l 681 0 l 19 0 m 451 1136 l 290 1351 l 353 1410 l 520 1250 l 727 1410 l 790 1353 l 571 1136 l 451 1136 z "},"Ə":{"ha":924,"x_min":69,"x_max":884,"o":"m 405 -11 q 260 23 323 -11 q 155 117 198 57 q 91 255 113 176 q 69 424 69 334 q 76 491 69 458 q 85 538 83 523 l 749 538 l 731 421 l 223 421 q 239 281 224 340 q 280 182 253 221 q 344 123 306 142 q 430 104 382 104 q 560 148 504 104 q 654 265 617 192 q 710 426 692 338 q 727 603 728 515 q 702 782 726 712 q 624 886 678 852 q 477 919 570 919 q 319 899 392 919 q 210 857 246 879 l 203 1000 q 313 1029 265 1018 q 404 1044 360 1040 q 495 1049 447 1049 q 676 1014 601 1049 q 796 919 750 980 q 863 781 842 859 q 884 614 884 702 q 853 375 884 488 q 760 175 822 263 q 610 39 699 88 q 405 -11 521 -11 z "},"Ơ":{"ha":937,"x_min":74,"x_max":984,"o":"m 651 917 l 665 1018 q 766 1032 728 1018 q 825 1070 805 1046 q 853 1125 846 1094 q 861 1190 861 1156 q 863 1203 861 1197 q 863 1213 864 1209 l 981 1213 q 983 1198 983 1205 q 984 1183 984 1190 q 942 1038 984 1097 q 826 948 901 978 q 651 917 751 917 m 414 -11 q 225 48 301 -11 q 111 206 149 107 q 74 424 74 304 q 107 661 74 549 q 205 861 141 774 q 358 999 268 949 q 558 1049 447 1049 q 708 1014 644 1049 q 814 919 772 980 q 876 781 856 859 q 897 614 897 702 q 864 375 897 488 q 768 175 831 263 q 616 39 706 88 q 414 -11 526 -11 m 435 104 q 567 148 509 104 q 663 265 624 192 q 722 426 702 338 q 740 603 742 515 q 718 785 739 712 q 652 894 697 858 q 536 931 608 931 q 405 886 463 931 q 309 769 348 842 q 250 609 269 697 q 231 435 230 522 q 283 184 234 263 q 435 104 333 104 z "},"Ư":{"ha":933,"x_min":95,"x_max":1133,"o":"m 410 -11 q 175 70 256 -11 q 95 297 95 151 q 98 336 95 313 q 105 403 100 360 l 185 1038 l 338 1038 l 259 428 q 253 360 255 391 q 251 303 251 328 q 297 159 251 206 q 433 111 344 111 q 558 147 508 111 q 639 255 608 183 q 684 435 669 326 l 761 1038 l 910 1038 l 831 422 q 802 281 820 344 q 758 170 784 217 q 619 32 705 75 q 410 -11 533 -11 m 773 935 l 787 1037 q 892 1048 849 1037 q 961 1080 935 1059 q 999 1128 988 1100 q 1011 1190 1011 1156 q 1013 1203 1011 1197 q 1013 1213 1014 1209 l 1131 1213 q 1133 1198 1132 1205 q 1133 1183 1133 1190 q 1085 1042 1133 1097 q 955 961 1036 988 q 773 935 873 935 z "},"Ʒ":{"ha":713,"x_min":30,"x_max":737,"o":"m 166 -10 q 99 -7 132 -10 q 30 -1 67 -4 l 43 118 q 84 114 63 116 q 128 111 106 113 q 168 110 149 110 q 347 139 265 110 q 478 219 428 167 q 528 342 528 272 q 493 441 528 404 q 405 492 458 477 q 301 504 353 506 l 225 465 l 239 588 l 451 794 l 590 918 l 120 918 l 135 1038 l 737 1039 l 714 881 l 403 585 q 568 543 510 580 q 649 453 626 506 q 671 347 671 401 q 636 203 671 269 q 535 90 601 138 q 375 16 469 42 q 166 -10 282 -10 z "},"Ǆ":{"ha":1724,"x_min":71,"x_max":1750,"o":"m 362 -11 q 289 -7 320 -10 q 224 -2 257 -5 q 144 0 191 0 l 71 0 l 204 1038 l 278 1038 q 311 1039 290 1038 q 358 1041 332 1040 q 411 1045 384 1043 q 462 1048 438 1047 q 501 1049 486 1049 q 799 933 705 1049 q 894 612 894 818 q 856 368 894 482 q 749 168 819 254 q 581 34 679 82 q 362 -11 483 -13 m 388 103 q 582 179 503 106 q 699 366 660 251 q 737 607 737 480 q 709 804 737 731 q 621 906 681 875 q 460 938 561 938 q 398 933 434 938 q 341 924 361 929 l 238 122 q 308 107 267 112 q 388 103 349 102 m 958 0 l 940 60 l 1468 822 l 1554 920 l 1097 911 l 1115 1038 l 1732 1038 l 1750 979 l 1225 211 l 1144 121 l 1640 129 l 1619 0 l 958 0 m 1390 1136 l 1228 1351 l 1292 1410 l 1459 1250 l 1666 1410 l 1729 1353 l 1510 1136 l 1390 1136 z "},"Ǉ":{"ha":1095,"x_min":71,"x_max":1054,"o":"m 71 0 l 204 1038 l 356 1038 l 238 125 l 617 128 l 599 0 l 71 0 m 596 -219 l 572 -156 q 633 -124 600 -147 q 695 -69 665 -100 q 746 -4 725 -37 q 773 58 767 29 q 804 220 791 140 q 827 385 817 300 q 849 568 838 471 q 872 781 859 665 q 903 1038 885 897 l 1054 1038 l 974 381 q 943 157 957 239 q 921 51 928 75 q 850 -90 895 -35 q 742 -177 806 -146 q 596 -219 678 -208 z "},"Ǌ":{"ha":1369,"x_min":71,"x_max":1328,"o":"m 71 0 l 204 1038 l 356 1038 l 644 347 l 689 201 l 701 371 l 781 1038 l 926 1038 l 792 0 l 650 0 l 353 703 l 313 865 l 297 665 l 213 0 l 71 0 m 869 -219 l 845 -156 q 906 -124 874 -147 q 969 -69 939 -100 q 1020 -4 999 -37 q 1047 58 1041 29 q 1077 220 1065 140 q 1101 385 1090 300 q 1122 568 1112 471 q 1146 781 1133 665 q 1177 1038 1159 897 l 1328 1038 l 1248 381 q 1216 157 1231 239 q 1194 51 1202 75 q 1124 -90 1169 -35 q 1016 -177 1079 -146 q 869 -219 952 -208 z "},"Ǎ":{"ha":867,"x_min":-57,"x_max":815,"o":"m -57 0 l 449 1038 l 623 1038 l 810 0 l 658 0 l 617 256 l 222 256 l 106 0 l -57 0 m 273 369 l 599 369 l 526 835 l 518 913 l 484 835 l 273 369 m 476 1136 l 315 1351 l 378 1410 l 545 1250 l 752 1410 l 815 1353 l 596 1136 l 476 1136 z "},"Ǐ":{"ha":407,"x_min":83,"x_max":590,"o":"m 83 0 l 217 1038 l 369 1038 l 235 0 l 83 0 m 251 1135 l 89 1350 l 153 1408 l 319 1249 l 526 1408 l 590 1351 l 370 1135 l 251 1135 z "},"Ǒ":{"ha":936,"x_min":74,"x_max":897,"o":"m 414 -11 q 225 48 301 -11 q 111 206 149 107 q 74 424 74 304 q 107 661 74 549 q 205 861 141 774 q 358 999 268 949 q 558 1049 447 1049 q 708 1014 644 1049 q 814 919 772 980 q 876 781 856 859 q 897 614 897 702 q 864 375 897 488 q 768 175 831 263 q 616 39 706 88 q 414 -11 526 -11 m 435 104 q 567 148 509 104 q 663 265 624 192 q 722 426 702 338 q 740 603 742 515 q 718 785 739 712 q 652 894 697 858 q 536 931 608 931 q 405 886 463 931 q 309 769 348 842 q 250 609 269 697 q 231 435 230 522 q 283 184 234 263 q 435 104 333 104 m 522 1136 l 360 1351 l 424 1410 l 590 1250 l 797 1410 l 860 1353 l 641 1136 l 522 1136 z "},"Ǔ":{"ha":933,"x_min":95,"x_max":910,"o":"m 410 -11 q 175 70 256 -11 q 95 297 95 151 q 98 336 95 313 q 105 403 100 360 l 185 1038 l 338 1038 l 259 428 q 253 360 255 391 q 251 303 251 328 q 297 159 251 206 q 433 111 344 111 q 558 147 508 111 q 639 255 608 183 q 684 435 669 326 l 761 1038 l 910 1038 l 831 422 q 802 281 820 344 q 758 170 784 217 q 619 32 705 75 q 410 -11 533 -11 m 502 1136 l 340 1351 l 404 1410 l 571 1250 l 778 1410 l 841 1353 l 622 1136 l 502 1136 z "},"Ǖ":{"ha":933,"x_min":95,"x_max":910,"o":"m 410 -11 q 175 70 256 -11 q 95 297 95 151 q 98 336 95 313 q 105 403 100 360 l 185 1038 l 338 1038 l 259 428 q 253 360 255 391 q 251 303 251 328 q 297 159 251 206 q 433 111 344 111 q 558 147 508 111 q 639 255 608 183 q 684 435 669 326 l 761 1038 l 910 1038 l 831 422 q 802 281 820 344 q 758 170 784 217 q 619 32 705 75 q 410 -11 533 -11 m 409 1136 q 352 1161 377 1136 q 327 1219 327 1185 q 358 1296 327 1267 q 430 1325 388 1325 q 492 1301 467 1325 q 517 1242 517 1276 q 488 1167 517 1199 q 409 1136 460 1136 m 709 1136 q 652 1161 677 1136 q 627 1219 627 1185 q 658 1296 627 1267 q 730 1325 689 1325 q 793 1301 768 1325 q 817 1242 817 1276 q 789 1167 817 1199 q 709 1136 760 1136 m 431 1438 l 435 1544 l 788 1544 l 783 1438 l 431 1438 z "},"Ǘ":{"ha":933,"x_min":95,"x_max":910,"o":"m 410 -11 q 175 70 256 -11 q 95 297 95 151 q 98 336 95 313 q 105 403 100 360 l 185 1038 l 338 1038 l 259 428 q 253 360 255 391 q 251 303 251 328 q 297 159 251 206 q 433 111 344 111 q 558 147 508 111 q 639 255 608 183 q 684 435 669 326 l 761 1038 l 910 1038 l 831 422 q 802 281 820 344 q 758 170 784 217 q 619 32 705 75 q 410 -11 533 -11 m 409 1136 q 352 1161 377 1136 q 327 1219 327 1185 q 358 1296 327 1267 q 430 1325 388 1325 q 492 1301 467 1325 q 517 1242 517 1276 q 488 1167 517 1199 q 409 1136 460 1136 m 709 1136 q 652 1161 677 1136 q 627 1219 627 1185 q 658 1296 627 1267 q 730 1325 689 1325 q 793 1301 768 1325 q 817 1242 817 1276 q 789 1167 817 1199 q 709 1136 760 1136 m 576 1419 l 515 1470 l 728 1747 l 837 1647 q 804 1603 827 1629 q 750 1548 781 1576 q 687 1492 719 1519 q 625 1446 654 1466 q 576 1419 596 1426 z "},"Ǚ":{"ha":933,"x_min":95,"x_max":910,"o":"m 410 -11 q 175 70 256 -11 q 95 297 95 151 q 98 336 95 313 q 105 403 100 360 l 185 1038 l 338 1038 l 259 428 q 253 360 255 391 q 251 303 251 328 q 297 159 251 206 q 433 111 344 111 q 558 147 508 111 q 639 255 608 183 q 684 435 669 326 l 761 1038 l 910 1038 l 831 422 q 802 281 820 344 q 758 170 784 217 q 619 32 705 75 q 410 -11 533 -11 m 409 1136 q 352 1161 377 1136 q 327 1219 327 1185 q 358 1296 327 1267 q 430 1325 388 1325 q 492 1301 467 1325 q 517 1242 517 1276 q 488 1167 517 1199 q 409 1136 460 1136 m 709 1136 q 652 1161 677 1136 q 627 1219 627 1185 q 658 1296 627 1267 q 730 1325 689 1325 q 793 1301 768 1325 q 817 1242 817 1276 q 789 1167 817 1199 q 709 1136 760 1136 m 539 1419 l 377 1635 l 441 1693 l 608 1533 l 815 1693 l 878 1636 l 658 1419 l 539 1419 z "},"Ǜ":{"ha":933,"x_min":95,"x_max":910,"o":"m 410 -11 q 175 70 256 -11 q 95 297 95 151 q 98 336 95 313 q 105 403 100 360 l 185 1038 l 338 1038 l 259 428 q 253 360 255 391 q 251 303 251 328 q 297 159 251 206 q 433 111 344 111 q 558 147 508 111 q 639 255 608 183 q 684 435 669 326 l 761 1038 l 910 1038 l 831 422 q 802 281 820 344 q 758 170 784 217 q 619 32 705 75 q 410 -11 533 -11 m 409 1136 q 352 1161 377 1136 q 327 1219 327 1185 q 358 1296 327 1267 q 430 1325 388 1325 q 492 1301 467 1325 q 517 1242 517 1276 q 488 1167 517 1199 q 409 1136 460 1136 m 709 1136 q 652 1161 677 1136 q 627 1219 627 1185 q 658 1296 627 1267 q 730 1325 689 1325 q 793 1301 768 1325 q 817 1242 817 1276 q 789 1167 817 1199 q 709 1136 760 1136 m 660 1419 q 599 1457 635 1429 q 523 1521 562 1485 q 454 1591 485 1557 q 410 1647 423 1625 l 520 1747 l 721 1470 l 660 1419 z "},"Ǧ":{"ha":918,"x_min":68,"x_max":855,"o":"m 420 -11 q 224 51 302 -11 q 109 212 145 113 q 70 423 72 310 q 134 749 68 606 q 318 970 201 891 q 578 1049 435 1049 q 650 1046 617 1049 q 714 1038 683 1044 q 778 1024 744 1033 q 855 1001 813 1015 l 812 864 q 755 893 792 878 q 671 917 718 908 q 574 926 624 926 q 376 853 455 926 q 260 669 297 779 q 224 446 224 558 q 247 276 224 353 q 319 153 269 199 q 446 107 368 107 q 548 118 492 107 q 653 152 604 130 l 683 386 l 524 386 l 540 508 l 845 508 l 787 62 q 745 54 767 60 q 685 38 724 49 q 552 3 617 17 q 420 -11 488 -11 m 501 1136 l 340 1351 l 403 1410 l 570 1250 l 777 1410 l 840 1353 l 621 1136 l 501 1136 z "},"Ǫ":{"ha":936,"x_min":74,"x_max":897,"o":"m 414 -11 q 225 48 301 -11 q 111 206 149 107 q 74 424 74 304 q 107 661 74 549 q 205 861 141 774 q 358 999 268 949 q 558 1049 447 1049 q 708 1014 644 1049 q 814 919 772 980 q 876 781 856 859 q 897 614 897 702 q 864 375 897 488 q 768 175 831 263 q 616 39 706 88 q 414 -11 526 -11 m 435 104 q 567 148 509 104 q 663 265 624 192 q 722 426 702 338 q 740 603 742 515 q 718 785 739 712 q 652 894 697 858 q 536 931 608 931 q 405 886 463 931 q 309 769 348 842 q 250 609 269 697 q 231 435 230 522 q 283 184 234 263 q 435 104 333 104 m 347 -304 q 252 -273 288 -304 q 217 -197 217 -241 q 229 -139 217 -166 q 264 -87 241 -112 q 320 -41 287 -63 q 395 1 353 -19 l 458 31 l 503 0 q 395 -84 431 -49 q 358 -153 358 -120 q 371 -189 358 -178 q 401 -199 384 -199 q 444 -191 424 -199 q 492 -165 465 -183 l 526 -234 q 477 -269 504 -253 q 418 -294 451 -285 q 347 -304 386 -304 z "},"Ǯ":{"ha":713,"x_min":30,"x_max":756,"o":"m 166 -10 q 99 -7 132 -10 q 30 -1 67 -4 l 43 118 q 84 114 63 116 q 128 111 106 113 q 168 110 149 110 q 347 139 265 110 q 478 219 428 167 q 528 342 528 272 q 493 441 528 404 q 405 492 458 477 q 301 504 353 506 l 225 465 l 239 588 l 451 794 l 590 918 l 120 918 l 135 1038 l 737 1039 l 714 881 l 403 585 q 568 543 510 580 q 649 453 626 506 q 671 347 671 401 q 636 203 671 269 q 535 90 601 138 q 375 16 469 42 q 166 -10 282 -10 m 417 1135 l 256 1350 l 319 1408 l 486 1249 l 693 1408 l 756 1351 l 537 1135 l 417 1135 z "},"Ǳ":{"ha":1724,"x_min":71,"x_max":1750,"o":"m 362 -11 q 289 -7 320 -10 q 224 -2 257 -5 q 144 0 191 0 l 71 0 l 204 1038 l 278 1038 q 311 1039 290 1038 q 358 1041 332 1040 q 411 1045 384 1043 q 462 1048 438 1047 q 501 1049 486 1049 q 799 933 705 1049 q 894 612 894 818 q 856 368 894 482 q 749 168 819 254 q 581 34 679 82 q 362 -11 483 -13 m 388 103 q 582 179 503 106 q 699 366 660 251 q 737 607 737 480 q 709 804 737 731 q 621 906 681 875 q 460 938 561 938 q 398 933 434 938 q 341 924 361 929 l 238 122 q 308 107 267 112 q 388 103 349 102 m 958 0 l 940 60 l 1468 822 l 1554 920 l 1097 911 l 1115 1038 l 1732 1038 l 1750 979 l 1225 211 l 1144 121 l 1640 129 l 1619 0 l 958 0 z "},"Ǻ":{"ha":867,"x_min":-57,"x_max":819,"o":"m -57 0 l 449 1038 l 623 1038 l 810 0 l 658 0 l 617 256 l 222 256 l 106 0 l -57 0 m 273 369 l 599 369 l 526 835 l 518 913 l 484 835 l 273 369 m 537 1135 q 390 1181 442 1135 q 338 1309 338 1227 q 373 1414 338 1372 q 465 1478 409 1457 q 579 1499 521 1499 q 718 1452 667 1499 q 769 1323 769 1406 q 738 1220 769 1260 q 652 1157 706 1178 q 537 1135 599 1135 m 542 1212 q 634 1238 601 1212 q 667 1328 667 1264 q 639 1395 667 1369 q 567 1422 612 1422 q 476 1395 515 1422 q 438 1308 438 1369 q 469 1240 438 1268 q 542 1212 500 1212 m 558 1454 l 497 1505 l 710 1782 l 819 1682 q 786 1638 809 1664 q 732 1582 763 1611 q 669 1527 701 1553 q 607 1481 636 1501 q 558 1454 578 1461 z "},"Ǽ":{"ha":1220,"x_min":-87,"x_max":1182,"o":"m -87 0 l 435 947 l 243 962 l 254 1038 l 1182 1038 l 1174 918 l 782 923 l 738 586 l 1033 590 l 1022 466 l 725 476 l 677 115 l 1144 125 l 1133 0 l 512 0 l 546 269 l 219 269 l 78 0 l -87 0 m 281 383 l 561 383 l 631 927 l 570 932 l 281 383 m 690 1136 l 630 1187 l 842 1464 l 951 1364 q 918 1319 942 1346 q 865 1264 895 1293 q 801 1209 834 1235 q 740 1163 769 1183 q 690 1136 710 1143 z "},"Ǿ":{"ha":937,"x_min":48,"x_max":892,"o":"m 108 -89 l 48 -57 l 159 110 q 92 250 115 169 q 69 425 69 331 q 131 742 69 599 q 304 966 194 884 q 552 1049 415 1049 q 738 992 660 1049 l 829 1132 l 889 1100 l 789 945 q 866 801 840 886 q 892 614 892 715 q 831 298 892 442 q 660 73 770 156 q 408 -10 551 -10 q 298 7 349 -10 q 206 60 248 24 l 108 -89 m 430 105 q 589 173 519 105 q 696 352 658 240 q 735 593 735 465 q 699 821 735 739 l 289 169 q 430 105 337 105 m 253 240 l 658 883 q 531 930 610 930 q 373 861 444 930 q 265 681 303 793 q 226 445 226 569 q 253 240 226 320 m 547 1135 l 487 1185 l 699 1463 l 808 1363 q 775 1318 799 1344 q 722 1263 752 1292 q 658 1208 691 1234 q 597 1161 626 1181 q 547 1135 567 1142 z "},"Ȁ":{"ha":867,"x_min":-57,"x_max":813,"o":"m -57 0 l 449 1038 l 623 1038 l 810 0 l 658 0 l 617 256 l 222 256 l 106 0 l -57 0 m 273 369 l 599 369 l 526 835 l 518 913 l 484 835 l 273 369 m 441 1140 q 387 1180 418 1150 q 324 1248 356 1210 q 267 1322 292 1285 q 232 1382 242 1358 l 338 1465 l 508 1178 l 441 1140 m 744 1140 q 692 1182 722 1153 q 632 1249 662 1212 q 578 1321 602 1285 q 544 1383 555 1357 l 649 1465 l 813 1178 l 744 1140 z "},"Ȃ":{"ha":867,"x_min":-57,"x_max":810,"o":"m -57 0 l 449 1038 l 623 1038 l 810 0 l 658 0 l 617 256 l 222 256 l 106 0 l -57 0 m 273 369 l 599 369 l 526 835 l 518 913 l 484 835 l 273 369 m 556 1382 q 673 1351 626 1382 q 742 1266 719 1320 q 760 1142 765 1212 l 662 1142 q 630 1242 656 1210 q 551 1275 605 1275 q 484 1258 509 1275 q 444 1210 459 1240 q 419 1142 429 1180 l 323 1142 q 353 1261 323 1206 q 437 1349 384 1316 q 556 1382 490 1382 z "},"Ȅ":{"ha":779,"x_min":71,"x_max":781,"o":"m 71 0 l 204 1038 l 740 1038 l 733 918 l 340 923 l 298 586 l 593 590 l 582 466 l 283 476 l 236 115 l 704 125 l 692 0 l 71 0 m 409 1138 q 355 1178 386 1149 q 292 1246 324 1208 q 235 1320 260 1284 q 200 1381 210 1357 l 306 1464 l 476 1177 l 409 1138 m 713 1138 q 660 1181 690 1151 q 600 1247 630 1210 q 547 1320 570 1284 q 513 1381 523 1356 l 617 1464 l 781 1177 l 713 1138 z "},"Ȇ":{"ha":779,"x_min":71,"x_max":740,"o":"m 71 0 l 204 1038 l 740 1038 l 733 918 l 340 923 l 298 586 l 593 590 l 582 466 l 283 476 l 236 115 l 704 125 l 692 0 l 71 0 m 524 1381 q 641 1350 594 1381 q 710 1265 688 1319 q 728 1140 733 1210 l 630 1140 q 598 1241 624 1208 q 519 1274 573 1274 q 452 1256 477 1274 q 412 1209 427 1239 q 387 1140 397 1178 l 291 1140 q 322 1260 291 1205 q 405 1348 352 1315 q 524 1381 458 1381 z "},"Ȉ":{"ha":407,"x_min":6,"x_max":588,"o":"m 83 0 l 217 1038 l 369 1038 l 235 0 l 83 0 m 215 1138 q 161 1178 192 1149 q 98 1246 130 1208 q 41 1320 66 1284 q 6 1381 16 1357 l 113 1464 l 283 1177 l 215 1138 m 519 1138 q 466 1181 496 1151 q 406 1247 436 1210 q 353 1320 376 1284 q 319 1381 329 1356 l 424 1464 l 588 1177 l 519 1138 z "},"Ȋ":{"ha":407,"x_min":83,"x_max":539,"o":"m 83 0 l 217 1038 l 369 1038 l 235 0 l 83 0 m 331 1381 q 447 1350 400 1381 q 516 1265 494 1319 q 535 1140 539 1210 l 436 1140 q 405 1241 430 1208 q 325 1274 379 1274 q 258 1256 283 1274 q 218 1209 233 1239 q 193 1140 203 1178 l 97 1140 q 128 1260 97 1205 q 211 1348 158 1315 q 331 1381 264 1381 z "},"Ȍ":{"ha":936,"x_min":74,"x_max":897,"o":"m 414 -11 q 225 48 301 -11 q 111 206 149 107 q 74 424 74 304 q 107 661 74 549 q 205 861 141 774 q 358 999 268 949 q 558 1049 447 1049 q 708 1014 644 1049 q 814 919 772 980 q 876 781 856 859 q 897 614 897 702 q 864 375 897 488 q 768 175 831 263 q 616 39 706 88 q 414 -11 526 -11 m 435 104 q 567 148 509 104 q 663 265 624 192 q 722 426 702 338 q 740 603 742 515 q 718 785 739 712 q 652 894 697 858 q 536 931 608 931 q 405 886 463 931 q 309 769 348 842 q 250 609 269 697 q 231 435 230 522 q 283 184 234 263 q 435 104 333 104 m 486 1140 q 432 1180 463 1150 q 369 1248 401 1210 q 312 1322 337 1285 q 277 1382 287 1358 l 383 1465 l 553 1178 l 486 1140 m 790 1140 q 737 1182 767 1153 q 677 1249 707 1212 q 624 1321 647 1285 q 590 1383 600 1357 l 694 1465 l 858 1178 l 790 1140 z "},"Ȏ":{"ha":936,"x_min":74,"x_max":897,"o":"m 414 -11 q 225 48 301 -11 q 111 206 149 107 q 74 424 74 304 q 107 661 74 549 q 205 861 141 774 q 358 999 268 949 q 558 1049 447 1049 q 708 1014 644 1049 q 814 919 772 980 q 876 781 856 859 q 897 614 897 702 q 864 375 897 488 q 768 175 831 263 q 616 39 706 88 q 414 -11 526 -11 m 435 104 q 567 148 509 104 q 663 265 624 192 q 722 426 702 338 q 740 603 742 515 q 718 785 739 712 q 652 894 697 858 q 536 931 608 931 q 405 886 463 931 q 309 769 348 842 q 250 609 269 697 q 231 435 230 522 q 283 184 234 263 q 435 104 333 104 m 601 1382 q 718 1351 671 1382 q 787 1266 765 1320 q 806 1142 810 1212 l 707 1142 q 675 1242 701 1210 q 596 1275 650 1275 q 529 1258 554 1275 q 489 1210 504 1240 q 464 1142 474 1180 l 368 1142 q 399 1261 368 1206 q 482 1349 429 1316 q 601 1382 535 1382 z "},"Ȑ":{"ha":869,"x_min":69,"x_max":817,"o":"m 69 0 l 203 1038 l 283 1038 q 343 1040 302 1038 q 427 1046 385 1043 q 491 1049 469 1049 q 734 984 651 1049 q 817 796 817 919 q 756 582 817 673 q 580 456 695 492 q 615 410 597 440 q 649 345 633 380 q 675 278 665 310 q 720 167 697 222 q 764 67 743 111 q 800 0 785 22 l 628 0 q 612 33 621 13 q 592 79 603 53 q 570 138 582 106 q 546 207 558 170 q 520 286 534 247 q 489 358 506 325 q 452 411 472 390 q 410 433 433 431 l 276 434 l 221 0 l 69 0 m 440 553 q 564 584 515 553 q 636 670 613 615 q 658 796 660 725 q 611 900 657 865 q 474 935 565 935 q 430 934 456 935 q 378 930 403 932 q 341 925 354 927 l 292 554 q 347 553 310 553 q 440 553 383 553 m 415 1138 q 360 1178 392 1149 q 297 1246 329 1208 q 240 1320 265 1284 q 206 1381 215 1357 l 312 1464 l 482 1177 l 415 1138 m 718 1138 q 665 1181 695 1151 q 606 1247 635 1210 q 552 1320 576 1284 q 518 1381 528 1356 l 623 1464 l 787 1177 l 718 1138 z "},"Ȓ":{"ha":869,"x_min":69,"x_max":817,"o":"m 69 0 l 203 1038 l 283 1038 q 343 1040 302 1038 q 427 1046 385 1043 q 491 1049 469 1049 q 734 984 651 1049 q 817 796 817 919 q 756 582 817 673 q 580 456 695 492 q 615 410 597 440 q 649 345 633 380 q 675 278 665 310 q 720 167 697 222 q 764 67 743 111 q 800 0 785 22 l 628 0 q 612 33 621 13 q 592 79 603 53 q 570 138 582 106 q 546 207 558 170 q 520 286 534 247 q 489 358 506 325 q 452 411 472 390 q 410 433 433 431 l 276 434 l 221 0 l 69 0 m 440 553 q 564 584 515 553 q 636 670 613 615 q 658 796 660 725 q 611 900 657 865 q 474 935 565 935 q 430 934 456 935 q 378 930 403 932 q 341 925 354 927 l 292 554 q 347 553 310 553 q 440 553 383 553 m 530 1381 q 646 1350 599 1381 q 716 1265 693 1319 q 734 1140 738 1210 l 635 1140 q 604 1241 629 1208 q 524 1274 578 1274 q 458 1256 483 1274 q 418 1209 433 1239 q 392 1140 403 1178 l 297 1140 q 327 1260 297 1205 q 410 1348 358 1315 q 530 1381 463 1381 z "},"Ȕ":{"ha":933,"x_min":95,"x_max":910,"o":"m 410 -11 q 175 70 256 -11 q 95 297 95 151 q 98 336 95 313 q 105 403 100 360 l 185 1038 l 338 1038 l 259 428 q 253 360 255 391 q 251 303 251 328 q 297 159 251 206 q 433 111 344 111 q 558 147 508 111 q 639 255 608 183 q 684 435 669 326 l 761 1038 l 910 1038 l 831 422 q 802 281 820 344 q 758 170 784 217 q 619 32 705 75 q 410 -11 533 -11 m 467 1140 q 413 1180 444 1150 q 349 1248 381 1210 q 292 1322 317 1285 q 258 1382 267 1358 l 364 1465 l 534 1178 l 467 1140 m 770 1140 q 717 1182 747 1153 q 658 1249 688 1212 q 604 1321 628 1285 q 570 1383 581 1357 l 675 1465 l 839 1178 l 770 1140 z "},"Ȗ":{"ha":933,"x_min":95,"x_max":910,"o":"m 410 -11 q 175 70 256 -11 q 95 297 95 151 q 98 336 95 313 q 105 403 100 360 l 185 1038 l 338 1038 l 259 428 q 253 360 255 391 q 251 303 251 328 q 297 159 251 206 q 433 111 344 111 q 558 147 508 111 q 639 255 608 183 q 684 435 669 326 l 761 1038 l 910 1038 l 831 422 q 802 281 820 344 q 758 170 784 217 q 619 32 705 75 q 410 -11 533 -11 m 582 1382 q 698 1351 651 1382 q 768 1266 745 1320 q 786 1142 790 1212 l 688 1142 q 656 1242 681 1210 q 576 1275 631 1275 q 510 1258 535 1275 q 470 1210 485 1240 q 444 1142 455 1180 l 349 1142 q 379 1261 349 1206 q 463 1349 410 1316 q 582 1382 515 1382 z "},"Ș":{"ha":707,"x_min":16,"x_max":680,"o":"m 267 -11 q 197 -6 235 -11 q 123 9 160 0 q 58 29 87 18 q 16 52 30 40 l 60 174 q 112 143 75 158 q 193 118 149 128 q 271 108 237 108 q 376 125 330 108 q 448 174 422 141 q 474 258 474 208 q 439 363 474 312 q 329 463 403 415 q 219 552 266 507 q 148 651 173 598 q 122 772 122 705 q 165 923 122 861 q 281 1017 208 985 q 445 1049 354 1049 q 589 1032 529 1049 q 680 990 648 1015 l 632 874 q 552 917 604 903 q 452 932 499 932 q 363 919 403 932 q 299 877 323 906 q 272 800 274 848 q 293 721 272 763 q 351 642 315 680 q 426 576 386 604 q 535 490 490 533 q 606 397 581 447 q 631 285 631 348 q 582 119 631 185 q 452 21 534 53 q 267 -11 369 -11 m 231 -458 l 174 -422 l 176 -403 q 211 -363 201 -385 q 222 -305 222 -340 q 208 -258 222 -281 q 174 -232 194 -235 l 178 -190 l 278 -119 q 338 -169 317 -131 q 359 -259 359 -208 q 341 -350 359 -307 q 293 -422 322 -393 q 231 -458 264 -451 z "},"Ț":{"ha":765,"x_min":88,"x_max":815,"o":"m 251 0 l 370 926 l 88 918 l 106 1038 l 815 1038 l 800 918 l 522 926 l 403 0 l 251 0 m 258 -458 l 201 -422 l 204 -403 q 239 -363 228 -385 q 250 -305 250 -340 q 236 -258 250 -281 q 201 -232 222 -235 l 206 -190 l 306 -119 q 366 -169 345 -131 q 387 -259 387 -208 q 368 -350 387 -307 q 321 -422 350 -393 q 258 -458 292 -451 z "},"Ȫ":{"ha":936,"x_min":74,"x_max":897,"o":"m 414 -11 q 225 48 301 -11 q 111 206 149 107 q 74 424 74 304 q 107 661 74 549 q 205 861 141 774 q 358 999 268 949 q 558 1049 447 1049 q 708 1014 644 1049 q 814 919 772 980 q 876 781 856 859 q 897 614 897 702 q 864 375 897 488 q 768 175 831 263 q 616 39 706 88 q 414 -11 526 -11 m 435 104 q 567 148 509 104 q 663 265 624 192 q 722 426 702 338 q 740 603 742 515 q 718 785 739 712 q 652 894 697 858 q 536 931 608 931 q 405 886 463 931 q 309 769 348 842 q 250 609 269 697 q 231 435 230 522 q 283 184 234 263 q 435 104 333 104 m 428 1136 q 372 1161 397 1136 q 347 1219 347 1185 q 377 1296 347 1267 q 449 1325 408 1325 q 511 1301 487 1325 q 536 1242 536 1276 q 508 1167 536 1199 q 428 1136 479 1136 m 728 1136 q 672 1161 697 1136 q 647 1219 647 1185 q 677 1296 647 1267 q 749 1325 708 1325 q 812 1301 788 1325 q 837 1242 837 1276 q 808 1167 837 1199 q 728 1136 780 1136 m 451 1438 l 455 1544 l 808 1544 l 802 1438 l 451 1438 z "},"Ȭ":{"ha":936,"x_min":74,"x_max":897,"o":"m 414 -11 q 225 48 301 -11 q 111 206 149 107 q 74 424 74 304 q 107 661 74 549 q 205 861 141 774 q 358 999 268 949 q 558 1049 447 1049 q 708 1014 644 1049 q 814 919 772 980 q 876 781 856 859 q 897 614 897 702 q 864 375 897 488 q 768 175 831 263 q 616 39 706 88 q 414 -11 526 -11 m 435 104 q 567 148 509 104 q 663 265 624 192 q 722 426 702 338 q 740 603 742 515 q 718 785 739 712 q 652 894 697 858 q 536 931 608 931 q 405 886 463 931 q 309 769 348 842 q 250 609 269 697 q 231 435 230 522 q 283 184 234 263 q 435 104 333 104 m 686 1149 q 615 1165 648 1149 q 560 1204 583 1181 q 524 1235 540 1225 q 488 1246 508 1246 q 443 1231 463 1246 q 403 1183 424 1216 l 347 1247 q 385 1303 360 1276 q 442 1347 410 1330 q 504 1364 473 1364 q 569 1348 537 1364 q 626 1304 601 1331 q 660 1276 645 1285 q 690 1268 675 1268 q 727 1277 710 1268 q 757 1303 743 1287 q 782 1343 770 1320 l 836 1276 q 803 1213 825 1242 q 750 1166 781 1184 q 686 1149 720 1149 m 454 1440 l 458 1547 l 811 1547 l 806 1440 l 454 1440 z "},"Ȱ":{"ha":936,"x_min":74,"x_max":897,"o":"m 414 -11 q 225 48 301 -11 q 111 206 149 107 q 74 424 74 304 q 107 661 74 549 q 205 861 141 774 q 358 999 268 949 q 558 1049 447 1049 q 708 1014 644 1049 q 814 919 772 980 q 876 781 856 859 q 897 614 897 702 q 864 375 897 488 q 768 175 831 263 q 616 39 706 88 q 414 -11 526 -11 m 435 104 q 567 148 509 104 q 663 265 624 192 q 722 426 702 338 q 740 603 742 515 q 718 785 739 712 q 652 894 697 858 q 536 931 608 931 q 405 886 463 931 q 309 769 348 842 q 250 609 269 697 q 231 435 230 522 q 283 184 234 263 q 435 104 333 104 m 576 1136 q 518 1160 544 1136 q 492 1219 492 1185 q 524 1293 492 1261 q 599 1325 556 1325 q 663 1302 638 1325 q 688 1244 688 1279 q 655 1169 688 1201 q 576 1136 622 1136 m 449 1413 l 453 1519 l 806 1519 l 800 1413 l 449 1413 z "},"Ȳ":{"ha":744,"x_min":57,"x_max":852,"o":"m 251 0 l 303 400 l 57 1038 l 217 1038 l 374 587 l 395 529 l 422 587 l 688 1038 l 852 1038 l 449 400 l 397 0 l 251 0 m 308 1154 l 312 1261 l 665 1261 l 659 1154 l 308 1154 z "},"Ḃ":{"ha":853,"x_min":71,"x_max":792,"o":"m 318 -10 q 282 -8 306 -10 q 231 -5 258 -7 q 178 -1 203 -3 q 140 0 154 0 l 71 0 l 204 1038 l 272 1038 q 311 1039 283 1038 q 373 1043 339 1041 q 436 1047 407 1045 q 480 1049 466 1049 q 661 1019 593 1049 q 761 938 730 990 q 792 818 792 886 q 737 645 792 715 q 585 544 683 575 q 688 507 644 535 q 758 433 733 478 q 784 331 783 389 q 730 139 786 214 q 569 27 674 63 q 318 -10 464 -10 m 348 98 q 500 121 439 98 q 592 192 561 144 q 623 313 623 240 q 570 443 623 401 q 412 485 517 485 q 347 484 379 485 q 283 481 315 483 l 235 109 q 268 103 248 106 q 310 99 288 101 q 348 98 332 98 m 298 591 q 340 590 317 590 q 405 590 363 590 q 574 645 508 590 q 639 802 639 701 q 593 907 639 874 q 446 943 547 940 q 415 943 433 944 q 378 941 397 942 q 342 938 359 940 l 298 591 m 524 1136 q 466 1160 492 1136 q 440 1219 440 1185 q 472 1293 440 1261 q 547 1325 504 1325 q 610 1302 585 1325 q 635 1244 635 1279 q 602 1169 635 1201 q 524 1136 569 1136 z "},"Ḉ":{"ha":779,"x_min":69,"x_max":817,"o":"m 416 -11 q 214 53 290 -11 q 103 220 137 118 q 69 439 69 322 q 135 755 69 616 q 312 971 199 894 q 563 1049 424 1049 q 633 1044 598 1049 q 705 1028 667 1039 q 785 1000 742 1017 l 735 873 q 663 907 699 893 q 555 922 626 922 q 365 848 438 922 q 257 666 290 774 q 224 447 224 557 q 247 276 224 353 q 319 155 270 200 q 446 110 368 110 q 537 122 489 110 q 625 150 585 133 q 684 182 665 167 l 706 60 q 663 35 690 48 q 598 13 635 23 q 515 -5 560 2 q 416 -11 469 -11 m 294 -316 q 230 -310 265 -316 q 183 -296 194 -303 l 201 -187 q 225 -195 210 -192 q 269 -197 240 -197 q 336 -172 306 -197 q 368 -81 367 -147 q 368 -17 369 -41 q 366 21 368 7 l 412 24 l 452 21 q 475 -38 466 0 q 485 -121 485 -76 q 433 -269 485 -222 q 294 -316 381 -316 m 556 1136 l 495 1187 l 708 1464 l 817 1364 q 784 1319 807 1346 q 730 1264 760 1293 q 667 1209 699 1235 q 605 1163 634 1183 q 556 1136 576 1143 z "},"Ḋ":{"ha":939,"x_min":71,"x_max":894,"o":"m 362 -11 q 289 -7 320 -10 q 224 -2 257 -5 q 144 0 191 0 l 71 0 l 204 1038 l 278 1038 q 311 1039 290 1038 q 358 1041 332 1040 q 411 1045 384 1043 q 462 1048 438 1047 q 501 1049 486 1049 q 799 933 705 1049 q 894 612 894 818 q 856 368 894 482 q 749 168 819 254 q 581 34 679 82 q 362 -11 483 -13 m 388 103 q 582 179 503 106 q 699 366 660 251 q 737 607 737 480 q 709 804 737 731 q 621 906 681 875 q 460 938 561 938 q 398 933 434 938 q 341 924 361 929 l 238 122 q 308 107 267 112 q 388 103 349 102 m 567 1136 q 508 1160 534 1136 q 482 1219 482 1185 q 514 1293 482 1261 q 589 1325 547 1325 q 653 1302 628 1325 q 678 1244 678 1279 q 645 1169 678 1201 q 567 1136 612 1136 z "},"Ḍ":{"ha":939,"x_min":71,"x_max":894,"o":"m 362 -11 q 289 -7 320 -10 q 224 -2 257 -5 q 144 0 191 0 l 71 0 l 204 1038 l 278 1038 q 311 1039 290 1038 q 358 1041 332 1040 q 411 1045 384 1043 q 462 1048 438 1047 q 501 1049 486 1049 q 799 933 705 1049 q 894 612 894 818 q 856 368 894 482 q 749 168 819 254 q 581 34 679 82 q 362 -11 483 -13 m 388 103 q 582 179 503 106 q 699 366 660 251 q 737 607 737 480 q 709 804 737 731 q 621 906 681 875 q 460 938 561 938 q 398 933 434 938 q 341 924 361 929 l 238 122 q 308 107 267 112 q 388 103 349 102 m 372 -339 q 314 -315 340 -339 q 288 -256 288 -290 q 320 -182 288 -214 q 394 -149 352 -149 q 458 -172 433 -149 q 483 -230 483 -195 q 450 -306 483 -274 q 372 -339 417 -339 z "},"Ḏ":{"ha":939,"x_min":71,"x_max":894,"o":"m 362 -11 q 289 -7 320 -10 q 224 -2 257 -5 q 144 0 191 0 l 71 0 l 204 1038 l 278 1038 q 311 1039 290 1038 q 358 1041 332 1040 q 411 1045 384 1043 q 462 1048 438 1047 q 501 1049 486 1049 q 799 933 705 1049 q 894 612 894 818 q 856 368 894 482 q 749 168 819 254 q 581 34 679 82 q 362 -11 483 -13 m 388 103 q 582 179 503 106 q 699 366 660 251 q 737 607 737 480 q 709 804 737 731 q 621 906 681 875 q 460 938 561 938 q 398 933 434 938 q 341 924 361 929 l 238 122 q 308 107 267 112 q 388 103 349 102 m 212 -259 l 216 -151 l 569 -151 l 564 -259 l 212 -259 z "},"Ḕ":{"ha":779,"x_min":71,"x_max":740,"o":"m 71 0 l 204 1038 l 740 1038 l 733 918 l 340 923 l 298 586 l 593 590 l 582 466 l 283 476 l 236 115 l 704 125 l 692 0 l 71 0 m 337 1153 l 341 1260 l 694 1260 l 688 1153 l 337 1153 m 594 1358 q 533 1396 569 1368 q 457 1460 496 1424 q 388 1530 419 1496 q 344 1586 357 1564 l 454 1686 l 655 1409 l 594 1358 z "},"Ḗ":{"ha":779,"x_min":71,"x_max":771,"o":"m 71 0 l 204 1038 l 740 1038 l 733 918 l 340 923 l 298 586 l 593 590 l 582 466 l 283 476 l 236 115 l 704 125 l 692 0 l 71 0 m 337 1153 l 341 1260 l 694 1260 l 688 1153 l 337 1153 m 510 1358 l 449 1409 l 662 1686 l 771 1586 q 738 1542 761 1568 q 684 1486 715 1515 q 621 1431 653 1458 q 559 1385 588 1405 q 510 1358 530 1365 z "},"Ḝ":{"ha":779,"x_min":71,"x_max":740,"o":"m 71 0 l 204 1038 l 740 1038 l 733 918 l 340 923 l 298 586 l 593 590 l 582 466 l 283 476 l 236 115 l 704 125 l 692 0 l 71 0 m 274 -316 q 210 -310 246 -316 q 163 -296 175 -303 l 181 -187 q 206 -195 191 -192 q 250 -197 220 -197 q 317 -172 286 -197 q 349 -81 347 -147 q 349 -17 349 -41 q 347 21 349 7 l 392 24 l 433 21 q 456 -38 447 0 q 465 -121 465 -76 q 413 -269 465 -222 q 274 -316 361 -316 m 506 1135 q 390 1166 437 1135 q 320 1251 342 1197 q 301 1376 297 1306 l 399 1376 q 431 1275 406 1308 q 511 1242 456 1242 q 578 1260 553 1242 q 618 1307 603 1277 q 643 1376 633 1338 l 738 1376 q 708 1256 738 1311 q 625 1168 677 1201 q 506 1135 572 1135 z "},"Ḟ":{"ha":719,"x_min":71,"x_max":747,"o":"m 71 0 l 204 1038 l 747 1038 l 735 918 l 340 923 l 297 583 l 612 588 l 601 460 l 283 471 l 222 0 l 71 0 m 468 1136 q 409 1160 435 1136 q 383 1219 383 1185 q 416 1293 383 1261 q 490 1325 448 1325 q 554 1302 529 1325 q 579 1244 579 1279 q 546 1169 579 1201 q 468 1136 513 1136 z "},"Ḡ":{"ha":918,"x_min":68,"x_max":855,"o":"m 420 -11 q 224 51 302 -11 q 109 212 145 113 q 70 423 72 310 q 134 749 68 606 q 318 970 201 891 q 578 1049 435 1049 q 650 1046 617 1049 q 714 1038 683 1044 q 778 1024 744 1033 q 855 1001 813 1015 l 812 864 q 755 893 792 878 q 671 917 718 908 q 574 926 624 926 q 376 853 455 926 q 260 669 297 779 q 224 446 224 558 q 247 276 224 353 q 319 153 269 199 q 446 107 368 107 q 548 118 492 107 q 653 152 604 130 l 683 386 l 524 386 l 540 508 l 845 508 l 787 62 q 745 54 767 60 q 685 38 724 49 q 552 3 617 17 q 420 -11 488 -11 m 394 1154 l 398 1261 l 751 1261 l 745 1154 l 394 1154 z "},"Ḥ":{"ha":965,"x_min":69,"x_max":931,"o":"m 69 0 l 203 1038 l 355 1038 l 294 574 l 719 574 l 778 1038 l 931 1038 l 797 0 l 644 0 l 704 463 l 281 463 l 220 0 l 69 0 m 387 -339 q 328 -315 354 -339 q 302 -256 302 -290 q 334 -182 302 -214 q 409 -149 367 -149 q 473 -172 448 -149 q 498 -230 498 -195 q 465 -306 498 -274 q 387 -339 432 -339 z "},"Ḫ":{"ha":965,"x_min":69,"x_max":931,"o":"m 69 0 l 203 1038 l 355 1038 l 294 574 l 719 574 l 778 1038 l 931 1038 l 797 0 l 644 0 l 704 463 l 281 463 l 220 0 l 69 0 m 386 -347 q 269 -315 317 -347 q 199 -228 221 -283 q 186 -106 177 -174 l 278 -106 q 311 -206 285 -173 q 392 -239 337 -239 q 485 -202 454 -239 q 524 -106 516 -165 l 619 -106 q 589 -230 619 -176 q 506 -316 558 -285 q 386 -347 453 -347 z "},"Ḯ":{"ha":407,"x_min":76,"x_max":585,"o":"m 83 0 l 217 1038 l 369 1038 l 235 0 l 83 0 m 158 1135 q 101 1159 126 1135 q 76 1217 76 1184 q 106 1294 76 1265 q 178 1324 137 1324 q 241 1299 216 1324 q 265 1240 265 1275 q 237 1166 265 1197 q 158 1135 208 1135 m 458 1135 q 401 1159 426 1135 q 376 1217 376 1184 q 407 1294 376 1265 q 478 1324 438 1324 q 541 1299 517 1324 q 566 1240 566 1275 q 538 1166 566 1197 q 458 1135 509 1135 m 324 1418 l 264 1469 l 476 1746 l 585 1646 q 552 1601 576 1628 q 499 1546 529 1575 q 435 1491 468 1517 q 374 1445 403 1465 q 324 1418 344 1425 z "},"Ḷ":{"ha":674,"x_min":71,"x_max":617,"o":"m 71 0 l 204 1038 l 356 1038 l 238 125 l 617 128 l 599 0 l 71 0 m 310 -339 q 251 -315 277 -339 q 225 -256 225 -290 q 257 -182 225 -214 q 332 -149 290 -149 q 396 -172 371 -149 q 421 -230 421 -195 q 388 -306 421 -274 q 310 -339 355 -339 z "},"Ḻ":{"ha":674,"x_min":71,"x_max":617,"o":"m 71 0 l 204 1038 l 356 1038 l 238 125 l 617 128 l 599 0 l 71 0 m 149 -259 l 153 -151 l 506 -151 l 501 -259 l 149 -259 z "},"Ṁ":{"ha":1237,"x_min":24,"x_max":1131,"o":"m 505 -12 l 401 718 l 379 948 l 338 712 l 176 0 l 24 0 l 286 1038 l 487 1038 l 586 319 l 595 199 l 628 319 l 910 1038 l 1131 1038 l 1107 0 l 953 0 l 992 705 l 1009 948 l 924 732 l 628 -1 l 505 -12 m 717 1136 q 658 1160 684 1136 q 632 1219 632 1185 q 664 1293 632 1261 q 739 1325 697 1325 q 803 1302 778 1325 q 828 1244 828 1279 q 795 1169 828 1201 q 717 1136 762 1136 z "},"Ṃ":{"ha":1237,"x_min":24,"x_max":1131,"o":"m 505 -12 l 401 718 l 379 948 l 338 712 l 176 0 l 24 0 l 286 1038 l 487 1038 l 586 319 l 595 199 l 628 319 l 910 1038 l 1131 1038 l 1107 0 l 953 0 l 992 705 l 1009 948 l 924 732 l 628 -1 l 505 -12 m 522 -339 q 464 -315 490 -339 q 438 -256 438 -290 q 470 -182 438 -214 q 544 -149 502 -149 q 608 -172 583 -149 q 633 -230 633 -195 q 600 -306 633 -274 q 522 -339 567 -339 z "},"Ṅ":{"ha":961,"x_min":71,"x_max":926,"o":"m 71 0 l 204 1038 l 356 1038 l 644 347 l 689 201 l 701 371 l 781 1038 l 926 1038 l 792 0 l 650 0 l 353 703 l 313 865 l 297 665 l 213 0 l 71 0 m 578 1136 q 519 1160 545 1136 q 493 1219 493 1185 q 525 1293 493 1261 q 600 1325 558 1325 q 664 1302 639 1325 q 689 1244 689 1279 q 656 1169 689 1201 q 578 1136 623 1136 z "},"Ṇ":{"ha":961,"x_min":71,"x_max":926,"o":"m 71 0 l 204 1038 l 356 1038 l 644 347 l 689 201 l 701 371 l 781 1038 l 926 1038 l 792 0 l 650 0 l 353 703 l 313 865 l 297 665 l 213 0 l 71 0 m 383 -339 q 325 -315 351 -339 q 299 -256 299 -290 q 331 -182 299 -214 q 406 -149 363 -149 q 469 -172 444 -149 q 494 -230 494 -195 q 461 -306 494 -274 q 383 -339 428 -339 z "},"Ṉ":{"ha":961,"x_min":71,"x_max":926,"o":"m 71 0 l 204 1038 l 356 1038 l 644 347 l 689 201 l 701 371 l 781 1038 l 926 1038 l 792 0 l 650 0 l 353 703 l 313 865 l 297 665 l 213 0 l 71 0 m 223 -259 l 227 -151 l 580 -151 l 575 -259 l 223 -259 z "},"Ṍ":{"ha":936,"x_min":74,"x_max":897,"o":"m 414 -11 q 225 48 301 -11 q 111 206 149 107 q 74 424 74 304 q 107 661 74 549 q 205 861 141 774 q 358 999 268 949 q 558 1049 447 1049 q 708 1014 644 1049 q 814 919 772 980 q 876 781 856 859 q 897 614 897 702 q 864 375 897 488 q 768 175 831 263 q 616 39 706 88 q 414 -11 526 -11 m 435 104 q 567 148 509 104 q 663 265 624 192 q 722 426 702 338 q 740 603 742 515 q 718 785 739 712 q 652 894 697 858 q 536 931 608 931 q 405 886 463 931 q 309 769 348 842 q 250 609 269 697 q 231 435 230 522 q 283 184 234 263 q 435 104 333 104 m 686 1149 q 615 1165 648 1149 q 560 1204 583 1181 q 524 1235 540 1225 q 488 1246 508 1246 q 443 1231 463 1246 q 403 1183 424 1216 l 347 1247 q 385 1303 360 1276 q 442 1347 410 1330 q 504 1364 473 1364 q 569 1348 537 1364 q 626 1304 601 1331 q 660 1276 645 1285 q 690 1268 675 1268 q 727 1277 710 1268 q 757 1303 743 1287 q 782 1343 770 1320 l 836 1276 q 803 1213 825 1242 q 750 1166 781 1184 q 686 1149 720 1149 m 599 1422 l 538 1473 l 751 1750 l 860 1650 q 827 1606 850 1632 q 773 1550 803 1579 q 710 1495 742 1522 q 648 1449 677 1469 q 599 1422 619 1429 z "},"Ṏ":{"ha":936,"x_min":74,"x_max":897,"o":"m 414 -11 q 225 48 301 -11 q 111 206 149 107 q 74 424 74 304 q 107 661 74 549 q 205 861 141 774 q 358 999 268 949 q 558 1049 447 1049 q 708 1014 644 1049 q 814 919 772 980 q 876 781 856 859 q 897 614 897 702 q 864 375 897 488 q 768 175 831 263 q 616 39 706 88 q 414 -11 526 -11 m 435 104 q 567 148 509 104 q 663 265 624 192 q 722 426 702 338 q 740 603 742 515 q 718 785 739 712 q 652 894 697 858 q 536 931 608 931 q 405 886 463 931 q 309 769 348 842 q 250 609 269 697 q 231 435 230 522 q 283 184 234 263 q 435 104 333 104 m 686 1149 q 615 1165 648 1149 q 560 1204 583 1181 q 524 1235 540 1225 q 488 1246 508 1246 q 443 1231 463 1246 q 403 1183 424 1216 l 347 1247 q 385 1303 360 1276 q 442 1347 410 1330 q 504 1364 473 1364 q 569 1348 537 1364 q 626 1304 601 1331 q 660 1276 645 1285 q 690 1268 675 1268 q 727 1277 710 1268 q 757 1303 743 1287 q 782 1343 770 1320 l 836 1276 q 803 1213 825 1242 q 750 1166 781 1184 q 686 1149 720 1149 m 469 1422 q 412 1447 437 1422 q 387 1505 387 1472 q 417 1582 387 1553 q 490 1611 448 1611 q 552 1587 527 1611 q 576 1528 576 1563 q 548 1453 576 1485 q 469 1422 519 1422 m 769 1422 q 712 1447 737 1422 q 687 1505 687 1472 q 718 1582 687 1553 q 790 1611 749 1611 q 852 1587 828 1611 q 877 1528 877 1563 q 849 1453 877 1485 q 769 1422 820 1422 z "},"Ṑ":{"ha":936,"x_min":74,"x_max":897,"o":"m 414 -11 q 225 48 301 -11 q 111 206 149 107 q 74 424 74 304 q 107 661 74 549 q 205 861 141 774 q 358 999 268 949 q 558 1049 447 1049 q 708 1014 644 1049 q 814 919 772 980 q 876 781 856 859 q 897 614 897 702 q 864 375 897 488 q 768 175 831 263 q 616 39 706 88 q 414 -11 526 -11 m 435 104 q 567 148 509 104 q 663 265 624 192 q 722 426 702 338 q 740 603 742 515 q 718 785 739 712 q 652 894 697 858 q 536 931 608 931 q 405 886 463 931 q 309 769 348 842 q 250 609 269 697 q 231 435 230 522 q 283 184 234 263 q 435 104 333 104 m 414 1154 l 418 1261 l 771 1261 l 765 1154 l 414 1154 m 671 1360 q 610 1397 647 1369 q 534 1461 573 1425 q 465 1531 496 1497 q 422 1588 434 1565 l 531 1688 l 732 1410 l 671 1360 z "},"Ṓ":{"ha":936,"x_min":74,"x_max":897,"o":"m 414 -11 q 225 48 301 -11 q 111 206 149 107 q 74 424 74 304 q 107 661 74 549 q 205 861 141 774 q 358 999 268 949 q 558 1049 447 1049 q 708 1014 644 1049 q 814 919 772 980 q 876 781 856 859 q 897 614 897 702 q 864 375 897 488 q 768 175 831 263 q 616 39 706 88 q 414 -11 526 -11 m 435 104 q 567 148 509 104 q 663 265 624 192 q 722 426 702 338 q 740 603 742 515 q 718 785 739 712 q 652 894 697 858 q 536 931 608 931 q 405 886 463 931 q 309 769 348 842 q 250 609 269 697 q 231 435 230 522 q 283 184 234 263 q 435 104 333 104 m 414 1154 l 418 1261 l 771 1261 l 765 1154 l 414 1154 m 587 1360 l 526 1410 l 739 1688 l 848 1588 q 815 1543 838 1569 q 761 1488 792 1517 q 698 1433 731 1459 q 636 1386 665 1406 q 587 1360 607 1367 z "},"Ṗ":{"ha":813,"x_min":71,"x_max":810,"o":"m 71 0 l 204 1038 l 288 1038 q 328 1039 301 1038 q 385 1043 354 1041 q 444 1047 416 1045 q 492 1049 473 1049 q 728 980 647 1049 q 810 772 810 911 q 758 550 810 647 q 609 401 705 453 q 389 349 513 349 q 316 351 347 349 q 268 356 286 353 l 222 0 l 71 0 m 388 467 q 589 543 524 467 q 658 765 654 618 q 613 895 660 852 q 466 938 565 938 q 404 934 440 938 q 341 924 367 930 l 283 476 q 332 469 301 472 q 388 467 363 467 m 504 1136 q 445 1160 472 1136 q 419 1219 419 1185 q 452 1293 419 1261 q 526 1325 484 1325 q 590 1302 565 1325 q 615 1244 615 1279 q 582 1169 615 1201 q 504 1136 549 1136 z "},"Ṛ":{"ha":869,"x_min":69,"x_max":817,"o":"m 69 0 l 203 1038 l 283 1038 q 343 1040 302 1038 q 427 1046 385 1043 q 491 1049 469 1049 q 734 984 651 1049 q 817 796 817 919 q 756 582 817 673 q 580 456 695 492 q 615 410 597 440 q 649 345 633 380 q 675 278 665 310 q 720 167 697 222 q 764 67 743 111 q 800 0 785 22 l 628 0 q 612 33 621 13 q 592 79 603 53 q 570 138 582 106 q 546 207 558 170 q 520 286 534 247 q 489 358 506 325 q 452 411 472 390 q 410 433 433 431 l 276 434 l 221 0 l 69 0 m 440 553 q 564 584 515 553 q 636 670 613 615 q 658 796 660 725 q 611 900 657 865 q 474 935 565 935 q 430 934 456 935 q 378 930 403 932 q 341 925 354 927 l 292 554 q 347 553 310 553 q 440 553 383 553 m 338 -339 q 279 -315 305 -339 q 253 -256 253 -290 q 285 -182 253 -214 q 360 -149 317 -149 q 424 -172 399 -149 q 449 -230 449 -195 q 416 -306 449 -274 q 338 -339 383 -339 z "},"Ṟ":{"ha":869,"x_min":69,"x_max":817,"o":"m 69 0 l 203 1038 l 283 1038 q 343 1040 302 1038 q 427 1046 385 1043 q 491 1049 469 1049 q 734 984 651 1049 q 817 796 817 919 q 756 582 817 673 q 580 456 695 492 q 615 410 597 440 q 649 345 633 380 q 675 278 665 310 q 720 167 697 222 q 764 67 743 111 q 800 0 785 22 l 628 0 q 612 33 621 13 q 592 79 603 53 q 570 138 582 106 q 546 207 558 170 q 520 286 534 247 q 489 358 506 325 q 452 411 472 390 q 410 433 433 431 l 276 434 l 221 0 l 69 0 m 440 553 q 564 584 515 553 q 636 670 613 615 q 658 796 660 725 q 611 900 657 865 q 474 935 565 935 q 430 934 456 935 q 378 930 403 932 q 341 925 354 927 l 292 554 q 347 553 310 553 q 440 553 383 553 m 177 -259 l 181 -151 l 534 -151 l 529 -259 l 177 -259 z "},"Ṡ":{"ha":707,"x_min":16,"x_max":680,"o":"m 267 -11 q 197 -6 235 -11 q 123 9 160 0 q 58 29 87 18 q 16 52 30 40 l 60 174 q 112 143 75 158 q 193 118 149 128 q 271 108 237 108 q 376 125 330 108 q 448 174 422 141 q 474 258 474 208 q 439 363 474 312 q 329 463 403 415 q 219 552 266 507 q 148 651 173 598 q 122 772 122 705 q 165 923 122 861 q 281 1017 208 985 q 445 1049 354 1049 q 589 1032 529 1049 q 680 990 648 1015 l 632 874 q 552 917 604 903 q 452 932 499 932 q 363 919 403 932 q 299 877 323 906 q 272 800 274 848 q 293 721 272 763 q 351 642 315 680 q 426 576 386 604 q 535 490 490 533 q 606 397 581 447 q 631 285 631 348 q 582 119 631 185 q 452 21 534 53 q 267 -11 369 -11 m 457 1135 q 398 1159 424 1135 q 372 1217 372 1183 q 405 1292 372 1260 q 479 1324 437 1324 q 543 1301 518 1324 q 568 1243 568 1278 q 535 1167 568 1200 q 457 1135 502 1135 z "},"Ṣ":{"ha":707,"x_min":16,"x_max":680,"o":"m 267 -11 q 197 -6 235 -11 q 123 9 160 0 q 58 29 87 18 q 16 52 30 40 l 60 174 q 112 143 75 158 q 193 118 149 128 q 271 108 237 108 q 376 125 330 108 q 448 174 422 141 q 474 258 474 208 q 439 363 474 312 q 329 463 403 415 q 219 552 266 507 q 148 651 173 598 q 122 772 122 705 q 165 923 122 861 q 281 1017 208 985 q 445 1049 354 1049 q 589 1032 529 1049 q 680 990 648 1015 l 632 874 q 552 917 604 903 q 452 932 499 932 q 363 919 403 932 q 299 877 323 906 q 272 800 274 848 q 293 721 272 763 q 351 642 315 680 q 426 576 386 604 q 535 490 490 533 q 606 397 581 447 q 631 285 631 348 q 582 119 631 185 q 452 21 534 53 q 267 -11 369 -11 m 258 -339 q 199 -315 225 -339 q 173 -256 173 -290 q 205 -182 173 -214 q 280 -149 238 -149 q 344 -172 319 -149 q 369 -230 369 -195 q 336 -306 369 -274 q 258 -339 303 -339 z "},"Ṥ":{"ha":707,"x_min":16,"x_max":700,"o":"m 267 -11 q 197 -6 235 -11 q 123 9 160 0 q 58 29 87 18 q 16 52 30 40 l 60 174 q 112 143 75 158 q 193 118 149 128 q 271 108 237 108 q 376 125 330 108 q 448 174 422 141 q 474 258 474 208 q 439 363 474 312 q 329 463 403 415 q 219 552 266 507 q 148 651 173 598 q 122 772 122 705 q 165 923 122 861 q 281 1017 208 985 q 445 1049 354 1049 q 589 1032 529 1049 q 680 990 648 1015 l 632 874 q 552 917 604 903 q 452 932 499 932 q 363 919 403 932 q 299 877 323 906 q 272 800 274 848 q 293 721 272 763 q 351 642 315 680 q 426 576 386 604 q 535 490 490 533 q 606 397 581 447 q 631 285 631 348 q 582 119 631 185 q 452 21 534 53 q 267 -11 369 -11 m 439 1135 l 378 1185 l 591 1463 l 700 1363 q 667 1318 690 1344 q 613 1263 644 1292 q 550 1208 583 1234 q 488 1161 517 1181 q 439 1135 459 1142 m 500 1453 q 441 1477 467 1453 q 415 1535 415 1501 q 448 1610 415 1578 q 522 1642 480 1642 q 586 1619 561 1642 q 611 1561 611 1596 q 578 1485 611 1518 q 500 1453 545 1453 z "},"Ṧ":{"ha":707,"x_min":16,"x_max":741,"o":"m 267 -11 q 197 -6 235 -11 q 123 9 160 0 q 58 29 87 18 q 16 52 30 40 l 60 174 q 112 143 75 158 q 193 118 149 128 q 271 108 237 108 q 376 125 330 108 q 448 174 422 141 q 474 258 474 208 q 439 363 474 312 q 329 463 403 415 q 219 552 266 507 q 148 651 173 598 q 122 772 122 705 q 165 923 122 861 q 281 1017 208 985 q 445 1049 354 1049 q 589 1032 529 1049 q 680 990 648 1015 l 632 874 q 552 917 604 903 q 452 932 499 932 q 363 919 403 932 q 299 877 323 906 q 272 800 274 848 q 293 721 272 763 q 351 642 315 680 q 426 576 386 604 q 535 490 490 533 q 606 397 581 447 q 631 285 631 348 q 582 119 631 185 q 452 21 534 53 q 267 -11 369 -11 m 402 1135 l 240 1350 l 304 1408 l 471 1249 l 678 1408 l 741 1351 l 522 1135 l 402 1135 m 500 1453 q 441 1477 467 1453 q 415 1535 415 1501 q 448 1610 415 1578 q 522 1642 480 1642 q 586 1619 561 1642 q 611 1561 611 1596 q 578 1485 611 1518 q 500 1453 545 1453 z "},"Ṩ":{"ha":707,"x_min":16,"x_max":680,"o":"m 267 -11 q 197 -6 235 -11 q 123 9 160 0 q 58 29 87 18 q 16 52 30 40 l 60 174 q 112 143 75 158 q 193 118 149 128 q 271 108 237 108 q 376 125 330 108 q 448 174 422 141 q 474 258 474 208 q 439 363 474 312 q 329 463 403 415 q 219 552 266 507 q 148 651 173 598 q 122 772 122 705 q 165 923 122 861 q 281 1017 208 985 q 445 1049 354 1049 q 589 1032 529 1049 q 680 990 648 1015 l 632 874 q 552 917 604 903 q 452 932 499 932 q 363 919 403 932 q 299 877 323 906 q 272 800 274 848 q 293 721 272 763 q 351 642 315 680 q 426 576 386 604 q 535 490 490 533 q 606 397 581 447 q 631 285 631 348 q 582 119 631 185 q 452 21 534 53 q 267 -11 369 -11 m 258 -339 q 199 -315 225 -339 q 173 -256 173 -290 q 205 -182 173 -214 q 280 -149 238 -149 q 344 -172 319 -149 q 369 -230 369 -195 q 336 -306 369 -274 q 258 -339 303 -339 m 457 1135 q 398 1159 424 1135 q 372 1217 372 1183 q 405 1292 372 1260 q 479 1324 437 1324 q 543 1301 518 1324 q 568 1243 568 1278 q 535 1167 568 1200 q 457 1135 502 1135 z "},"Ṫ":{"ha":765,"x_min":88,"x_max":815,"o":"m 251 0 l 370 926 l 88 918 l 106 1038 l 815 1038 l 800 918 l 522 926 l 403 0 l 251 0 m 480 1136 q 421 1160 447 1136 q 395 1219 395 1185 q 427 1293 395 1261 q 502 1325 460 1325 q 566 1302 541 1325 q 591 1244 591 1279 q 558 1169 591 1201 q 480 1136 525 1136 z "},"Ṭ":{"ha":765,"x_min":88,"x_max":815,"o":"m 251 0 l 370 926 l 88 918 l 106 1038 l 815 1038 l 800 918 l 522 926 l 403 0 l 251 0 m 285 -339 q 227 -315 253 -339 q 201 -256 201 -290 q 233 -182 201 -214 q 308 -149 265 -149 q 372 -172 347 -149 q 397 -230 397 -195 q 364 -306 397 -274 q 285 -339 331 -339 z "},"Ṯ":{"ha":765,"x_min":88,"x_max":815,"o":"m 251 0 l 370 926 l 88 918 l 106 1038 l 815 1038 l 800 918 l 522 926 l 403 0 l 251 0 m 125 -259 l 129 -151 l 482 -151 l 477 -259 l 125 -259 z "},"Ṹ":{"ha":933,"x_min":95,"x_max":910,"o":"m 410 -11 q 175 70 256 -11 q 95 297 95 151 q 98 336 95 313 q 105 403 100 360 l 185 1038 l 338 1038 l 259 428 q 253 360 255 391 q 251 303 251 328 q 297 159 251 206 q 433 111 344 111 q 558 147 508 111 q 639 255 608 183 q 684 435 669 326 l 761 1038 l 910 1038 l 831 422 q 802 281 820 344 q 758 170 784 217 q 619 32 705 75 q 410 -11 533 -11 m 667 1149 q 596 1165 628 1149 q 540 1204 563 1181 q 505 1235 521 1225 q 468 1246 489 1246 q 424 1231 443 1246 q 383 1183 404 1216 l 328 1247 q 366 1303 341 1276 q 422 1347 391 1330 q 485 1364 453 1364 q 550 1348 517 1364 q 607 1304 582 1331 q 641 1276 626 1285 q 671 1268 656 1268 q 707 1277 691 1268 q 737 1303 724 1287 q 763 1343 751 1320 l 817 1276 q 783 1213 806 1242 q 731 1166 761 1184 q 667 1149 701 1149 m 579 1422 l 519 1473 l 731 1750 l 840 1650 q 807 1606 831 1632 q 753 1550 784 1579 q 690 1495 723 1522 q 628 1449 658 1469 q 579 1422 599 1429 z "},"Ṻ":{"ha":933,"x_min":95,"x_max":910,"o":"m 410 -11 q 175 70 256 -11 q 95 297 95 151 q 98 336 95 313 q 105 403 100 360 l 185 1038 l 338 1038 l 259 428 q 253 360 255 391 q 251 303 251 328 q 297 159 251 206 q 433 111 344 111 q 558 147 508 111 q 639 255 608 183 q 684 435 669 326 l 761 1038 l 910 1038 l 831 422 q 802 281 820 344 q 758 170 784 217 q 619 32 705 75 q 410 -11 533 -11 m 394 1154 l 399 1261 l 751 1261 l 746 1154 l 394 1154 m 438 1360 q 381 1384 406 1360 q 356 1442 356 1409 q 386 1519 356 1490 q 458 1549 417 1549 q 520 1524 496 1549 q 545 1465 545 1500 q 517 1391 545 1422 q 438 1360 488 1360 m 738 1360 q 681 1384 706 1360 q 656 1442 656 1409 q 686 1519 656 1490 q 758 1549 717 1549 q 821 1524 797 1549 q 846 1465 846 1500 q 817 1391 846 1422 q 738 1360 789 1360 z "},"Ẁ":{"ha":1206,"x_min":83,"x_max":1293,"o":"m 235 -6 l 83 1038 l 234 1038 l 321 308 l 340 161 l 383 308 l 606 877 l 589 1038 l 735 1038 l 806 308 l 817 161 l 866 308 l 1139 1038 l 1293 1038 l 870 -6 l 710 -6 l 649 543 l 640 660 l 601 543 l 392 -6 l 235 -6 m 767 1136 q 706 1174 742 1146 q 630 1238 669 1201 q 561 1308 592 1274 q 517 1364 530 1342 l 627 1464 l 828 1187 l 767 1136 z "},"Ẃ":{"ha":1206,"x_min":83,"x_max":1293,"o":"m 235 -6 l 83 1038 l 234 1038 l 321 308 l 340 161 l 383 308 l 606 877 l 589 1038 l 735 1038 l 806 308 l 817 161 l 866 308 l 1139 1038 l 1293 1038 l 870 -6 l 710 -6 l 649 543 l 640 660 l 601 543 l 392 -6 l 235 -6 m 683 1136 l 622 1187 l 835 1464 l 944 1364 q 911 1319 934 1346 q 857 1264 888 1293 q 794 1209 826 1235 q 732 1163 761 1183 q 683 1136 703 1143 z "},"Ẅ":{"ha":1206,"x_min":83,"x_max":1293,"o":"m 235 -6 l 83 1038 l 234 1038 l 321 308 l 340 161 l 383 308 l 606 877 l 589 1038 l 735 1038 l 806 308 l 817 161 l 866 308 l 1139 1038 l 1293 1038 l 870 -6 l 710 -6 l 649 543 l 640 660 l 601 543 l 392 -6 l 235 -6 m 553 1136 q 496 1161 521 1136 q 471 1219 471 1185 q 501 1296 471 1267 q 574 1325 532 1325 q 636 1301 611 1325 q 660 1242 660 1276 q 632 1167 660 1199 q 553 1136 603 1136 m 853 1136 q 796 1161 821 1136 q 771 1219 771 1185 q 802 1296 771 1267 q 874 1325 833 1325 q 936 1301 912 1325 q 961 1242 961 1276 q 933 1167 961 1199 q 853 1136 904 1136 z "},"Ẏ":{"ha":744,"x_min":57,"x_max":852,"o":"m 251 0 l 303 400 l 57 1038 l 217 1038 l 374 587 l 395 529 l 422 587 l 688 1038 l 852 1038 l 449 400 l 397 0 l 251 0 m 470 1136 q 411 1160 438 1136 q 385 1219 385 1185 q 418 1293 385 1261 q 492 1325 450 1325 q 556 1302 531 1325 q 581 1244 581 1279 q 548 1169 581 1201 q 470 1136 515 1136 z "},"Ẓ":{"ha":785,"x_min":1,"x_max":811,"o":"m 19 0 l 1 60 l 529 822 l 615 920 l 158 911 l 176 1038 l 793 1038 l 811 979 l 286 211 l 206 121 l 701 129 l 681 0 l 19 0 m 296 -339 q 237 -315 263 -339 q 211 -256 211 -290 q 243 -182 211 -214 q 318 -149 276 -149 q 382 -172 357 -149 q 407 -230 407 -195 q 374 -306 407 -274 q 296 -339 341 -339 z "},"ẞ":{"ha":1017,"x_min":62,"x_max":942,"o":"m 588 -15 q 482 -8 527 -15 q 401 12 436 -1 q 340 42 367 25 l 413 168 q 483 127 435 145 q 583 110 531 110 q 679 138 635 110 q 750 216 722 167 q 781 326 777 265 q 720 468 786 419 q 500 517 653 516 l 506 571 l 742 885 q 677 907 716 901 q 603 913 638 913 q 450 868 515 913 q 346 748 385 824 q 293 576 306 672 l 213 0 l 62 0 l 133 511 q 213 790 153 670 q 375 977 273 910 q 626 1044 478 1044 q 748 1033 697 1044 q 851 1004 799 1022 q 900 989 883 994 q 933 985 917 985 l 922 900 l 688 604 q 780 584 734 604 q 863 527 826 563 q 921 444 900 491 q 939 343 942 397 q 889 159 933 240 q 768 31 845 78 q 588 -15 692 -15 z "},"Ạ":{"ha":867,"x_min":-57,"x_max":810,"o":"m -57 0 l 449 1038 l 623 1038 l 810 0 l 658 0 l 617 256 l 222 256 l 106 0 l -57 0 m 273 369 l 599 369 l 526 835 l 518 913 l 484 835 l 273 369 m 337 -339 q 278 -315 304 -339 q 252 -256 252 -290 q 284 -182 252 -214 q 359 -149 317 -149 q 423 -172 398 -149 q 448 -230 448 -195 q 415 -306 448 -274 q 337 -339 382 -339 z "},"Ả":{"ha":867,"x_min":-57,"x_max":810,"o":"m -57 0 l 449 1038 l 623 1038 l 810 0 l 658 0 l 617 256 l 222 256 l 106 0 l -57 0 m 273 369 l 599 369 l 526 835 l 518 913 l 484 835 l 273 369 m 490 1144 q 480 1174 483 1159 q 480 1207 477 1188 q 496 1250 483 1234 q 525 1278 509 1266 q 553 1303 541 1290 q 569 1338 566 1316 q 554 1380 572 1366 q 498 1394 535 1394 q 448 1387 474 1394 q 408 1372 422 1380 l 417 1465 q 477 1486 440 1479 q 542 1493 513 1493 q 662 1457 619 1493 q 697 1363 705 1421 q 675 1303 692 1326 q 637 1264 658 1280 q 595 1232 615 1247 q 571 1197 582 1222 q 565 1144 560 1172 l 490 1144 z "},"Ấ":{"ha":867,"x_min":-57,"x_max":1019,"o":"m -57 0 l 449 1038 l 623 1038 l 810 0 l 658 0 l 617 256 l 222 256 l 106 0 l -57 0 m 273 369 l 599 369 l 526 835 l 518 913 l 484 835 l 273 369 m 350 1117 l 291 1168 l 518 1405 l 639 1405 l 770 1168 l 700 1122 l 560 1282 l 350 1117 m 786 1335 l 742 1387 l 949 1567 l 1019 1488 q 980 1443 1008 1466 q 916 1398 951 1419 q 846 1361 881 1377 q 786 1335 811 1344 z "},"Ầ":{"ha":867,"x_min":-57,"x_max":966,"o":"m -57 0 l 449 1038 l 623 1038 l 810 0 l 658 0 l 617 256 l 222 256 l 106 0 l -57 0 m 273 369 l 599 369 l 526 835 l 518 913 l 484 835 l 273 369 m 350 1117 l 291 1168 l 518 1405 l 639 1405 l 770 1168 l 700 1122 l 560 1282 l 350 1117 m 913 1296 q 859 1331 890 1309 q 797 1381 828 1353 q 742 1436 765 1408 q 710 1488 718 1464 l 793 1552 l 966 1340 l 913 1296 z "},"Ẩ":{"ha":867,"x_min":-57,"x_max":974,"o":"m -57 0 l 449 1038 l 623 1038 l 810 0 l 658 0 l 617 256 l 222 256 l 106 0 l -57 0 m 273 369 l 599 369 l 526 835 l 518 913 l 484 835 l 273 369 m 778 1348 q 769 1375 772 1362 q 768 1406 765 1389 q 791 1456 772 1440 q 829 1486 810 1472 q 851 1526 848 1500 q 837 1566 854 1553 q 785 1578 820 1578 q 739 1572 764 1578 q 702 1558 715 1565 l 711 1643 q 766 1663 733 1656 q 826 1669 799 1669 q 935 1636 897 1669 q 968 1549 974 1603 q 950 1494 965 1516 q 915 1457 935 1472 q 875 1428 894 1442 q 852 1397 863 1419 q 847 1348 842 1374 l 778 1348 m 350 1117 l 291 1168 l 518 1405 l 639 1405 l 770 1168 l 700 1122 l 560 1282 l 350 1117 z "},"Ẫ":{"ha":867,"x_min":-57,"x_max":822,"o":"m -57 0 l 449 1038 l 623 1038 l 810 0 l 658 0 l 617 256 l 222 256 l 106 0 l -57 0 m 273 369 l 599 369 l 526 835 l 518 913 l 484 835 l 273 369 m 350 1117 l 291 1168 l 518 1405 l 639 1405 l 770 1168 l 700 1122 l 560 1282 l 350 1117 m 681 1469 q 619 1482 647 1469 q 570 1515 590 1495 q 539 1542 553 1533 q 507 1551 525 1551 q 460 1538 478 1551 q 424 1499 442 1526 l 375 1551 q 409 1599 387 1576 q 461 1636 431 1622 q 522 1650 490 1650 q 579 1636 551 1650 q 628 1599 607 1622 q 657 1576 644 1583 q 685 1569 670 1569 q 723 1576 707 1569 q 750 1598 738 1584 q 773 1631 763 1613 l 822 1576 q 792 1523 812 1548 q 743 1484 772 1499 q 681 1469 715 1469 z "},"Ậ":{"ha":867,"x_min":-57,"x_max":810,"o":"m -57 0 l 449 1038 l 623 1038 l 810 0 l 658 0 l 617 256 l 222 256 l 106 0 l -57 0 m 273 369 l 599 369 l 526 835 l 518 913 l 484 835 l 273 369 m 337 -339 q 278 -315 304 -339 q 252 -256 252 -290 q 284 -182 252 -214 q 359 -149 317 -149 q 423 -172 398 -149 q 448 -230 448 -195 q 415 -306 448 -274 q 337 -339 382 -339 m 347 1128 l 288 1180 l 515 1424 l 635 1424 l 767 1180 l 697 1133 l 557 1293 l 347 1128 z "},"Ắ":{"ha":867,"x_min":-57,"x_max":810,"o":"m -57 0 l 449 1038 l 623 1038 l 810 0 l 658 0 l 617 256 l 222 256 l 106 0 l -57 0 m 273 369 l 599 369 l 526 835 l 518 913 l 484 835 l 273 369 m 529 1108 q 412 1139 460 1108 q 342 1226 364 1171 q 329 1349 321 1281 l 422 1349 q 435 1267 422 1299 q 473 1220 448 1235 q 535 1206 498 1206 q 603 1224 576 1206 q 646 1275 631 1242 q 667 1349 661 1307 l 760 1349 q 730 1224 760 1278 q 648 1139 700 1169 q 529 1108 596 1108 m 533 1426 l 489 1478 l 696 1657 l 767 1579 q 726 1533 755 1556 q 663 1489 698 1510 q 593 1451 627 1467 q 533 1426 558 1435 z "},"Ằ":{"ha":867,"x_min":-57,"x_max":810,"o":"m -57 0 l 449 1038 l 623 1038 l 810 0 l 658 0 l 617 256 l 222 256 l 106 0 l -57 0 m 273 369 l 599 369 l 526 835 l 518 913 l 484 835 l 273 369 m 575 1383 q 522 1419 552 1397 q 461 1470 491 1442 q 407 1526 431 1498 q 376 1580 384 1555 l 460 1644 l 628 1427 l 575 1383 m 529 1108 q 412 1139 460 1108 q 342 1226 364 1171 q 329 1349 321 1281 l 422 1349 q 435 1267 422 1299 q 473 1220 448 1235 q 535 1206 498 1206 q 603 1224 576 1206 q 646 1275 631 1242 q 667 1349 661 1307 l 760 1349 q 730 1224 760 1278 q 648 1139 700 1169 q 529 1108 596 1108 z "},"Ẳ":{"ha":867,"x_min":-57,"x_max":810,"o":"m -57 0 l 449 1038 l 623 1038 l 810 0 l 658 0 l 617 256 l 222 256 l 106 0 l -57 0 m 273 369 l 599 369 l 526 835 l 518 913 l 484 835 l 273 369 m 513 1360 q 505 1387 508 1374 q 503 1417 501 1400 q 527 1467 508 1451 q 565 1498 547 1483 q 587 1538 584 1512 q 573 1577 590 1565 q 521 1590 556 1590 q 475 1583 499 1590 q 438 1569 450 1576 l 447 1655 q 502 1674 469 1667 q 561 1680 535 1680 q 670 1647 632 1680 q 703 1560 709 1614 q 685 1506 700 1528 q 650 1468 670 1483 q 610 1440 630 1453 q 588 1408 598 1431 q 582 1360 578 1385 l 513 1360 m 529 1108 q 412 1139 460 1108 q 342 1226 364 1171 q 329 1349 321 1281 l 422 1349 q 435 1267 422 1299 q 473 1220 448 1235 q 535 1206 498 1206 q 603 1224 576 1206 q 646 1275 631 1242 q 667 1349 661 1307 l 760 1349 q 730 1224 760 1278 q 648 1139 700 1169 q 529 1108 596 1108 z "},"Ẵ":{"ha":867,"x_min":-57,"x_max":810,"o":"m -57 0 l 449 1038 l 623 1038 l 810 0 l 658 0 l 617 256 l 222 256 l 106 0 l -57 0 m 273 369 l 599 369 l 526 835 l 518 913 l 484 835 l 273 369 m 646 1440 q 584 1452 613 1440 q 535 1485 555 1465 q 504 1512 517 1503 q 472 1521 490 1521 q 425 1508 443 1521 q 388 1469 406 1496 l 340 1522 q 374 1569 352 1547 q 426 1606 397 1592 q 487 1620 455 1620 q 543 1606 515 1620 q 593 1569 572 1592 q 623 1546 610 1553 q 649 1539 635 1539 q 688 1547 672 1539 q 716 1568 703 1554 q 738 1602 728 1583 l 787 1547 q 757 1493 777 1518 q 708 1454 736 1469 q 646 1440 680 1440 m 529 1108 q 412 1139 460 1108 q 342 1226 364 1171 q 329 1349 321 1281 l 422 1349 q 435 1267 422 1299 q 473 1220 448 1235 q 535 1206 498 1206 q 603 1224 576 1206 q 646 1275 631 1242 q 667 1349 661 1307 l 760 1349 q 730 1224 760 1278 q 648 1139 700 1169 q 529 1108 596 1108 z "},"Ặ":{"ha":867,"x_min":-57,"x_max":810,"o":"m -57 0 l 449 1038 l 623 1038 l 810 0 l 658 0 l 617 256 l 222 256 l 106 0 l -57 0 m 273 369 l 599 369 l 526 835 l 518 913 l 484 835 l 273 369 m 337 -339 q 278 -315 304 -339 q 252 -256 252 -290 q 284 -182 252 -214 q 359 -149 317 -149 q 423 -172 398 -149 q 448 -230 448 -195 q 415 -306 448 -274 q 337 -339 382 -339 m 538 1136 q 422 1167 469 1136 q 352 1252 374 1198 q 333 1377 329 1307 l 431 1377 q 463 1277 438 1310 q 543 1244 488 1244 q 610 1261 585 1244 q 650 1309 635 1278 q 675 1377 665 1339 l 770 1377 q 740 1258 770 1313 q 657 1169 709 1203 q 538 1136 604 1136 z "},"Ẹ":{"ha":779,"x_min":71,"x_max":740,"o":"m 71 0 l 204 1038 l 740 1038 l 733 918 l 340 923 l 298 586 l 593 590 l 582 466 l 283 476 l 236 115 l 704 125 l 692 0 l 71 0 m 354 -339 q 295 -315 322 -339 q 269 -256 269 -290 q 302 -182 269 -214 q 376 -149 334 -149 q 440 -172 415 -149 q 465 -230 465 -195 q 432 -306 465 -274 q 354 -339 399 -339 z "},"Ẻ":{"ha":779,"x_min":71,"x_max":740,"o":"m 71 0 l 204 1038 l 740 1038 l 733 918 l 340 923 l 298 586 l 593 590 l 582 466 l 283 476 l 236 115 l 704 125 l 692 0 l 71 0 m 458 1143 q 448 1172 451 1158 q 448 1206 445 1187 q 464 1249 451 1233 q 493 1276 477 1265 q 522 1301 509 1288 q 537 1336 534 1315 q 522 1379 540 1365 q 466 1393 503 1393 q 416 1386 442 1393 q 376 1371 390 1378 l 385 1464 q 445 1485 408 1478 q 510 1492 481 1492 q 630 1456 588 1492 q 665 1361 673 1419 q 643 1302 660 1325 q 605 1262 626 1278 q 563 1231 583 1246 q 539 1195 550 1220 q 533 1143 528 1170 l 458 1143 z "},"Ẽ":{"ha":779,"x_min":71,"x_max":759,"o":"m 71 0 l 204 1038 l 740 1038 l 733 918 l 340 923 l 298 586 l 593 590 l 582 466 l 283 476 l 236 115 l 704 125 l 692 0 l 71 0 m 609 1147 q 538 1163 571 1147 q 483 1203 506 1179 q 447 1234 463 1224 q 410 1244 431 1244 q 366 1230 385 1244 q 326 1182 347 1215 l 270 1246 q 308 1302 283 1275 q 365 1345 333 1328 q 427 1363 396 1363 q 492 1346 460 1363 q 549 1303 524 1330 q 583 1275 568 1283 q 613 1267 598 1267 q 650 1276 633 1267 q 680 1302 666 1285 q 705 1342 693 1319 l 759 1275 q 726 1212 748 1241 q 673 1165 703 1183 q 609 1147 643 1147 z "},"Ế":{"ha":779,"x_min":71,"x_max":988,"o":"m 71 0 l 204 1038 l 740 1038 l 733 918 l 340 923 l 298 586 l 593 590 l 582 466 l 283 476 l 236 115 l 704 125 l 692 0 l 71 0 m 318 1115 l 259 1167 l 486 1403 l 607 1403 l 738 1167 l 668 1120 l 528 1281 l 318 1115 m 754 1334 l 710 1385 l 917 1565 l 988 1487 q 948 1441 976 1465 q 884 1397 919 1418 q 814 1359 849 1376 q 754 1334 779 1343 z "},"Ề":{"ha":779,"x_min":71,"x_max":934,"o":"m 71 0 l 204 1038 l 740 1038 l 733 918 l 340 923 l 298 586 l 593 590 l 582 466 l 283 476 l 236 115 l 704 125 l 692 0 l 71 0 m 318 1115 l 259 1167 l 486 1403 l 607 1403 l 738 1167 l 668 1120 l 528 1281 l 318 1115 m 881 1294 q 827 1330 858 1308 q 765 1379 796 1352 q 710 1434 733 1406 q 678 1487 686 1463 l 761 1551 l 934 1338 l 881 1294 z "},"Ể":{"ha":779,"x_min":71,"x_max":942,"o":"m 71 0 l 204 1038 l 740 1038 l 733 918 l 340 923 l 298 586 l 593 590 l 582 466 l 283 476 l 236 115 l 704 125 l 692 0 l 71 0 m 746 1347 q 737 1374 740 1360 q 736 1405 733 1388 q 759 1454 740 1438 q 797 1484 778 1470 q 819 1525 816 1499 q 805 1564 822 1551 q 753 1577 788 1577 q 707 1570 732 1577 q 670 1556 683 1563 l 679 1642 q 734 1661 701 1655 q 794 1667 767 1667 q 903 1634 865 1667 q 936 1548 942 1601 q 918 1493 933 1515 q 883 1456 903 1471 q 843 1427 863 1440 q 820 1395 831 1418 q 815 1347 810 1372 l 746 1347 m 318 1115 l 259 1167 l 486 1403 l 607 1403 l 738 1167 l 668 1120 l 528 1281 l 318 1115 z "},"Ễ":{"ha":779,"x_min":71,"x_max":790,"o":"m 71 0 l 204 1038 l 740 1038 l 733 918 l 340 923 l 298 586 l 593 590 l 582 466 l 283 476 l 236 115 l 704 125 l 692 0 l 71 0 m 318 1115 l 259 1167 l 486 1403 l 607 1403 l 738 1167 l 668 1120 l 528 1281 l 318 1115 m 649 1467 q 587 1481 615 1467 q 538 1514 558 1494 q 507 1540 521 1531 q 475 1549 493 1549 q 428 1537 447 1549 q 392 1498 410 1524 l 343 1549 q 377 1597 355 1574 q 429 1634 399 1620 q 490 1649 458 1649 q 547 1634 519 1649 q 597 1598 575 1620 q 625 1574 613 1581 q 653 1567 638 1567 q 691 1575 675 1567 q 718 1597 706 1583 q 741 1630 731 1611 l 790 1575 q 760 1522 780 1547 q 711 1482 740 1497 q 649 1467 683 1467 z "},"Ệ":{"ha":779,"x_min":71,"x_max":740,"o":"m 71 0 l 204 1038 l 740 1038 l 733 918 l 340 923 l 298 586 l 593 590 l 582 466 l 283 476 l 236 115 l 704 125 l 692 0 l 71 0 m 354 -339 q 295 -315 322 -339 q 269 -256 269 -290 q 302 -182 269 -214 q 376 -149 334 -149 q 440 -172 415 -149 q 465 -230 465 -195 q 432 -306 465 -274 q 354 -339 399 -339 m 315 1127 l 256 1178 l 483 1423 l 603 1423 l 735 1178 l 665 1132 l 525 1292 l 315 1127 z "},"Ỉ":{"ha":407,"x_min":83,"x_max":479,"o":"m 83 0 l 217 1038 l 369 1038 l 235 0 l 83 0 m 264 1143 q 255 1172 258 1158 q 254 1206 251 1187 q 270 1249 258 1233 q 299 1276 283 1265 q 328 1301 315 1288 q 343 1336 340 1315 q 328 1379 347 1365 q 272 1393 310 1393 q 222 1386 249 1393 q 182 1371 196 1378 l 192 1464 q 251 1485 215 1478 q 317 1492 288 1492 q 436 1456 394 1492 q 471 1361 479 1419 q 449 1302 466 1325 q 411 1262 433 1278 q 369 1231 390 1246 q 345 1195 356 1220 q 339 1143 334 1170 l 264 1143 z "},"Ị":{"ha":407,"x_min":22,"x_max":369,"o":"m 83 0 l 217 1038 l 369 1038 l 235 0 l 83 0 m 107 -339 q 48 -315 74 -339 q 22 -256 22 -290 q 55 -182 22 -214 q 129 -149 87 -149 q 193 -172 168 -149 q 218 -230 218 -195 q 185 -306 218 -274 q 107 -339 152 -339 z "},"Ọ":{"ha":936,"x_min":74,"x_max":897,"o":"m 414 -11 q 225 48 301 -11 q 111 206 149 107 q 74 424 74 304 q 107 661 74 549 q 205 861 141 774 q 358 999 268 949 q 558 1049 447 1049 q 708 1014 644 1049 q 814 919 772 980 q 876 781 856 859 q 897 614 897 702 q 864 375 897 488 q 768 175 831 263 q 616 39 706 88 q 414 -11 526 -11 m 435 104 q 567 148 509 104 q 663 265 624 192 q 722 426 702 338 q 740 603 742 515 q 718 785 739 712 q 652 894 697 858 q 536 931 608 931 q 405 886 463 931 q 309 769 348 842 q 250 609 269 697 q 231 435 230 522 q 283 184 234 263 q 435 104 333 104 m 378 -339 q 319 -315 345 -339 q 293 -256 293 -290 q 325 -182 293 -214 q 400 -149 358 -149 q 464 -172 439 -149 q 489 -230 489 -195 q 456 -306 489 -274 q 378 -339 423 -339 z "},"Ỏ":{"ha":936,"x_min":74,"x_max":897,"o":"m 414 -11 q 225 48 301 -11 q 111 206 149 107 q 74 424 74 304 q 107 661 74 549 q 205 861 141 774 q 358 999 268 949 q 558 1049 447 1049 q 708 1014 644 1049 q 814 919 772 980 q 876 781 856 859 q 897 614 897 702 q 864 375 897 488 q 768 175 831 263 q 616 39 706 88 q 414 -11 526 -11 m 435 104 q 567 148 509 104 q 663 265 624 192 q 722 426 702 338 q 740 603 742 515 q 718 785 739 712 q 652 894 697 858 q 536 931 608 931 q 405 886 463 931 q 309 769 348 842 q 250 609 269 697 q 231 435 230 522 q 283 184 234 263 q 435 104 333 104 m 535 1144 q 525 1174 528 1159 q 525 1207 522 1188 q 541 1250 528 1234 q 570 1278 554 1266 q 599 1303 586 1290 q 614 1338 611 1316 q 599 1380 617 1366 q 543 1394 581 1394 q 493 1387 519 1394 q 453 1372 467 1380 l 463 1465 q 522 1486 485 1479 q 588 1493 558 1493 q 707 1457 665 1493 q 742 1363 750 1421 q 720 1303 737 1326 q 682 1264 703 1280 q 640 1232 660 1247 q 616 1197 627 1222 q 610 1144 605 1172 l 535 1144 z "},"Ố":{"ha":936,"x_min":74,"x_max":1065,"o":"m 414 -11 q 225 48 301 -11 q 111 206 149 107 q 74 424 74 304 q 107 661 74 549 q 205 861 141 774 q 358 999 268 949 q 558 1049 447 1049 q 708 1014 644 1049 q 814 919 772 980 q 876 781 856 859 q 897 614 897 702 q 864 375 897 488 q 768 175 831 263 q 616 39 706 88 q 414 -11 526 -11 m 435 104 q 567 148 509 104 q 663 265 624 192 q 722 426 702 338 q 740 603 742 515 q 718 785 739 712 q 652 894 697 858 q 536 931 608 931 q 405 886 463 931 q 309 769 348 842 q 250 609 269 697 q 231 435 230 522 q 283 184 234 263 q 435 104 333 104 m 395 1117 l 336 1168 l 563 1405 l 684 1405 l 815 1168 l 745 1122 l 605 1282 l 395 1117 m 831 1335 l 787 1387 l 994 1567 l 1065 1488 q 1025 1443 1053 1466 q 961 1398 997 1419 q 891 1361 926 1377 q 831 1335 856 1344 z "},"Ồ":{"ha":936,"x_min":74,"x_max":1011,"o":"m 414 -11 q 225 48 301 -11 q 111 206 149 107 q 74 424 74 304 q 107 661 74 549 q 205 861 141 774 q 358 999 268 949 q 558 1049 447 1049 q 708 1014 644 1049 q 814 919 772 980 q 876 781 856 859 q 897 614 897 702 q 864 375 897 488 q 768 175 831 263 q 616 39 706 88 q 414 -11 526 -11 m 435 104 q 567 148 509 104 q 663 265 624 192 q 722 426 702 338 q 740 603 742 515 q 718 785 739 712 q 652 894 697 858 q 536 931 608 931 q 405 886 463 931 q 309 769 348 842 q 250 609 269 697 q 231 435 230 522 q 283 184 234 263 q 435 104 333 104 m 395 1117 l 336 1168 l 563 1405 l 684 1405 l 815 1168 l 745 1122 l 605 1282 l 395 1117 m 958 1296 q 904 1331 935 1309 q 842 1381 873 1353 q 787 1436 810 1408 q 756 1488 763 1464 l 838 1552 l 1011 1340 l 958 1296 z "},"Ổ":{"ha":936,"x_min":74,"x_max":1019,"o":"m 414 -11 q 225 48 301 -11 q 111 206 149 107 q 74 424 74 304 q 107 661 74 549 q 205 861 141 774 q 358 999 268 949 q 558 1049 447 1049 q 708 1014 644 1049 q 814 919 772 980 q 876 781 856 859 q 897 614 897 702 q 864 375 897 488 q 768 175 831 263 q 616 39 706 88 q 414 -11 526 -11 m 435 104 q 567 148 509 104 q 663 265 624 192 q 722 426 702 338 q 740 603 742 515 q 718 785 739 712 q 652 894 697 858 q 536 931 608 931 q 405 886 463 931 q 309 769 348 842 q 250 609 269 697 q 231 435 230 522 q 283 184 234 263 q 435 104 333 104 m 823 1348 q 814 1375 817 1362 q 813 1406 810 1389 q 836 1456 817 1440 q 874 1486 856 1472 q 896 1526 893 1500 q 882 1566 899 1553 q 831 1578 865 1578 q 784 1572 809 1578 q 747 1558 760 1565 l 756 1643 q 811 1663 778 1656 q 871 1669 844 1669 q 981 1636 942 1669 q 1013 1549 1019 1603 q 995 1494 1010 1516 q 960 1457 980 1472 q 920 1428 940 1442 q 897 1397 908 1419 q 892 1348 887 1374 l 823 1348 m 395 1117 l 336 1168 l 563 1405 l 684 1405 l 815 1168 l 745 1122 l 605 1282 l 395 1117 z "},"Ỗ":{"ha":936,"x_min":74,"x_max":897,"o":"m 414 -11 q 225 48 301 -11 q 111 206 149 107 q 74 424 74 304 q 107 661 74 549 q 205 861 141 774 q 358 999 268 949 q 558 1049 447 1049 q 708 1014 644 1049 q 814 919 772 980 q 876 781 856 859 q 897 614 897 702 q 864 375 897 488 q 768 175 831 263 q 616 39 706 88 q 414 -11 526 -11 m 435 104 q 567 148 509 104 q 663 265 624 192 q 722 426 702 338 q 740 603 742 515 q 718 785 739 712 q 652 894 697 858 q 536 931 608 931 q 405 886 463 931 q 309 769 348 842 q 250 609 269 697 q 231 435 230 522 q 283 184 234 263 q 435 104 333 104 m 395 1117 l 336 1168 l 563 1405 l 684 1405 l 815 1168 l 745 1122 l 605 1282 l 395 1117 m 726 1469 q 664 1482 692 1469 q 615 1515 635 1495 q 584 1542 598 1533 q 552 1551 570 1551 q 505 1538 524 1551 q 469 1499 487 1526 l 420 1551 q 454 1599 432 1576 q 506 1636 476 1622 q 567 1650 535 1650 q 624 1636 596 1650 q 674 1599 652 1622 q 702 1576 690 1583 q 730 1569 715 1569 q 768 1576 752 1569 q 795 1598 783 1584 q 818 1631 808 1613 l 867 1576 q 837 1523 857 1548 q 789 1484 817 1499 q 726 1469 760 1469 z "},"Ộ":{"ha":936,"x_min":74,"x_max":897,"o":"m 414 -11 q 225 48 301 -11 q 111 206 149 107 q 74 424 74 304 q 107 661 74 549 q 205 861 141 774 q 358 999 268 949 q 558 1049 447 1049 q 708 1014 644 1049 q 814 919 772 980 q 876 781 856 859 q 897 614 897 702 q 864 375 897 488 q 768 175 831 263 q 616 39 706 88 q 414 -11 526 -11 m 435 104 q 567 148 509 104 q 663 265 624 192 q 722 426 702 338 q 740 603 742 515 q 718 785 739 712 q 652 894 697 858 q 536 931 608 931 q 405 886 463 931 q 309 769 348 842 q 250 609 269 697 q 231 435 230 522 q 283 184 234 263 q 435 104 333 104 m 378 -339 q 319 -315 345 -339 q 293 -256 293 -290 q 325 -182 293 -214 q 400 -149 358 -149 q 464 -172 439 -149 q 489 -230 489 -195 q 456 -306 489 -274 q 378 -339 423 -339 m 392 1128 l 333 1180 l 560 1424 l 681 1424 l 812 1180 l 742 1133 l 602 1293 l 392 1128 z "},"Ớ":{"ha":937,"x_min":74,"x_max":984,"o":"m 651 917 l 665 1018 q 766 1032 728 1018 q 825 1070 805 1046 q 853 1125 846 1094 q 861 1190 861 1156 q 863 1203 861 1197 q 863 1213 864 1209 l 981 1213 q 983 1198 983 1205 q 984 1183 984 1190 q 942 1038 984 1097 q 826 948 901 978 q 651 917 751 917 m 414 -11 q 225 48 301 -11 q 111 206 149 107 q 74 424 74 304 q 107 661 74 549 q 205 861 141 774 q 358 999 268 949 q 558 1049 447 1049 q 708 1014 644 1049 q 814 919 772 980 q 876 781 856 859 q 897 614 897 702 q 864 375 897 488 q 768 175 831 263 q 616 39 706 88 q 414 -11 526 -11 m 435 104 q 567 148 509 104 q 663 265 624 192 q 722 426 702 338 q 740 603 742 515 q 718 785 739 712 q 652 894 697 858 q 536 931 608 931 q 405 886 463 931 q 309 769 348 842 q 250 609 269 697 q 231 435 230 522 q 283 184 234 263 q 435 104 333 104 m 519 1135 l 459 1185 l 672 1463 l 781 1363 q 748 1318 771 1344 q 694 1263 724 1292 q 631 1208 663 1234 q 569 1161 598 1181 q 519 1135 540 1142 z "},"Ờ":{"ha":937,"x_min":74,"x_max":984,"o":"m 651 917 l 665 1018 q 766 1032 728 1018 q 825 1070 805 1046 q 853 1125 846 1094 q 861 1190 861 1156 q 863 1203 861 1197 q 863 1213 864 1209 l 981 1213 q 983 1198 983 1205 q 984 1183 984 1190 q 942 1038 984 1097 q 826 948 901 978 q 651 917 751 917 m 414 -11 q 225 48 301 -11 q 111 206 149 107 q 74 424 74 304 q 107 661 74 549 q 205 861 141 774 q 358 999 268 949 q 558 1049 447 1049 q 708 1014 644 1049 q 814 919 772 980 q 876 781 856 859 q 897 614 897 702 q 864 375 897 488 q 768 175 831 263 q 616 39 706 88 q 414 -11 526 -11 m 435 104 q 567 148 509 104 q 663 265 624 192 q 722 426 702 338 q 740 603 742 515 q 718 785 739 712 q 652 894 697 858 q 536 931 608 931 q 405 886 463 931 q 309 769 348 842 q 250 609 269 697 q 231 435 230 522 q 283 184 234 263 q 435 104 333 104 m 603 1135 q 542 1172 579 1144 q 467 1236 506 1200 q 398 1306 428 1272 q 354 1363 367 1340 l 464 1463 l 665 1185 l 603 1135 z "},"Ở":{"ha":937,"x_min":74,"x_max":984,"o":"m 651 917 l 665 1018 q 766 1032 728 1018 q 825 1070 805 1046 q 853 1125 846 1094 q 861 1190 861 1156 q 863 1203 861 1197 q 863 1213 864 1209 l 981 1213 q 983 1198 983 1205 q 984 1183 984 1190 q 942 1038 984 1097 q 826 948 901 978 q 651 917 751 917 m 414 -11 q 225 48 301 -11 q 111 206 149 107 q 74 424 74 304 q 107 661 74 549 q 205 861 141 774 q 358 999 268 949 q 558 1049 447 1049 q 708 1014 644 1049 q 814 919 772 980 q 876 781 856 859 q 897 614 897 702 q 864 375 897 488 q 768 175 831 263 q 616 39 706 88 q 414 -11 526 -11 m 435 104 q 567 148 509 104 q 663 265 624 192 q 722 426 702 338 q 740 603 742 515 q 718 785 739 712 q 652 894 697 858 q 536 931 608 931 q 405 886 463 931 q 309 769 348 842 q 250 609 269 697 q 231 435 230 522 q 283 184 234 263 q 435 104 333 104 m 496 1143 q 486 1172 490 1158 q 486 1206 483 1187 q 502 1249 490 1233 q 531 1276 515 1265 q 560 1301 547 1288 q 575 1336 572 1315 q 560 1379 578 1365 q 504 1393 542 1393 q 454 1386 481 1393 q 414 1371 428 1378 l 424 1464 q 483 1485 447 1478 q 549 1492 519 1492 q 668 1456 626 1492 q 703 1361 711 1419 q 681 1302 698 1325 q 643 1262 665 1278 q 601 1231 622 1246 q 577 1195 588 1220 q 571 1143 566 1170 l 496 1143 z "},"Ỡ":{"ha":937,"x_min":74,"x_max":984,"o":"m 651 917 l 665 1018 q 766 1032 728 1018 q 825 1070 805 1046 q 853 1125 846 1094 q 861 1190 861 1156 q 863 1203 861 1197 q 863 1213 864 1209 l 981 1213 q 983 1198 983 1205 q 984 1183 984 1190 q 942 1038 984 1097 q 826 948 901 978 q 651 917 751 917 m 414 -11 q 225 48 301 -11 q 111 206 149 107 q 74 424 74 304 q 107 661 74 549 q 205 861 141 774 q 358 999 268 949 q 558 1049 447 1049 q 708 1014 644 1049 q 814 919 772 980 q 876 781 856 859 q 897 614 897 702 q 864 375 897 488 q 768 175 831 263 q 616 39 706 88 q 414 -11 526 -11 m 435 104 q 567 148 509 104 q 663 265 624 192 q 722 426 702 338 q 740 603 742 515 q 718 785 739 712 q 652 894 697 858 q 536 931 608 931 q 405 886 463 931 q 309 769 348 842 q 250 609 269 697 q 231 435 230 522 q 283 184 234 263 q 435 104 333 104 m 647 1147 q 576 1163 609 1147 q 521 1203 544 1179 q 485 1234 501 1224 q 449 1244 469 1244 q 404 1230 424 1244 q 364 1182 385 1215 l 308 1246 q 347 1302 322 1275 q 403 1345 372 1328 q 465 1363 434 1363 q 530 1346 498 1363 q 588 1303 563 1330 q 621 1275 606 1283 q 651 1267 636 1267 q 688 1276 672 1267 q 718 1302 704 1285 q 743 1342 731 1319 l 797 1275 q 764 1212 786 1241 q 711 1165 742 1183 q 647 1147 681 1147 z "},"Ợ":{"ha":937,"x_min":74,"x_max":984,"o":"m 651 917 l 665 1018 q 766 1032 728 1018 q 825 1070 805 1046 q 853 1125 846 1094 q 861 1190 861 1156 q 863 1203 861 1197 q 863 1213 864 1209 l 981 1213 q 983 1198 983 1205 q 984 1183 984 1190 q 942 1038 984 1097 q 826 948 901 978 q 651 917 751 917 m 414 -11 q 225 48 301 -11 q 111 206 149 107 q 74 424 74 304 q 107 661 74 549 q 205 861 141 774 q 358 999 268 949 q 558 1049 447 1049 q 708 1014 644 1049 q 814 919 772 980 q 876 781 856 859 q 897 614 897 702 q 864 375 897 488 q 768 175 831 263 q 616 39 706 88 q 414 -11 526 -11 m 435 104 q 567 148 509 104 q 663 265 624 192 q 722 426 702 338 q 740 603 742 515 q 718 785 739 712 q 652 894 697 858 q 536 931 608 931 q 405 886 463 931 q 309 769 348 842 q 250 609 269 697 q 231 435 230 522 q 283 184 234 263 q 435 104 333 104 m 378 -339 q 319 -315 345 -339 q 293 -256 293 -290 q 325 -182 293 -214 q 400 -149 358 -149 q 464 -172 439 -149 q 489 -230 489 -195 q 456 -306 489 -274 q 378 -339 423 -339 z "},"Ụ":{"ha":933,"x_min":95,"x_max":910,"o":"m 410 -11 q 175 70 256 -11 q 95 297 95 151 q 98 336 95 313 q 105 403 100 360 l 185 1038 l 338 1038 l 259 428 q 253 360 255 391 q 251 303 251 328 q 297 159 251 206 q 433 111 344 111 q 558 147 508 111 q 639 255 608 183 q 684 435 669 326 l 761 1038 l 910 1038 l 831 422 q 802 281 820 344 q 758 170 784 217 q 619 32 705 75 q 410 -11 533 -11 m 370 -339 q 311 -315 338 -339 q 285 -256 285 -290 q 318 -182 285 -214 q 392 -149 350 -149 q 456 -172 431 -149 q 481 -230 481 -195 q 448 -306 481 -274 q 370 -339 415 -339 z "},"Ủ":{"ha":933,"x_min":95,"x_max":910,"o":"m 410 -11 q 175 70 256 -11 q 95 297 95 151 q 98 336 95 313 q 105 403 100 360 l 185 1038 l 338 1038 l 259 428 q 253 360 255 391 q 251 303 251 328 q 297 159 251 206 q 433 111 344 111 q 558 147 508 111 q 639 255 608 183 q 684 435 669 326 l 761 1038 l 910 1038 l 831 422 q 802 281 820 344 q 758 170 784 217 q 619 32 705 75 q 410 -11 533 -11 m 515 1144 q 506 1174 509 1159 q 506 1207 503 1188 q 522 1250 509 1234 q 551 1278 535 1266 q 579 1303 567 1290 q 594 1338 592 1316 q 580 1380 598 1366 q 524 1394 561 1394 q 474 1387 500 1394 q 433 1372 447 1380 l 443 1465 q 502 1486 466 1479 q 568 1493 539 1493 q 688 1457 645 1493 q 722 1363 731 1421 q 701 1303 717 1326 q 663 1264 684 1280 q 621 1232 641 1247 q 597 1197 608 1222 q 590 1144 585 1172 l 515 1144 z "},"Ứ":{"ha":933,"x_min":95,"x_max":1133,"o":"m 410 -11 q 175 70 256 -11 q 95 297 95 151 q 98 336 95 313 q 105 403 100 360 l 185 1038 l 338 1038 l 259 428 q 253 360 255 391 q 251 303 251 328 q 297 159 251 206 q 433 111 344 111 q 558 147 508 111 q 639 255 608 183 q 684 435 669 326 l 761 1038 l 910 1038 l 831 422 q 802 281 820 344 q 758 170 784 217 q 619 32 705 75 q 410 -11 533 -11 m 773 935 l 787 1037 q 892 1048 849 1037 q 961 1080 935 1059 q 999 1128 988 1100 q 1011 1190 1011 1156 q 1013 1203 1011 1197 q 1013 1213 1014 1209 l 1131 1213 q 1133 1198 1132 1205 q 1133 1183 1133 1190 q 1085 1042 1133 1097 q 955 961 1036 988 q 773 935 873 935 m 539 1136 l 478 1187 l 691 1464 l 800 1364 q 767 1319 790 1346 q 713 1264 744 1293 q 650 1209 683 1235 q 588 1163 617 1183 q 539 1136 559 1143 z "},"Ừ":{"ha":933,"x_min":95,"x_max":1133,"o":"m 410 -11 q 175 70 256 -11 q 95 297 95 151 q 98 336 95 313 q 105 403 100 360 l 185 1038 l 338 1038 l 259 428 q 253 360 255 391 q 251 303 251 328 q 297 159 251 206 q 433 111 344 111 q 558 147 508 111 q 639 255 608 183 q 684 435 669 326 l 761 1038 l 910 1038 l 831 422 q 802 281 820 344 q 758 170 784 217 q 619 32 705 75 q 410 -11 533 -11 m 773 935 l 787 1037 q 892 1048 849 1037 q 961 1080 935 1059 q 999 1128 988 1100 q 1011 1190 1011 1156 q 1013 1203 1011 1197 q 1013 1213 1014 1209 l 1131 1213 q 1133 1198 1132 1205 q 1133 1183 1133 1190 q 1085 1042 1133 1097 q 955 961 1036 988 q 773 935 873 935 m 623 1136 q 562 1174 599 1146 q 486 1238 525 1201 q 417 1308 448 1274 q 374 1364 386 1342 l 483 1464 l 684 1187 l 623 1136 z "},"Ử":{"ha":933,"x_min":95,"x_max":1133,"o":"m 410 -11 q 175 70 256 -11 q 95 297 95 151 q 98 336 95 313 q 105 403 100 360 l 185 1038 l 338 1038 l 259 428 q 253 360 255 391 q 251 303 251 328 q 297 159 251 206 q 433 111 344 111 q 558 147 508 111 q 639 255 608 183 q 684 435 669 326 l 761 1038 l 910 1038 l 831 422 q 802 281 820 344 q 758 170 784 217 q 619 32 705 75 q 410 -11 533 -11 m 773 935 l 787 1037 q 892 1048 849 1037 q 961 1080 935 1059 q 999 1128 988 1100 q 1011 1190 1011 1156 q 1013 1203 1011 1197 q 1013 1213 1014 1209 l 1131 1213 q 1133 1198 1132 1205 q 1133 1183 1133 1190 q 1085 1042 1133 1097 q 955 961 1036 988 q 773 935 873 935 m 515 1144 q 506 1174 509 1159 q 506 1207 503 1188 q 522 1250 509 1234 q 551 1278 535 1266 q 579 1303 567 1290 q 594 1338 592 1316 q 580 1380 598 1366 q 524 1394 561 1394 q 474 1387 500 1394 q 433 1372 447 1380 l 443 1465 q 502 1486 466 1479 q 568 1493 539 1493 q 688 1457 645 1493 q 722 1363 731 1421 q 701 1303 717 1326 q 663 1264 684 1280 q 621 1232 641 1247 q 597 1197 608 1222 q 590 1144 585 1172 l 515 1144 z "},"Ữ":{"ha":933,"x_min":95,"x_max":1133,"o":"m 410 -11 q 175 70 256 -11 q 95 297 95 151 q 98 336 95 313 q 105 403 100 360 l 185 1038 l 338 1038 l 259 428 q 253 360 255 391 q 251 303 251 328 q 297 159 251 206 q 433 111 344 111 q 558 147 508 111 q 639 255 608 183 q 684 435 669 326 l 761 1038 l 910 1038 l 831 422 q 802 281 820 344 q 758 170 784 217 q 619 32 705 75 q 410 -11 533 -11 m 773 935 l 787 1037 q 892 1048 849 1037 q 961 1080 935 1059 q 999 1128 988 1100 q 1011 1190 1011 1156 q 1013 1203 1011 1197 q 1013 1213 1014 1209 l 1131 1213 q 1133 1198 1132 1205 q 1133 1183 1133 1190 q 1085 1042 1133 1097 q 955 961 1036 988 q 773 935 873 935 m 667 1149 q 596 1165 628 1149 q 540 1204 563 1181 q 505 1235 521 1225 q 468 1246 489 1246 q 424 1231 443 1246 q 383 1183 404 1216 l 328 1247 q 366 1303 341 1276 q 422 1347 391 1330 q 485 1364 453 1364 q 550 1348 517 1364 q 607 1304 582 1331 q 641 1276 626 1285 q 671 1268 656 1268 q 707 1277 691 1268 q 737 1303 724 1287 q 763 1343 751 1320 l 817 1276 q 783 1213 806 1242 q 731 1166 761 1184 q 667 1149 701 1149 z "},"Ự":{"ha":933,"x_min":95,"x_max":1133,"o":"m 410 -11 q 175 70 256 -11 q 95 297 95 151 q 98 336 95 313 q 105 403 100 360 l 185 1038 l 338 1038 l 259 428 q 253 360 255 391 q 251 303 251 328 q 297 159 251 206 q 433 111 344 111 q 558 147 508 111 q 639 255 608 183 q 684 435 669 326 l 761 1038 l 910 1038 l 831 422 q 802 281 820 344 q 758 170 784 217 q 619 32 705 75 q 410 -11 533 -11 m 773 935 l 787 1037 q 892 1048 849 1037 q 961 1080 935 1059 q 999 1128 988 1100 q 1011 1190 1011 1156 q 1013 1203 1011 1197 q 1013 1213 1014 1209 l 1131 1213 q 1133 1198 1132 1205 q 1133 1183 1133 1190 q 1085 1042 1133 1097 q 955 961 1036 988 q 773 935 873 935 m 370 -339 q 311 -315 338 -339 q 285 -256 285 -290 q 318 -182 285 -214 q 392 -149 350 -149 q 456 -172 431 -149 q 481 -230 481 -195 q 448 -306 481 -274 q 370 -339 415 -339 z "},"Ỳ":{"ha":744,"x_min":57,"x_max":852,"o":"m 251 0 l 303 400 l 57 1038 l 217 1038 l 374 587 l 395 529 l 422 587 l 688 1038 l 852 1038 l 449 400 l 397 0 l 251 0 m 536 1136 q 475 1174 512 1146 q 400 1238 438 1201 q 330 1308 361 1274 q 287 1364 299 1342 l 397 1464 l 597 1187 l 536 1136 z "},"Ỵ":{"ha":744,"x_min":57,"x_max":852,"o":"m 251 0 l 303 400 l 57 1038 l 217 1038 l 374 587 l 395 529 l 422 587 l 688 1038 l 852 1038 l 449 400 l 397 0 l 251 0 m 276 -339 q 217 -315 243 -339 q 191 -256 191 -290 q 223 -182 191 -214 q 298 -149 256 -149 q 362 -172 337 -149 q 387 -230 387 -195 q 354 -306 387 -274 q 276 -339 321 -339 z "},"Ỷ":{"ha":744,"x_min":57,"x_max":852,"o":"m 251 0 l 303 400 l 57 1038 l 217 1038 l 374 587 l 395 529 l 422 587 l 688 1038 l 852 1038 l 449 400 l 397 0 l 251 0 m 428 1144 q 419 1174 422 1159 q 419 1207 416 1188 q 435 1250 422 1234 q 464 1278 448 1266 q 492 1303 480 1290 q 508 1338 505 1316 q 493 1380 511 1366 q 437 1394 474 1394 q 387 1387 413 1394 q 347 1372 360 1380 l 356 1465 q 416 1486 379 1479 q 481 1493 452 1493 q 601 1457 558 1493 q 635 1363 644 1421 q 614 1303 631 1326 q 576 1264 597 1280 q 534 1232 554 1247 q 510 1197 521 1222 q 503 1144 499 1172 l 428 1144 z "},"Ỹ":{"ha":744,"x_min":57,"x_max":852,"o":"m 251 0 l 303 400 l 57 1038 l 217 1038 l 374 587 l 395 529 l 422 587 l 688 1038 l 852 1038 l 449 400 l 397 0 l 251 0 m 580 1149 q 509 1165 542 1149 q 453 1204 476 1181 q 418 1235 434 1225 q 381 1246 402 1246 q 337 1231 356 1246 q 297 1183 317 1216 l 241 1247 q 279 1303 254 1276 q 335 1347 304 1330 q 398 1364 367 1364 q 463 1348 431 1364 q 520 1304 495 1331 q 554 1276 539 1285 q 584 1268 569 1268 q 620 1277 604 1268 q 650 1303 637 1287 q 676 1343 664 1320 l 730 1276 q 697 1213 719 1242 q 644 1166 674 1184 q 580 1149 614 1149 z "},"Δ":{"ha":954,"x_min":-24,"x_max":901,"o":"m -17 0 l -24 15 l 507 1022 l 529 1022 l 901 18 l 890 0 l -17 0 m 205 128 l 698 128 l 501 708 l 205 128 z "},"δ":{"ha":954,"x_min":-24,"x_max":901,"o":"m -17 0 l -24 15 l 507 1022 l 529 1022 l 901 18 l 890 0 l -17 0 m 205 128 l 698 128 l 501 708 l 205 128 z "},"Ω":{"ha":1125,"x_min":40,"x_max":1042,"o":"m 40 0 l 55 114 l 297 114 q 223 194 257 147 q 163 298 188 242 q 122 412 137 353 q 108 524 108 470 q 167 808 108 691 q 340 985 227 924 q 612 1047 453 1047 q 835 992 738 1047 q 988 841 933 937 q 1042 622 1042 745 q 1023 485 1042 557 q 969 345 1003 414 q 889 218 935 277 q 792 119 844 160 l 1033 119 l 1023 0 l 630 0 l 611 100 q 725 186 674 133 q 813 308 776 240 q 870 451 850 376 q 890 601 890 526 q 854 772 890 699 q 752 887 818 846 q 597 928 687 928 q 406 876 483 928 q 292 732 330 824 q 254 516 254 639 q 268 394 254 456 q 308 275 282 333 q 370 173 334 218 q 449 100 406 127 l 417 0 l 40 0 z "},"ω":{"ha":1125,"x_min":40,"x_max":1042,"o":"m 40 0 l 55 114 l 297 114 q 223 194 257 147 q 163 298 188 242 q 122 412 137 353 q 108 524 108 470 q 167 808 108 691 q 340 985 227 924 q 612 1047 453 1047 q 835 992 738 1047 q 988 841 933 937 q 1042 622 1042 745 q 1023 485 1042 557 q 969 345 1003 414 q 889 218 935 277 q 792 119 844 160 l 1033 119 l 1023 0 l 630 0 l 611 100 q 725 186 674 133 q 813 308 776 240 q 870 451 850 376 q 890 601 890 526 q 854 772 890 699 q 752 887 818 846 q 597 928 687 928 q 406 876 483 928 q 292 732 330 824 q 254 516 254 639 q 268 394 254 456 q 308 275 282 333 q 370 173 334 218 q 449 100 406 127 l 417 0 l 40 0 z "},"Ω":{"ha":1147,"x_min":40,"x_max":1042,"o":"m 40 0 l 55 114 l 297 114 q 223 194 257 147 q 163 298 188 242 q 122 412 137 353 q 108 524 108 470 q 167 808 108 691 q 340 985 227 924 q 612 1047 453 1047 q 835 992 738 1047 q 988 841 933 937 q 1042 622 1042 745 q 1023 485 1042 557 q 969 345 1003 414 q 889 218 935 277 q 792 119 844 160 l 1033 119 l 1023 0 l 630 0 l 611 100 q 725 186 674 133 q 813 308 776 240 q 870 451 850 376 q 890 601 890 526 q 854 772 890 699 q 752 887 818 846 q 597 928 687 928 q 406 876 483 928 q 292 732 330 824 q 254 516 254 639 q 268 394 254 456 q 308 275 282 333 q 370 173 334 218 q 449 100 406 127 l 417 0 l 40 0 z "},"µ":{"ha":925,"x_min":74,"x_max":861,"o":"m 74 -253 l 194 572 q 197 607 197 590 q 193 637 197 625 q 180 649 190 649 q 148 640 163 649 q 117 614 133 631 l 75 697 q 114 735 87 715 q 179 769 142 755 q 257 783 217 783 q 332 751 304 783 q 356 665 359 719 q 350 613 354 650 q 339 525 345 576 q 325 419 333 474 q 311 311 318 364 q 299 219 304 259 q 327 139 299 163 q 399 115 355 115 q 468 133 436 115 q 527 177 501 150 q 572 234 553 204 l 644 774 l 792 774 q 756 489 771 603 q 732 305 741 374 q 718 200 722 235 q 714 152 714 165 q 721 121 714 133 q 738 110 728 110 q 775 122 756 110 q 817 159 794 133 l 861 83 q 820 42 847 65 q 759 3 794 19 q 683 -12 724 -12 q 608 11 637 -12 q 574 83 579 35 q 516 31 544 53 q 454 -2 488 9 q 368 -13 419 -13 q 306 2 341 -12 q 260 38 272 16 l 216 -253 l 74 -253 z "},"ℓ":{"ha":873,"x_min":-3,"x_max":770,"o":"m 131 26 l -3 106 q 195 250 101 171 q 367 417 289 330 q 504 594 446 504 q 593 770 562 683 q 624 935 625 857 q 617 980 624 956 q 589 1005 610 1005 q 520 963 556 1005 q 453 851 485 921 q 394 694 420 781 q 353 517 368 607 q 338 345 338 426 q 344 248 338 291 q 365 174 351 204 q 399 128 378 144 q 444 112 419 112 q 513 141 481 112 q 572 216 545 169 q 619 316 599 263 l 754 281 q 712 190 739 241 q 647 92 685 140 q 555 13 608 44 q 434 -19 502 -19 q 342 4 385 -19 q 265 73 299 26 q 213 191 232 119 q 194 360 194 263 q 214 572 194 464 q 270 781 233 681 q 359 959 307 881 q 475 1084 410 1038 q 616 1131 540 1131 q 732 1077 694 1131 q 770 938 770 1023 q 718 690 770 813 q 577 450 667 567 q 373 227 488 333 q 131 26 258 120 z "},"a":{"ha":790,"x_min":54,"x_max":734,"o":"m 267 -11 q 107 67 160 -11 q 54 281 54 145 q 85 475 54 384 q 174 635 116 565 q 313 744 232 704 q 493 783 393 783 q 571 776 528 783 q 649 760 614 769 l 734 783 l 627 0 l 494 0 l 505 135 q 402 31 463 74 q 267 -11 342 -11 m 301 101 q 364 116 333 101 q 421 157 394 131 q 473 215 449 182 q 516 283 497 248 l 570 665 q 474 681 525 681 q 327 621 387 681 q 238 473 267 561 q 209 298 209 385 q 217 204 209 249 q 244 130 224 159 q 301 101 264 101 z "},"b":{"ha":803,"x_min":56,"x_max":742,"o":"m 297 -11 q 218 -3 261 -11 q 140 14 175 4 l 56 -9 l 204 1110 l 348 1110 l 307 759 l 284 639 q 351 712 313 679 q 434 764 390 744 q 529 783 479 783 q 689 705 636 783 q 742 492 742 626 q 693 259 742 373 q 605 120 660 181 q 471 24 549 59 q 297 -11 394 -11 m 317 94 q 465 153 403 94 q 556 300 525 212 q 586 476 586 388 q 567 615 586 558 q 495 671 547 671 q 432 654 464 671 q 370 610 400 637 q 315 551 340 583 q 272 489 290 519 l 221 108 q 317 94 265 94 z "},"c":{"ha":619,"x_min":57,"x_max":608,"o":"m 317 -11 q 174 26 232 -11 q 86 131 116 63 q 57 295 57 200 q 104 526 57 411 q 241 711 151 639 q 455 783 332 783 q 511 781 483 783 q 565 772 540 778 q 608 758 590 767 l 569 624 q 533 649 553 638 q 489 665 513 659 q 441 670 466 670 q 386 659 413 670 q 332 625 358 647 q 244 497 278 578 q 210 313 210 415 q 243 151 210 200 q 344 102 276 102 q 430 125 388 102 q 519 194 473 147 l 565 115 q 505 60 547 89 q 411 10 462 31 q 317 -11 360 -11 z "},"d":{"ha":800,"x_min":53,"x_max":783,"o":"m 266 -11 q 106 67 159 -11 q 53 281 53 145 q 103 516 53 399 q 191 653 135 593 q 324 749 247 714 q 498 783 401 783 q 541 782 518 783 q 588 775 563 780 l 634 1110 l 783 1110 l 634 0 l 499 0 l 510 140 q 444 63 482 97 q 361 9 406 29 q 266 -11 316 -11 m 299 102 q 362 119 331 102 q 424 163 394 135 q 478 223 453 191 q 522 287 503 256 l 574 664 q 478 681 530 681 q 331 621 392 681 q 239 473 269 561 q 208 298 208 385 q 217 200 208 244 q 245 129 225 156 q 299 102 265 102 z "},"e":{"ha":710,"x_min":56,"x_max":662,"o":"m 328 -11 q 175 31 236 -11 q 85 143 114 74 q 57 294 56 212 q 113 542 58 427 q 258 719 165 654 q 467 783 350 783 q 574 759 531 783 q 640 696 617 735 q 662 613 662 657 q 623 481 662 538 q 520 382 585 423 q 375 317 455 341 q 215 284 296 292 q 215 273 215 278 q 215 262 215 267 q 248 148 216 193 q 351 103 279 103 q 425 116 387 103 q 501 153 463 128 q 575 211 540 177 l 616 130 q 567 83 600 108 q 493 37 535 58 q 408 2 451 15 q 328 -11 365 -11 m 217 382 q 317 401 265 383 q 413 449 368 419 q 485 517 458 478 q 513 599 513 556 q 493 660 513 642 q 434 678 473 678 q 378 666 404 678 q 328 631 351 655 q 252 515 281 584 q 217 382 224 445 z "},"f":{"ha":478,"x_min":93,"x_max":609,"o":"m 96 0 l 185 660 l 93 660 l 114 774 l 201 774 l 210 838 q 232 930 218 888 q 267 1006 246 972 q 365 1104 305 1069 q 505 1139 425 1139 q 561 1135 535 1139 q 609 1122 588 1131 l 573 1004 q 540 1023 560 1016 q 490 1028 521 1029 q 407 986 440 1028 q 365 876 374 944 l 350 774 l 490 774 l 481 660 l 335 660 l 245 0 l 96 0 z "},"g":{"ha":797,"x_min":53,"x_max":740,"o":"m 265 -344 q 197 -340 235 -344 q 128 -330 160 -336 q 83 -319 97 -324 l 116 -196 q 166 -216 137 -206 q 228 -231 194 -225 q 294 -236 261 -236 q 416 -193 374 -236 q 474 -65 458 -150 l 508 135 q 403 32 465 74 q 266 -11 340 -11 q 106 67 159 -11 q 53 281 53 145 q 103 516 53 399 q 191 653 135 593 q 324 749 247 714 q 498 783 401 783 q 576 776 533 783 q 654 760 618 769 l 740 783 l 626 -56 q 601 -150 619 -108 q 554 -225 583 -192 q 421 -316 497 -289 q 265 -344 345 -344 m 299 102 q 360 117 330 102 q 420 157 391 131 q 474 215 449 183 q 519 283 499 247 l 573 666 q 528 677 551 674 q 478 681 504 681 q 331 621 392 681 q 239 473 269 561 q 208 298 208 385 q 217 200 208 244 q 245 129 225 156 q 299 102 265 102 z "},"h":{"ha":825,"x_min":59,"x_max":739,"o":"m 59 0 l 201 1110 l 351 1110 l 312 776 l 287 619 q 424 738 346 692 q 583 783 503 783 q 700 738 661 783 q 739 586 739 692 q 737 550 739 574 q 730 490 735 526 q 719 404 726 453 q 704 293 713 355 q 684 159 695 232 q 660 0 674 85 l 509 0 q 522 95 516 53 q 534 175 528 138 q 544 247 539 213 q 555 317 549 282 q 566 392 560 353 q 581 504 576 460 q 585 574 585 548 q 569 635 585 619 q 517 651 553 651 q 436 625 483 651 q 345 560 389 598 q 274 487 301 522 l 208 0 l 59 0 z "},"i":{"ha":405,"x_min":80,"x_max":402,"o":"m 80 0 l 185 774 l 335 774 l 230 0 l 80 0 m 290 926 q 232 951 258 926 q 207 1009 207 975 q 239 1083 207 1051 q 313 1115 270 1115 q 377 1092 351 1115 q 402 1035 402 1069 q 369 959 402 991 q 290 926 335 926 z "},"j":{"ha":403,"x_min":-160,"x_max":393,"o":"m -65 -350 q -118 -344 -94 -350 q -160 -324 -142 -337 l -122 -242 q -105 -248 -116 -246 q -87 -251 -94 -251 q -12 -227 -42 -251 q 36 -161 17 -203 q 65 -66 54 -119 q 85 47 76 -12 l 183 774 l 333 774 l 229 2 q 178 -175 216 -95 q 80 -303 140 -256 q -65 -350 19 -350 m 281 897 q 223 921 249 897 q 198 979 198 945 q 230 1053 198 1021 q 303 1085 261 1085 q 368 1063 342 1085 q 393 1005 393 1040 q 360 929 393 961 q 281 897 326 897 z "},"k":{"ha":726,"x_min":59,"x_max":730,"o":"m 59 0 l 201 1110 l 351 1110 l 208 0 l 59 0 m 517 2 l 288 430 q 413 522 353 466 q 517 642 472 577 q 585 774 563 708 l 730 774 q 699 667 725 721 q 633 564 673 613 q 544 475 592 515 q 449 410 497 435 l 690 2 l 517 2 z "},"l":{"ha":405,"x_min":81,"x_max":381,"o":"m 81 2 l 231 1110 l 381 1110 l 231 2 l 81 2 z "},"m":{"ha":1222,"x_min":56,"x_max":1137,"o":"m 56 2 l 160 774 l 304 774 l 291 630 q 418 741 347 699 q 563 783 490 783 q 669 750 631 783 q 716 640 708 716 q 842 744 772 705 q 981 783 911 783 q 1099 738 1060 783 q 1137 586 1137 692 q 1130 502 1137 562 q 1109 348 1123 443 q 1088 196 1099 274 q 1058 2 1076 117 l 908 2 q 916 65 912 34 q 926 129 921 96 q 936 201 931 163 q 949 287 942 240 q 964 392 956 334 q 978 504 974 460 q 983 574 983 548 q 967 635 983 619 q 914 651 951 651 q 817 615 873 651 q 715 522 762 578 q 707 459 712 495 q 696 380 703 424 q 685 303 690 339 q 675 232 680 267 q 665 161 670 197 q 653 86 659 125 q 641 2 648 47 l 491 2 q 499 59 493 18 q 513 156 505 100 q 530 275 521 213 q 547 394 539 337 q 560 506 554 457 q 565 574 565 556 q 549 635 565 619 q 497 651 533 651 q 442 636 473 651 q 380 598 412 622 q 319 545 347 574 q 273 489 292 516 l 206 2 l 56 2 z "},"n":{"ha":824,"x_min":55,"x_max":739,"o":"m 55 0 l 160 774 l 303 774 l 290 624 q 426 739 349 695 q 582 783 503 783 q 700 738 660 783 q 739 586 739 692 q 736 538 739 570 q 726 459 733 506 q 711 348 720 411 q 706 309 709 331 q 699 259 703 288 q 690 193 695 231 q 676 109 684 156 q 659 0 669 61 l 508 0 q 518 67 511 21 q 535 184 524 113 q 559 348 545 254 q 578 490 572 435 q 584 574 584 544 q 568 635 584 619 q 516 651 553 651 q 456 636 490 651 q 388 595 422 620 q 322 540 353 569 q 272 484 292 511 l 205 0 l 55 0 z "},"o":{"ha":774,"x_min":58,"x_max":714,"o":"m 325 -11 q 177 28 236 -11 q 88 140 117 67 q 58 313 58 213 q 108 544 58 434 q 248 717 158 651 q 453 783 339 783 q 599 745 541 783 q 685 635 656 707 q 714 462 714 563 q 665 231 714 340 q 528 55 617 122 q 325 -11 439 -11 m 348 97 q 442 130 402 97 q 507 217 481 163 q 546 335 533 271 q 558 462 558 399 q 545 581 558 533 q 503 653 532 629 q 430 678 475 678 q 333 644 374 678 q 266 555 292 610 q 226 435 239 500 q 213 310 213 371 q 246 151 213 206 q 348 97 279 97 z "},"p":{"ha":806,"x_min":9,"x_max":740,"o":"m 9 -345 l 159 774 l 294 774 l 285 641 q 390 742 328 701 q 528 783 453 783 q 688 706 635 783 q 740 492 740 628 q 692 259 740 374 q 603 120 659 181 q 470 24 547 59 q 295 -11 392 -11 q 205 -1 258 -11 l 159 -345 l 9 -345 m 315 94 q 464 153 401 94 q 554 300 524 212 q 585 476 585 389 q 565 615 585 558 q 494 671 546 671 q 431 655 463 671 q 369 611 399 638 q 314 553 340 585 q 272 492 289 522 l 220 108 q 266 97 242 101 q 315 94 290 94 z "},"q":{"ha":799,"x_min":53,"x_max":738,"o":"m 439 -342 l 485 2 l 509 137 q 443 62 481 96 q 360 9 405 28 q 266 -11 316 -11 q 106 67 159 -11 q 53 281 53 145 q 85 475 53 384 q 175 635 117 565 q 316 744 234 704 q 498 783 398 783 q 573 777 532 783 q 647 762 613 772 l 738 787 l 588 -342 l 439 -342 m 299 102 q 360 117 330 102 q 418 156 390 131 q 472 214 447 181 q 519 281 498 246 l 571 667 q 526 677 549 674 q 478 681 502 681 q 363 647 413 681 q 278 556 313 613 q 226 432 244 500 q 208 298 208 365 q 217 200 208 244 q 245 129 225 156 q 299 102 265 102 z "},"r":{"ha":547,"x_min":55,"x_max":565,"o":"m 55 0 l 160 774 l 305 774 l 291 633 q 343 700 310 665 q 422 759 376 735 q 522 783 467 783 q 565 775 556 783 l 532 617 q 507 625 524 623 q 467 628 490 628 q 388 603 425 628 q 320 541 350 579 q 268 460 290 502 l 205 0 l 55 0 z "},"s":{"ha":603,"x_min":31,"x_max":557,"o":"m 235 -11 q 150 -5 192 -11 q 76 10 108 1 q 31 30 44 19 l 59 158 q 114 128 84 141 q 176 107 144 115 q 240 100 208 100 q 331 122 295 100 q 366 190 366 143 q 357 236 366 215 q 323 282 348 258 q 253 344 299 307 q 154 444 193 393 q 115 570 115 494 q 151 689 115 641 q 248 760 188 736 q 382 783 309 783 q 455 780 420 783 q 516 770 489 776 q 557 758 543 764 l 531 621 q 497 646 520 634 q 443 666 473 658 q 381 674 413 674 q 291 651 326 674 q 256 585 256 628 q 268 530 256 554 q 304 483 280 506 q 363 433 328 460 q 437 367 403 403 q 490 290 470 331 q 510 204 510 249 q 473 82 510 130 q 373 11 435 34 q 235 -11 310 -11 z "},"t":{"ha":508,"x_min":82,"x_max":499,"o":"m 222 -11 q 128 19 164 -11 q 93 114 93 49 q 94 137 93 123 q 97 170 95 151 q 101 213 99 190 l 157 660 l 82 660 l 110 774 l 182 774 l 228 963 l 350 963 l 325 774 l 499 774 l 483 660 l 310 660 q 285 476 296 554 q 268 342 275 397 q 256 252 260 287 q 250 198 252 217 q 249 172 249 179 q 257 123 249 142 q 288 104 265 104 q 330 115 303 104 q 384 140 356 125 q 428 169 411 156 l 447 89 q 390 42 428 65 q 305 4 351 19 q 222 -11 260 -11 z "},"u":{"ha":809,"x_min":72,"x_max":750,"o":"m 251 -14 q 116 32 161 -14 q 72 181 72 78 q 76 246 72 203 q 87 349 80 289 q 106 483 95 409 q 127 633 116 557 q 147 774 138 708 l 297 774 q 290 722 295 760 q 277 630 284 683 q 262 523 269 578 q 248 420 254 467 q 238 347 242 374 q 228 258 232 295 q 225 197 225 220 q 245 131 225 149 q 310 112 265 112 q 384 134 344 112 q 464 195 424 157 q 534 281 503 234 l 600 774 l 750 774 l 647 0 l 508 0 l 522 144 q 399 30 469 74 q 251 -14 329 -14 z "},"v":{"ha":698,"x_min":69,"x_max":688,"o":"m 181 -12 l 142 242 l 69 774 l 231 774 l 276 256 l 284 116 l 344 195 q 453 380 410 287 q 519 575 496 472 q 531 639 525 601 q 541 714 537 676 q 544 774 544 751 l 685 774 q 687 731 686 762 q 686 679 688 700 q 652 502 680 587 q 577 334 625 417 q 463 169 530 252 q 311 -3 397 85 l 181 -12 z "},"w":{"ha":1139,"x_min":72,"x_max":1114,"o":"m 187 -8 l 147 242 l 72 774 l 235 774 l 282 256 l 290 117 l 372 232 q 443 358 412 297 q 497 481 474 419 q 533 611 519 544 l 510 774 l 669 774 l 713 256 l 724 117 l 805 228 q 874 348 846 294 q 922 459 903 403 q 955 586 942 515 q 966 688 964 635 q 968 774 969 741 l 1113 774 q 1114 730 1114 754 q 1113 690 1113 706 q 1067 472 1107 578 q 949 250 1027 365 q 749 -3 871 135 l 622 -8 l 582 242 l 564 374 q 506 256 538 314 q 428 135 474 199 q 316 -3 383 72 l 187 -8 z "},"x":{"ha":657,"x_min":-42,"x_max":682,"o":"m -42 2 l 250 403 l 72 774 l 250 774 l 346 505 l 522 774 l 682 774 l 396 383 l 588 2 l 412 2 l 301 283 l 117 2 l -42 2 z "},"y":{"ha":722,"x_min":-121,"x_max":691,"o":"m -12 -342 q -67 -334 -35 -342 q -121 -317 -99 -326 l -80 -199 q -42 -215 -65 -207 q 8 -223 -20 -223 q 117 -195 70 -223 q 205 -119 165 -167 q 285 -12 245 -71 l 193 -12 l 150 242 l 76 774 l 238 774 l 294 254 l 319 47 q 358 120 341 86 q 390 185 376 155 q 463 333 433 256 q 512 495 493 410 q 541 678 531 581 q 543 727 542 698 q 545 774 544 756 l 690 774 q 691 731 691 758 q 689 681 690 703 q 643 435 682 564 q 531 167 603 306 q 451 27 497 100 q 353 -113 405 -45 q 250 -233 301 -181 q 140 -310 206 -277 q -12 -342 75 -342 z "},"z":{"ha":656,"x_min":-22,"x_max":661,"o":"m 17 0 l -22 38 l 369 555 l 467 655 l 113 655 l 129 774 l 631 774 l 661 738 l 263 207 l 175 118 l 565 118 l 554 0 l 17 0 z "},"ß":{"ha":817,"x_min":51,"x_max":764,"o":"m 476 -11 q 378 -1 429 -11 q 303 21 328 9 l 321 156 q 380 119 341 137 q 457 101 418 101 q 567 125 531 101 q 603 210 603 149 q 594 257 603 232 q 572 307 586 282 q 540 357 558 333 q 478 455 504 408 q 451 539 451 501 q 468 616 451 584 q 522 687 485 647 q 590 775 567 733 q 613 871 613 818 q 584 944 613 915 q 501 973 555 973 q 404 941 443 973 q 339 855 365 910 q 299 732 314 801 q 274 590 283 664 l 199 2 l 51 2 l 131 631 q 195 873 149 774 q 325 1025 242 973 q 538 1077 408 1077 q 657 1054 606 1077 q 736 987 708 1031 q 764 878 764 942 q 733 755 764 803 q 659 663 703 706 q 610 607 626 630 q 595 556 595 585 q 611 513 595 538 q 653 453 627 488 q 728 334 701 389 q 755 213 755 279 q 718 90 755 140 q 618 14 681 40 q 476 -11 555 -11 z "},"à":{"ha":790,"x_min":54,"x_max":734,"o":"m 267 -11 q 107 67 160 -11 q 54 281 54 145 q 85 475 54 384 q 174 635 116 565 q 313 744 232 704 q 493 783 393 783 q 571 776 528 783 q 649 760 614 769 l 734 783 l 627 0 l 494 0 l 505 135 q 402 31 463 74 q 267 -11 342 -11 m 301 101 q 364 116 333 101 q 421 157 394 131 q 473 215 449 182 q 516 283 497 248 l 570 665 q 474 681 525 681 q 327 621 387 681 q 238 473 267 561 q 209 298 209 385 q 217 204 209 249 q 244 130 224 159 q 301 101 264 101 m 565 903 q 503 941 540 913 q 428 1005 467 969 q 359 1075 390 1041 q 315 1131 328 1109 l 418 1232 l 619 954 l 565 903 z "},"á":{"ha":790,"x_min":54,"x_max":734,"o":"m 267 -11 q 107 67 160 -11 q 54 281 54 145 q 85 475 54 384 q 174 635 116 565 q 313 744 232 704 q 493 783 393 783 q 571 776 528 783 q 649 760 614 769 l 734 783 l 627 0 l 494 0 l 505 135 q 402 31 463 74 q 267 -11 342 -11 m 301 101 q 364 116 333 101 q 421 157 394 131 q 473 215 449 182 q 516 283 497 248 l 570 665 q 474 681 525 681 q 327 621 387 681 q 238 473 267 561 q 209 298 209 385 q 217 204 209 249 q 244 130 224 159 q 301 101 264 101 m 458 903 l 406 954 l 617 1232 l 719 1131 q 686 1087 709 1113 q 632 1032 663 1060 q 569 976 601 1003 q 507 930 536 950 q 458 903 478 910 z "},"â":{"ha":790,"x_min":54,"x_max":742,"o":"m 267 -11 q 107 67 160 -11 q 54 281 54 145 q 85 475 54 384 q 174 635 116 565 q 313 744 232 704 q 493 783 393 783 q 571 776 528 783 q 649 760 614 769 l 734 783 l 627 0 l 494 0 l 505 135 q 402 31 463 74 q 267 -11 342 -11 m 301 101 q 364 116 333 101 q 421 157 394 131 q 473 215 449 182 q 516 283 497 248 l 570 665 q 474 681 525 681 q 327 621 387 681 q 238 473 267 561 q 209 298 209 385 q 217 204 209 249 q 244 130 224 159 q 301 101 264 101 m 322 857 l 263 908 l 490 1154 l 611 1154 l 742 908 l 672 861 l 532 1031 l 322 857 z "},"ã":{"ha":790,"x_min":54,"x_max":750,"o":"m 267 -11 q 107 67 160 -11 q 54 281 54 145 q 85 475 54 384 q 174 635 116 565 q 313 744 232 704 q 493 783 393 783 q 571 776 528 783 q 649 760 614 769 l 734 783 l 627 0 l 494 0 l 505 135 q 402 31 463 74 q 267 -11 342 -11 m 301 101 q 364 116 333 101 q 421 157 394 131 q 473 215 449 182 q 516 283 497 248 l 570 665 q 474 681 525 681 q 327 621 387 681 q 238 473 267 561 q 209 298 209 385 q 217 204 209 249 q 244 130 224 159 q 301 101 264 101 m 599 864 q 528 880 561 864 q 472 919 495 896 q 437 951 453 940 q 400 961 421 961 q 356 946 375 961 q 315 899 336 931 l 260 963 q 325 1043 281 1006 q 417 1081 370 1081 q 482 1063 449 1081 q 539 1019 514 1046 q 573 992 558 1000 q 604 983 588 983 q 640 993 624 983 q 669 1019 656 1002 q 694 1058 683 1035 l 750 992 q 716 928 739 958 q 663 882 694 899 q 599 864 633 864 z "},"ä":{"ha":790,"x_min":54,"x_max":751,"o":"m 267 -11 q 107 67 160 -11 q 54 281 54 145 q 85 475 54 384 q 174 635 116 565 q 313 744 232 704 q 493 783 393 783 q 571 776 528 783 q 649 760 614 769 l 734 783 l 627 0 l 494 0 l 505 135 q 402 31 463 74 q 267 -11 342 -11 m 301 101 q 364 116 333 101 q 421 157 394 131 q 473 215 449 182 q 516 283 497 248 l 570 665 q 474 681 525 681 q 327 621 387 681 q 238 473 267 561 q 209 298 209 385 q 217 204 209 249 q 244 130 224 159 q 301 101 264 101 m 347 906 q 293 930 317 906 q 269 985 269 953 q 299 1058 269 1031 q 368 1086 328 1086 q 428 1063 405 1086 q 451 1007 451 1040 q 424 935 451 965 q 347 906 397 906 m 647 906 q 593 930 617 906 q 569 985 569 953 q 599 1058 569 1031 q 668 1086 628 1086 q 728 1063 705 1086 q 751 1007 751 1040 q 724 935 751 965 q 647 906 697 906 z "},"å":{"ha":790,"x_min":54,"x_max":734,"o":"m 267 -11 q 107 67 160 -11 q 54 281 54 145 q 85 475 54 384 q 174 635 116 565 q 313 744 232 704 q 493 783 393 783 q 571 776 528 783 q 649 760 614 769 l 734 783 l 627 0 l 494 0 l 505 135 q 402 31 463 74 q 267 -11 342 -11 m 301 101 q 364 116 333 101 q 421 157 394 131 q 473 215 449 182 q 516 283 497 248 l 570 665 q 474 681 525 681 q 327 621 387 681 q 238 473 267 561 q 209 298 209 385 q 217 204 209 249 q 244 130 224 159 q 301 101 264 101 m 501 850 q 355 895 407 850 q 302 1023 302 941 q 338 1128 302 1086 q 429 1192 373 1172 q 544 1213 485 1213 q 683 1167 631 1213 q 734 1037 734 1120 q 703 934 734 974 q 617 871 671 892 q 501 850 563 850 m 506 926 q 599 952 566 926 q 631 1043 631 978 q 604 1110 631 1084 q 532 1136 576 1136 q 441 1110 479 1136 q 402 1023 402 1083 q 433 955 402 983 q 506 926 465 926 z "},"æ":{"ha":1122,"x_min":54,"x_max":1076,"o":"m 254 -11 q 106 64 157 -11 q 54 281 54 138 q 86 475 54 385 q 176 635 117 566 q 316 744 235 705 q 499 783 398 783 q 594 774 551 783 q 690 733 637 765 q 879 783 775 783 q 990 759 946 783 q 1055 696 1033 735 q 1076 613 1076 657 q 1038 481 1076 538 q 934 382 999 423 q 789 317 869 341 q 628 284 709 292 q 637 188 623 229 q 683 125 651 147 q 763 103 715 103 q 837 116 799 103 q 914 153 875 128 q 987 211 952 177 l 1028 130 q 980 83 1013 108 q 905 38 947 59 q 820 2 863 16 q 740 -11 777 -11 q 573 41 638 -11 q 484 178 509 93 q 386 43 444 97 q 254 -11 328 -11 m 294 104 q 338 117 316 104 q 382 153 360 129 q 426 213 404 178 q 469 292 448 247 q 480 398 471 348 q 504 494 488 449 q 542 578 519 539 q 593 650 564 617 q 478 681 537 681 q 361 647 412 681 q 277 557 311 613 q 226 433 243 501 q 209 298 209 366 q 215 203 209 247 q 240 131 222 158 q 294 104 258 104 m 630 382 q 732 403 680 385 q 829 450 785 421 q 900 518 873 480 q 927 599 927 556 q 906 660 927 642 q 847 678 885 678 q 790 666 817 678 q 740 631 763 655 q 665 515 693 584 q 630 382 636 445 z "},"ç":{"ha":619,"x_min":57,"x_max":608,"o":"m 317 -11 q 174 26 232 -11 q 86 131 116 63 q 57 295 57 200 q 104 526 57 411 q 241 711 151 639 q 455 783 332 783 q 511 781 483 783 q 565 772 540 778 q 608 758 590 767 l 569 624 q 533 649 553 638 q 489 665 513 659 q 441 670 466 670 q 386 659 413 670 q 332 625 358 647 q 244 497 278 578 q 210 313 210 415 q 243 151 210 200 q 344 102 276 102 q 430 125 388 102 q 519 194 473 147 l 565 115 q 505 60 547 89 q 411 10 462 31 q 317 -11 360 -11 m 206 -316 q 142 -310 177 -316 q 94 -296 106 -303 l 113 -187 q 137 -195 122 -192 q 181 -197 151 -197 q 248 -172 217 -197 q 280 -81 278 -147 q 280 -17 281 -41 q 278 21 280 7 l 324 24 l 364 21 q 387 -38 378 0 q 397 -121 397 -76 q 344 -269 397 -222 q 206 -316 292 -316 z "},"è":{"ha":710,"x_min":56,"x_max":662,"o":"m 328 -11 q 175 31 236 -11 q 85 143 114 74 q 57 294 56 212 q 113 542 58 427 q 258 719 165 654 q 467 783 350 783 q 574 759 531 783 q 640 696 617 735 q 662 613 662 657 q 623 481 662 538 q 520 382 585 423 q 375 317 455 341 q 215 284 296 292 q 215 273 215 278 q 215 262 215 267 q 248 148 216 193 q 351 103 279 103 q 425 116 387 103 q 501 153 463 128 q 575 211 540 177 l 616 130 q 567 83 600 108 q 493 37 535 58 q 408 2 451 15 q 328 -11 365 -11 m 217 382 q 317 401 265 383 q 413 449 368 419 q 485 517 458 478 q 513 599 513 556 q 493 660 513 642 q 434 678 473 678 q 378 666 404 678 q 328 631 351 655 q 252 515 281 584 q 217 382 224 445 m 542 903 q 481 941 518 913 q 406 1005 444 969 q 336 1075 367 1041 q 293 1131 306 1109 l 396 1232 l 597 954 l 542 903 z "},"é":{"ha":710,"x_min":56,"x_max":697,"o":"m 328 -11 q 175 31 236 -11 q 85 143 114 74 q 57 294 56 212 q 113 542 58 427 q 258 719 165 654 q 467 783 350 783 q 574 759 531 783 q 640 696 617 735 q 662 613 662 657 q 623 481 662 538 q 520 382 585 423 q 375 317 455 341 q 215 284 296 292 q 215 273 215 278 q 215 262 215 267 q 248 148 216 193 q 351 103 279 103 q 425 116 387 103 q 501 153 463 128 q 575 211 540 177 l 616 130 q 567 83 600 108 q 493 37 535 58 q 408 2 451 15 q 328 -11 365 -11 m 217 382 q 317 401 265 383 q 413 449 368 419 q 485 517 458 478 q 513 599 513 556 q 493 660 513 642 q 434 678 473 678 q 378 666 404 678 q 328 631 351 655 q 252 515 281 584 q 217 382 224 445 m 435 903 l 384 954 l 595 1232 l 697 1131 q 664 1087 687 1113 q 610 1032 640 1060 q 547 976 579 1003 q 485 930 514 950 q 435 903 456 910 z "},"ê":{"ha":710,"x_min":56,"x_max":719,"o":"m 328 -11 q 175 31 236 -11 q 85 143 114 74 q 57 294 56 212 q 113 542 58 427 q 258 719 165 654 q 467 783 350 783 q 574 759 531 783 q 640 696 617 735 q 662 613 662 657 q 623 481 662 538 q 520 382 585 423 q 375 317 455 341 q 215 284 296 292 q 215 273 215 278 q 215 262 215 267 q 248 148 216 193 q 351 103 279 103 q 425 116 387 103 q 501 153 463 128 q 575 211 540 177 l 616 130 q 567 83 600 108 q 493 37 535 58 q 408 2 451 15 q 328 -11 365 -11 m 217 382 q 317 401 265 383 q 413 449 368 419 q 485 517 458 478 q 513 599 513 556 q 493 660 513 642 q 434 678 473 678 q 378 666 404 678 q 328 631 351 655 q 252 515 281 584 q 217 382 224 445 m 300 857 l 240 908 l 468 1154 l 589 1154 l 719 908 l 650 861 l 510 1031 l 300 857 z "},"ë":{"ha":710,"x_min":56,"x_max":729,"o":"m 328 -11 q 175 31 236 -11 q 85 143 114 74 q 57 294 56 212 q 113 542 58 427 q 258 719 165 654 q 467 783 350 783 q 574 759 531 783 q 640 696 617 735 q 662 613 662 657 q 623 481 662 538 q 520 382 585 423 q 375 317 455 341 q 215 284 296 292 q 215 273 215 278 q 215 262 215 267 q 248 148 216 193 q 351 103 279 103 q 425 116 387 103 q 501 153 463 128 q 575 211 540 177 l 616 130 q 567 83 600 108 q 493 37 535 58 q 408 2 451 15 q 328 -11 365 -11 m 217 382 q 317 401 265 383 q 413 449 368 419 q 485 517 458 478 q 513 599 513 556 q 493 660 513 642 q 434 678 473 678 q 378 666 404 678 q 328 631 351 655 q 252 515 281 584 q 217 382 224 445 m 325 906 q 271 930 295 906 q 247 985 247 953 q 277 1058 247 1031 q 346 1086 306 1086 q 406 1063 383 1086 q 429 1007 429 1040 q 402 935 429 965 q 325 906 374 906 m 625 906 q 571 930 595 906 q 547 985 547 953 q 577 1058 547 1031 q 646 1086 606 1086 q 706 1063 683 1086 q 729 1007 729 1040 q 702 935 729 965 q 625 906 674 906 z "},"ì":{"ha":405,"x_min":80,"x_max":390,"o":"m 80 0 l 185 774 l 335 774 l 230 0 l 80 0 m 335 903 q 274 941 310 913 q 198 1005 237 969 q 129 1075 160 1041 q 85 1131 98 1109 l 188 1232 l 390 954 l 335 903 z "},"í":{"ha":405,"x_min":80,"x_max":489,"o":"m 80 0 l 185 774 l 335 774 l 230 0 l 80 0 m 228 903 l 176 954 l 388 1232 l 489 1131 q 456 1087 479 1113 q 402 1032 433 1060 q 339 976 372 1003 q 277 930 306 950 q 228 903 248 910 z "},"î":{"ha":405,"x_min":33,"x_max":512,"o":"m 80 0 l 185 774 l 335 774 l 230 0 l 80 0 m 92 857 l 33 908 l 260 1154 l 381 1154 l 512 908 l 442 861 l 302 1031 l 92 857 z "},"ï":{"ha":405,"x_min":40,"x_max":522,"o":"m 80 0 l 185 774 l 335 774 l 230 0 l 80 0 m 117 906 q 64 930 88 906 q 40 985 40 953 q 69 1058 40 1031 q 138 1086 99 1086 q 198 1063 175 1086 q 222 1007 222 1040 q 194 935 222 965 q 117 906 167 906 m 417 906 q 364 930 388 906 q 340 985 340 953 q 369 1058 340 1031 q 438 1086 399 1086 q 498 1063 475 1086 q 522 1007 522 1040 q 494 935 522 965 q 417 906 467 906 z "},"ð":{"ha":805,"x_min":58,"x_max":744,"o":"m 338 -11 q 189 31 251 -11 q 92 142 126 72 q 58 294 58 211 q 84 481 58 392 q 160 638 110 569 q 280 745 210 706 q 436 784 349 784 q 533 767 488 784 q 601 715 578 749 q 555 877 589 810 q 447 1008 522 944 l 502 1012 l 374 867 l 299 929 l 435 1070 l 440 1015 q 338 1086 395 1058 q 240 1124 281 1115 l 271 1212 q 344 1187 301 1203 q 430 1148 386 1170 q 508 1100 474 1126 l 449 1090 l 573 1233 l 642 1169 l 510 1022 l 523 1086 q 651 939 602 1018 q 722 771 699 860 q 744 582 744 682 q 697 283 744 416 q 559 68 651 147 q 338 -11 467 -11 m 358 90 q 439 120 402 90 q 505 200 476 150 q 553 310 533 250 q 583 429 573 369 q 593 538 593 489 q 573 603 593 569 q 517 660 553 637 q 435 683 481 683 q 369 669 399 683 q 315 626 340 655 q 262 534 283 588 q 230 418 240 480 q 219 292 219 356 q 228 213 219 249 q 255 148 238 176 q 299 105 273 120 q 358 90 324 90 z "},"ñ":{"ha":824,"x_min":55,"x_max":739,"o":"m 55 0 l 160 774 l 303 774 l 290 624 q 426 739 349 695 q 582 783 503 783 q 700 738 660 783 q 739 586 739 692 q 736 538 739 570 q 726 459 733 506 q 711 348 720 411 q 706 309 709 331 q 699 259 703 288 q 690 193 695 231 q 676 109 684 156 q 659 0 669 61 l 508 0 q 518 67 511 21 q 535 184 524 113 q 559 348 545 254 q 578 490 572 435 q 584 574 584 544 q 568 635 584 619 q 516 651 553 651 q 456 636 490 651 q 388 595 422 620 q 322 540 353 569 q 272 484 292 511 l 205 0 l 55 0 m 578 864 q 507 880 540 864 q 451 919 474 896 q 416 951 432 940 q 379 961 400 961 q 335 946 354 961 q 294 899 315 931 l 239 963 q 305 1043 260 1006 q 396 1081 349 1081 q 461 1063 428 1081 q 518 1019 493 1046 q 552 992 537 1000 q 583 983 567 983 q 619 993 603 983 q 648 1019 635 1002 q 674 1058 662 1035 l 729 992 q 695 928 718 958 q 642 882 673 899 q 578 864 612 864 z "},"ò":{"ha":774,"x_min":58,"x_max":714,"o":"m 325 -11 q 177 28 236 -11 q 88 140 117 67 q 58 313 58 213 q 108 544 58 434 q 248 717 158 651 q 453 783 339 783 q 599 745 541 783 q 685 635 656 707 q 714 462 714 563 q 665 231 714 340 q 528 55 617 122 q 325 -11 439 -11 m 348 97 q 442 130 402 97 q 507 217 481 163 q 546 335 533 271 q 558 462 558 399 q 545 581 558 533 q 503 653 532 629 q 430 678 475 678 q 333 644 374 678 q 266 555 292 610 q 226 435 239 500 q 213 310 213 371 q 246 151 213 206 q 348 97 279 97 m 533 903 q 472 941 508 913 q 396 1005 435 969 q 327 1075 358 1041 q 283 1131 296 1109 l 386 1232 l 588 954 l 533 903 z "},"ó":{"ha":774,"x_min":58,"x_max":714,"o":"m 325 -11 q 177 28 236 -11 q 88 140 117 67 q 58 313 58 213 q 108 544 58 434 q 248 717 158 651 q 453 783 339 783 q 599 745 541 783 q 685 635 656 707 q 714 462 714 563 q 665 231 714 340 q 528 55 617 122 q 325 -11 439 -11 m 348 97 q 442 130 402 97 q 507 217 481 163 q 546 335 533 271 q 558 462 558 399 q 545 581 558 533 q 503 653 532 629 q 430 678 475 678 q 333 644 374 678 q 266 555 292 610 q 226 435 239 500 q 213 310 213 371 q 246 151 213 206 q 348 97 279 97 m 426 903 l 374 954 l 585 1232 l 687 1131 q 654 1087 677 1113 q 600 1032 631 1060 q 537 976 569 1003 q 475 930 504 950 q 426 903 446 910 z "},"ô":{"ha":774,"x_min":58,"x_max":714,"o":"m 325 -11 q 177 28 236 -11 q 88 140 117 67 q 58 313 58 213 q 108 544 58 434 q 248 717 158 651 q 453 783 339 783 q 599 745 541 783 q 685 635 656 707 q 714 462 714 563 q 665 231 714 340 q 528 55 617 122 q 325 -11 439 -11 m 348 97 q 442 130 402 97 q 507 217 481 163 q 546 335 533 271 q 558 462 558 399 q 545 581 558 533 q 503 653 532 629 q 430 678 475 678 q 333 644 374 678 q 266 555 292 610 q 226 435 239 500 q 213 310 213 371 q 246 151 213 206 q 348 97 279 97 m 290 857 l 231 908 l 458 1154 l 579 1154 l 710 908 l 640 861 l 500 1031 l 290 857 z "},"õ":{"ha":774,"x_min":58,"x_max":718,"o":"m 325 -11 q 177 28 236 -11 q 88 140 117 67 q 58 313 58 213 q 108 544 58 434 q 248 717 158 651 q 453 783 339 783 q 599 745 541 783 q 685 635 656 707 q 714 462 714 563 q 665 231 714 340 q 528 55 617 122 q 325 -11 439 -11 m 348 97 q 442 130 402 97 q 507 217 481 163 q 546 335 533 271 q 558 462 558 399 q 545 581 558 533 q 503 653 532 629 q 430 678 475 678 q 333 644 374 678 q 266 555 292 610 q 226 435 239 500 q 213 310 213 371 q 246 151 213 206 q 348 97 279 97 m 567 864 q 496 880 529 864 q 440 919 463 896 q 405 951 421 940 q 368 961 389 961 q 324 946 343 961 q 283 899 304 931 l 228 963 q 293 1043 249 1006 q 385 1081 338 1081 q 450 1063 417 1081 q 507 1019 482 1046 q 541 992 526 1000 q 572 983 556 983 q 608 993 592 983 q 637 1019 624 1002 q 663 1058 651 1035 l 718 992 q 684 928 707 958 q 631 882 662 899 q 567 864 601 864 z "},"ö":{"ha":774,"x_min":58,"x_max":719,"o":"m 325 -11 q 177 28 236 -11 q 88 140 117 67 q 58 313 58 213 q 108 544 58 434 q 248 717 158 651 q 453 783 339 783 q 599 745 541 783 q 685 635 656 707 q 714 462 714 563 q 665 231 714 340 q 528 55 617 122 q 325 -11 439 -11 m 348 97 q 442 130 402 97 q 507 217 481 163 q 546 335 533 271 q 558 462 558 399 q 545 581 558 533 q 503 653 532 629 q 430 678 475 678 q 333 644 374 678 q 266 555 292 610 q 226 435 239 500 q 213 310 213 371 q 246 151 213 206 q 348 97 279 97 m 315 906 q 261 930 285 906 q 238 985 238 953 q 267 1058 238 1031 q 336 1086 297 1086 q 396 1063 373 1086 q 419 1007 419 1040 q 392 935 419 965 q 315 906 365 906 m 615 906 q 561 930 585 906 q 538 985 538 953 q 567 1058 538 1031 q 636 1086 597 1086 q 696 1063 673 1086 q 719 1007 719 1040 q 692 935 719 965 q 615 906 665 906 z "},"ø":{"ha":774,"x_min":58,"x_max":714,"o":"m 136 -86 l 89 -60 l 190 108 l 224 139 l 526 689 l 553 718 l 651 874 l 699 847 l 600 693 l 569 657 l 254 92 l 224 63 l 136 -86 m 325 -11 q 177 28 236 -11 q 88 140 117 67 q 58 313 58 213 q 108 544 58 434 q 248 717 158 651 q 453 783 339 783 q 599 745 541 783 q 685 635 656 707 q 714 462 714 563 q 665 231 714 340 q 528 55 617 122 q 325 -11 439 -11 m 348 97 q 442 130 402 97 q 507 217 481 163 q 546 335 533 271 q 558 462 558 399 q 545 581 558 533 q 503 653 532 629 q 430 678 475 678 q 333 644 374 678 q 266 555 292 610 q 226 435 239 500 q 213 310 213 371 q 246 151 213 206 q 348 97 279 97 z "},"ù":{"ha":809,"x_min":72,"x_max":750,"o":"m 251 -14 q 116 32 161 -14 q 72 181 72 78 q 76 246 72 203 q 87 349 80 289 q 106 483 95 409 q 127 633 116 557 q 147 774 138 708 l 297 774 q 290 722 295 760 q 277 630 284 683 q 262 523 269 578 q 248 420 254 467 q 238 347 242 374 q 228 258 232 295 q 225 197 225 220 q 245 131 225 149 q 310 112 265 112 q 384 134 344 112 q 464 195 424 157 q 534 281 503 234 l 600 774 l 750 774 l 647 0 l 508 0 l 522 144 q 399 30 469 74 q 251 -14 329 -14 m 526 903 q 465 941 502 913 q 390 1005 428 969 q 320 1075 351 1041 q 277 1131 290 1109 l 380 1232 l 581 954 l 526 903 z "},"ú":{"ha":809,"x_min":72,"x_max":750,"o":"m 251 -14 q 116 32 161 -14 q 72 181 72 78 q 76 246 72 203 q 87 349 80 289 q 106 483 95 409 q 127 633 116 557 q 147 774 138 708 l 297 774 q 290 722 295 760 q 277 630 284 683 q 262 523 269 578 q 248 420 254 467 q 238 347 242 374 q 228 258 232 295 q 225 197 225 220 q 245 131 225 149 q 310 112 265 112 q 384 134 344 112 q 464 195 424 157 q 534 281 503 234 l 600 774 l 750 774 l 647 0 l 508 0 l 522 144 q 399 30 469 74 q 251 -14 329 -14 m 419 903 l 368 954 l 579 1232 l 681 1131 q 648 1087 671 1113 q 594 1032 624 1060 q 531 976 563 1003 q 469 930 498 950 q 419 903 440 910 z "},"û":{"ha":809,"x_min":72,"x_max":750,"o":"m 251 -14 q 116 32 161 -14 q 72 181 72 78 q 76 246 72 203 q 87 349 80 289 q 106 483 95 409 q 127 633 116 557 q 147 774 138 708 l 297 774 q 290 722 295 760 q 277 630 284 683 q 262 523 269 578 q 248 420 254 467 q 238 347 242 374 q 228 258 232 295 q 225 197 225 220 q 245 131 225 149 q 310 112 265 112 q 384 134 344 112 q 464 195 424 157 q 534 281 503 234 l 600 774 l 750 774 l 647 0 l 508 0 l 522 144 q 399 30 469 74 q 251 -14 329 -14 m 284 857 l 224 908 l 452 1154 l 573 1154 l 703 908 l 634 861 l 494 1031 l 284 857 z "},"ü":{"ha":809,"x_min":72,"x_max":750,"o":"m 251 -14 q 116 32 161 -14 q 72 181 72 78 q 76 246 72 203 q 87 349 80 289 q 106 483 95 409 q 127 633 116 557 q 147 774 138 708 l 297 774 q 290 722 295 760 q 277 630 284 683 q 262 523 269 578 q 248 420 254 467 q 238 347 242 374 q 228 258 232 295 q 225 197 225 220 q 245 131 225 149 q 310 112 265 112 q 384 134 344 112 q 464 195 424 157 q 534 281 503 234 l 600 774 l 750 774 l 647 0 l 508 0 l 522 144 q 399 30 469 74 q 251 -14 329 -14 m 309 906 q 255 930 279 906 q 231 985 231 953 q 261 1058 231 1031 q 330 1086 290 1086 q 390 1063 367 1086 q 413 1007 413 1040 q 386 935 413 965 q 309 906 358 906 m 609 906 q 555 930 579 906 q 531 985 531 953 q 561 1058 531 1031 q 630 1086 590 1086 q 690 1063 667 1086 q 713 1007 713 1040 q 686 935 713 965 q 609 906 658 906 z "},"ý":{"ha":722,"x_min":-121,"x_max":691,"o":"m -12 -342 q -67 -334 -35 -342 q -121 -317 -99 -326 l -80 -199 q -42 -215 -65 -207 q 8 -223 -20 -223 q 117 -195 70 -223 q 205 -119 165 -167 q 285 -12 245 -71 l 193 -12 l 150 242 l 76 774 l 238 774 l 294 254 l 319 47 q 358 120 341 86 q 390 185 376 155 q 463 333 433 256 q 512 495 493 410 q 541 678 531 581 q 543 727 542 698 q 545 774 544 756 l 690 774 q 691 731 691 758 q 689 681 690 703 q 643 435 682 564 q 531 167 603 306 q 451 27 497 100 q 353 -113 405 -45 q 250 -233 301 -181 q 140 -310 206 -277 q -12 -342 75 -342 m 380 903 l 328 954 l 540 1232 l 641 1131 q 608 1087 631 1113 q 554 1032 585 1060 q 491 976 524 1003 q 429 930 458 950 q 380 903 400 910 z "},"þ":{"ha":803,"x_min":8,"x_max":742,"o":"m 8 -347 l 56 -9 l 204 1110 l 348 1110 l 307 759 l 284 639 q 351 712 313 679 q 434 764 390 744 q 529 783 479 783 q 689 705 636 783 q 742 492 742 626 q 693 259 742 373 q 605 120 660 181 q 471 24 549 59 q 297 -11 394 -11 q 253 -8 276 -11 q 203 -1 230 -6 l 191 -92 l 155 -347 l 8 -347 m 317 94 q 465 153 403 94 q 556 300 525 212 q 586 476 586 388 q 567 615 586 558 q 495 671 547 671 q 411 642 453 671 q 332 571 368 613 q 272 489 295 529 l 221 108 q 317 94 265 94 z "},"ÿ":{"ha":722,"x_min":-121,"x_max":691,"o":"m -12 -342 q -67 -334 -35 -342 q -121 -317 -99 -326 l -80 -199 q -42 -215 -65 -207 q 8 -223 -20 -223 q 117 -195 70 -223 q 205 -119 165 -167 q 285 -12 245 -71 l 193 -12 l 150 242 l 76 774 l 238 774 l 294 254 l 319 47 q 358 120 341 86 q 390 185 376 155 q 463 333 433 256 q 512 495 493 410 q 541 678 531 581 q 543 727 542 698 q 545 774 544 756 l 690 774 q 691 731 691 758 q 689 681 690 703 q 643 435 682 564 q 531 167 603 306 q 451 27 497 100 q 353 -113 405 -45 q 250 -233 301 -181 q 140 -310 206 -277 q -12 -342 75 -342 m 269 906 q 216 930 240 906 q 192 985 192 953 q 221 1058 192 1031 q 290 1086 251 1086 q 350 1063 327 1086 q 374 1007 374 1040 q 346 935 374 965 q 269 906 319 906 m 569 906 q 516 930 540 906 q 492 985 492 953 q 521 1058 492 1031 q 590 1086 551 1086 q 650 1063 627 1086 q 674 1007 674 1040 q 646 935 674 965 q 569 906 619 906 z "},"ā":{"ha":790,"x_min":54,"x_max":734,"o":"m 267 -11 q 107 67 160 -11 q 54 281 54 145 q 85 475 54 384 q 174 635 116 565 q 313 744 232 704 q 493 783 393 783 q 571 776 528 783 q 649 760 614 769 l 734 783 l 627 0 l 494 0 l 505 135 q 402 31 463 74 q 267 -11 342 -11 m 301 101 q 364 116 333 101 q 421 157 394 131 q 473 215 449 182 q 516 283 497 248 l 570 665 q 474 681 525 681 q 327 621 387 681 q 238 473 267 561 q 209 298 209 385 q 217 204 209 249 q 244 130 224 159 q 301 101 264 101 m 331 910 l 342 1017 l 695 1017 l 683 910 l 331 910 z "},"ă":{"ha":790,"x_min":54,"x_max":739,"o":"m 267 -11 q 107 67 160 -11 q 54 281 54 145 q 85 475 54 384 q 174 635 116 565 q 313 744 232 704 q 493 783 393 783 q 571 776 528 783 q 649 760 614 769 l 734 783 l 627 0 l 494 0 l 505 135 q 402 31 463 74 q 267 -11 342 -11 m 301 101 q 364 116 333 101 q 421 157 394 131 q 473 215 449 182 q 516 283 497 248 l 570 665 q 474 681 525 681 q 327 621 387 681 q 238 473 267 561 q 209 298 209 385 q 217 204 209 249 q 244 130 224 159 q 301 101 264 101 m 507 876 q 390 908 438 876 q 320 993 343 939 q 303 1118 298 1048 l 400 1118 q 417 1043 405 1073 q 453 999 430 1014 q 513 985 476 985 q 579 1002 554 985 q 619 1050 604 1019 q 644 1118 633 1080 l 739 1118 q 709 999 739 1053 q 626 910 678 944 q 507 876 574 876 z "},"ą":{"ha":790,"x_min":54,"x_max":734,"o":"m 267 -11 q 107 67 160 -11 q 54 281 54 145 q 85 475 54 384 q 174 635 116 565 q 313 744 232 704 q 493 783 393 783 q 571 776 528 783 q 649 760 614 769 l 734 783 l 627 0 l 494 0 l 505 135 q 402 31 463 74 q 267 -11 342 -11 m 301 101 q 364 116 333 101 q 421 157 394 131 q 473 215 449 182 q 516 283 497 248 l 570 665 q 474 681 525 681 q 327 621 387 681 q 238 473 267 561 q 209 298 209 385 q 217 204 209 249 q 244 130 224 159 q 301 101 264 101 m 477 -300 q 382 -268 417 -300 q 346 -194 346 -237 q 370 -119 346 -153 q 433 -55 394 -85 q 515 0 472 -26 l 585 40 l 627 0 q 527 -80 566 -43 q 488 -149 488 -117 q 500 -184 488 -174 q 531 -194 513 -194 q 574 -187 553 -194 q 622 -160 594 -179 l 655 -230 q 578 -279 623 -258 q 477 -300 533 -300 z "},"ć":{"ha":619,"x_min":57,"x_max":683,"o":"m 317 -11 q 174 26 232 -11 q 86 131 116 63 q 57 295 57 200 q 104 526 57 411 q 241 711 151 639 q 455 783 332 783 q 511 781 483 783 q 565 772 540 778 q 608 758 590 767 l 569 624 q 533 649 553 638 q 489 665 513 659 q 441 670 466 670 q 386 659 413 670 q 332 625 358 647 q 244 497 278 578 q 210 313 210 415 q 243 151 210 200 q 344 102 276 102 q 430 125 388 102 q 519 194 473 147 l 565 115 q 505 60 547 89 q 411 10 462 31 q 317 -11 360 -11 m 422 903 l 371 954 l 582 1232 l 683 1131 q 650 1087 674 1113 q 597 1032 627 1060 q 533 976 566 1003 q 472 930 501 950 q 422 903 442 910 z "},"ĉ":{"ha":619,"x_min":57,"x_max":706,"o":"m 317 -11 q 174 26 232 -11 q 86 131 116 63 q 57 295 57 200 q 104 526 57 411 q 241 711 151 639 q 455 783 332 783 q 511 781 483 783 q 565 772 540 778 q 608 758 590 767 l 569 624 q 533 649 553 638 q 489 665 513 659 q 441 670 466 670 q 386 659 413 670 q 332 625 358 647 q 244 497 278 578 q 210 313 210 415 q 243 151 210 200 q 344 102 276 102 q 430 125 388 102 q 519 194 473 147 l 565 115 q 505 60 547 89 q 411 10 462 31 q 317 -11 360 -11 m 287 857 l 227 908 l 455 1154 l 576 1154 l 706 908 l 637 861 l 497 1031 l 287 857 z "},"ċ":{"ha":619,"x_min":57,"x_max":608,"o":"m 317 -11 q 174 26 232 -11 q 86 131 116 63 q 57 295 57 200 q 104 526 57 411 q 241 711 151 639 q 455 783 332 783 q 511 781 483 783 q 565 772 540 778 q 608 758 590 767 l 569 624 q 533 649 553 638 q 489 665 513 659 q 441 670 466 670 q 386 659 413 670 q 332 625 358 647 q 244 497 278 578 q 210 313 210 415 q 243 151 210 200 q 344 102 276 102 q 430 125 388 102 q 519 194 473 147 l 565 115 q 505 60 547 89 q 411 10 462 31 q 317 -11 360 -11 m 467 896 q 408 920 434 896 q 383 979 383 945 q 415 1053 383 1021 q 490 1086 447 1086 q 553 1063 528 1086 q 578 1006 578 1040 q 546 929 578 962 q 467 896 513 896 z "},"č":{"ha":619,"x_min":57,"x_max":746,"o":"m 317 -11 q 174 26 232 -11 q 86 131 116 63 q 57 295 57 200 q 104 526 57 411 q 241 711 151 639 q 455 783 332 783 q 511 781 483 783 q 565 772 540 778 q 608 758 590 767 l 569 624 q 533 649 553 638 q 489 665 513 659 q 441 670 466 670 q 386 659 413 670 q 332 625 358 647 q 244 497 278 578 q 210 313 210 415 q 243 151 210 200 q 344 102 276 102 q 430 125 388 102 q 519 194 473 147 l 565 115 q 505 60 547 89 q 411 10 462 31 q 317 -11 360 -11 m 407 886 l 246 1102 l 309 1160 l 476 1001 l 683 1160 l 746 1103 l 527 886 l 407 886 z "},"ď":{"ha":988,"x_min":53,"x_max":1008,"o":"m 925 685 l 851 710 l 847 728 q 868 835 860 781 q 875 938 875 889 q 870 1016 875 978 q 855 1068 865 1053 l 862 1091 l 988 1122 q 1004 1062 999 1099 q 1008 971 1008 1025 q 998 871 1008 924 q 969 769 988 818 q 925 685 950 720 m 266 -11 q 106 67 159 -11 q 53 281 53 145 q 103 516 53 399 q 191 653 135 593 q 324 749 247 714 q 498 783 401 783 q 541 782 518 783 q 588 775 563 780 l 634 1110 l 783 1110 l 634 0 l 499 0 l 510 140 q 444 63 482 97 q 361 9 406 29 q 266 -11 316 -11 m 299 102 q 362 119 331 102 q 424 163 394 135 q 478 223 453 191 q 522 287 503 256 l 574 664 q 478 681 530 681 q 331 621 392 681 q 239 473 269 561 q 208 298 208 385 q 217 200 208 244 q 245 129 225 156 q 299 102 265 102 z "},"đ":{"ha":800,"x_min":53,"x_max":851,"o":"m 428 856 l 438 944 l 851 944 l 840 856 l 428 856 m 266 -11 q 106 67 159 -11 q 53 281 53 145 q 103 516 53 399 q 191 653 135 593 q 324 749 247 714 q 498 783 401 783 q 541 782 518 783 q 588 775 563 780 l 634 1110 l 783 1110 l 634 0 l 499 0 l 510 140 q 444 63 482 97 q 361 9 406 29 q 266 -11 316 -11 m 299 102 q 362 119 331 102 q 424 163 394 135 q 478 223 453 191 q 522 287 503 256 l 574 664 q 478 681 530 681 q 331 621 392 681 q 239 473 269 561 q 208 298 208 385 q 217 200 208 244 q 245 129 225 156 q 299 102 265 102 z "},"ē":{"ha":710,"x_min":56,"x_max":673,"o":"m 328 -11 q 175 31 236 -11 q 85 143 114 74 q 57 294 56 212 q 113 542 58 427 q 258 719 165 654 q 467 783 350 783 q 574 759 531 783 q 640 696 617 735 q 662 613 662 657 q 623 481 662 538 q 520 382 585 423 q 375 317 455 341 q 215 284 296 292 q 215 273 215 278 q 215 262 215 267 q 248 148 216 193 q 351 103 279 103 q 425 116 387 103 q 501 153 463 128 q 575 211 540 177 l 616 130 q 567 83 600 108 q 493 37 535 58 q 408 2 451 15 q 328 -11 365 -11 m 217 382 q 317 401 265 383 q 413 449 368 419 q 485 517 458 478 q 513 599 513 556 q 493 660 513 642 q 434 678 473 678 q 378 666 404 678 q 328 631 351 655 q 252 515 281 584 q 217 382 224 445 m 309 910 l 319 1017 l 673 1017 l 661 910 l 309 910 z "},"ĕ":{"ha":710,"x_min":56,"x_max":717,"o":"m 328 -11 q 175 31 236 -11 q 85 143 114 74 q 57 294 56 212 q 113 542 58 427 q 258 719 165 654 q 467 783 350 783 q 574 759 531 783 q 640 696 617 735 q 662 613 662 657 q 623 481 662 538 q 520 382 585 423 q 375 317 455 341 q 215 284 296 292 q 215 273 215 278 q 215 262 215 267 q 248 148 216 193 q 351 103 279 103 q 425 116 387 103 q 501 153 463 128 q 575 211 540 177 l 616 130 q 567 83 600 108 q 493 37 535 58 q 408 2 451 15 q 328 -11 365 -11 m 217 382 q 317 401 265 383 q 413 449 368 419 q 485 517 458 478 q 513 599 513 556 q 493 660 513 642 q 434 678 473 678 q 378 666 404 678 q 328 631 351 655 q 252 515 281 584 q 217 382 224 445 m 485 876 q 368 908 415 876 q 298 993 321 939 q 281 1118 276 1048 l 378 1118 q 395 1043 383 1073 q 431 999 408 1014 q 490 985 453 985 q 557 1002 532 985 q 597 1050 582 1019 q 622 1118 611 1080 l 717 1118 q 686 999 717 1053 q 604 910 656 944 q 485 876 551 876 z "},"ė":{"ha":710,"x_min":56,"x_max":662,"o":"m 328 -11 q 175 31 236 -11 q 85 143 114 74 q 57 294 56 212 q 113 542 58 427 q 258 719 165 654 q 467 783 350 783 q 574 759 531 783 q 640 696 617 735 q 662 613 662 657 q 623 481 662 538 q 520 382 585 423 q 375 317 455 341 q 215 284 296 292 q 215 273 215 278 q 215 262 215 267 q 248 148 216 193 q 351 103 279 103 q 425 116 387 103 q 501 153 463 128 q 575 211 540 177 l 616 130 q 567 83 600 108 q 493 37 535 58 q 408 2 451 15 q 328 -11 365 -11 m 217 382 q 317 401 265 383 q 413 449 368 419 q 485 517 458 478 q 513 599 513 556 q 493 660 513 642 q 434 678 473 678 q 378 666 404 678 q 328 631 351 655 q 252 515 281 584 q 217 382 224 445 m 481 896 q 422 920 447 896 q 396 979 396 945 q 428 1053 396 1021 q 503 1086 460 1086 q 567 1063 542 1086 q 592 1006 592 1040 q 559 929 592 962 q 481 896 526 896 z "},"ę":{"ha":710,"x_min":56,"x_max":662,"o":"m 328 -11 q 175 31 236 -11 q 85 143 114 74 q 57 294 56 212 q 113 542 58 427 q 258 719 165 654 q 467 783 350 783 q 574 759 531 783 q 640 696 617 735 q 662 613 662 657 q 623 481 662 538 q 520 382 585 423 q 375 317 455 341 q 215 284 296 292 q 215 273 215 278 q 215 262 215 267 q 248 148 216 193 q 351 103 279 103 q 425 116 387 103 q 501 153 463 128 q 575 211 540 177 l 616 130 q 567 83 600 108 q 493 37 535 58 q 408 2 451 15 q 328 -11 365 -11 m 217 382 q 317 401 265 383 q 413 449 368 419 q 485 517 458 478 q 513 599 513 556 q 493 660 513 642 q 434 678 473 678 q 378 666 404 678 q 328 631 351 655 q 252 515 281 584 q 217 382 224 445 m 244 -300 q 149 -268 185 -300 q 113 -194 113 -237 q 137 -119 113 -153 q 200 -55 161 -85 q 283 0 239 -26 l 352 40 l 394 0 q 294 -80 333 -43 q 255 -149 255 -117 q 268 -184 255 -174 q 298 -194 281 -194 q 341 -187 320 -194 q 389 -160 362 -179 l 422 -230 q 345 -279 390 -258 q 244 -300 300 -300 z "},"ě":{"ha":710,"x_min":56,"x_max":759,"o":"m 328 -11 q 175 31 236 -11 q 85 143 114 74 q 57 294 56 212 q 113 542 58 427 q 258 719 165 654 q 467 783 350 783 q 574 759 531 783 q 640 696 617 735 q 662 613 662 657 q 623 481 662 538 q 520 382 585 423 q 375 317 455 341 q 215 284 296 292 q 215 273 215 278 q 215 262 215 267 q 248 148 216 193 q 351 103 279 103 q 425 116 387 103 q 501 153 463 128 q 575 211 540 177 l 616 130 q 567 83 600 108 q 493 37 535 58 q 408 2 451 15 q 328 -11 365 -11 m 217 382 q 317 401 265 383 q 413 449 368 419 q 485 517 458 478 q 513 599 513 556 q 493 660 513 642 q 434 678 473 678 q 378 666 404 678 q 328 631 351 655 q 252 515 281 584 q 217 382 224 445 m 420 886 l 259 1102 l 322 1160 l 490 1001 l 697 1160 l 759 1103 l 540 886 l 420 886 z "},"ĝ":{"ha":797,"x_min":53,"x_max":754,"o":"m 265 -344 q 197 -340 235 -344 q 128 -330 160 -336 q 83 -319 97 -324 l 116 -196 q 166 -216 137 -206 q 228 -231 194 -225 q 294 -236 261 -236 q 416 -193 374 -236 q 474 -65 458 -150 l 508 135 q 403 32 465 74 q 266 -11 340 -11 q 106 67 159 -11 q 53 281 53 145 q 103 516 53 399 q 191 653 135 593 q 324 749 247 714 q 498 783 401 783 q 576 776 533 783 q 654 760 618 769 l 740 783 l 626 -56 q 601 -150 619 -108 q 554 -225 583 -192 q 421 -316 497 -289 q 265 -344 345 -344 m 299 102 q 360 117 330 102 q 420 157 391 131 q 474 215 449 183 q 519 283 499 247 l 573 666 q 528 677 551 674 q 478 681 504 681 q 331 621 392 681 q 239 473 269 561 q 208 298 208 385 q 217 200 208 244 q 245 129 225 156 q 299 102 265 102 m 335 857 l 275 908 l 503 1154 l 624 1154 l 754 908 l 685 861 l 544 1031 l 335 857 z "},"ğ":{"ha":797,"x_min":53,"x_max":751,"o":"m 265 -344 q 197 -340 235 -344 q 128 -330 160 -336 q 83 -319 97 -324 l 116 -196 q 166 -216 137 -206 q 228 -231 194 -225 q 294 -236 261 -236 q 416 -193 374 -236 q 474 -65 458 -150 l 508 135 q 403 32 465 74 q 266 -11 340 -11 q 106 67 159 -11 q 53 281 53 145 q 103 516 53 399 q 191 653 135 593 q 324 749 247 714 q 498 783 401 783 q 576 776 533 783 q 654 760 618 769 l 740 783 l 626 -56 q 601 -150 619 -108 q 554 -225 583 -192 q 421 -316 497 -289 q 265 -344 345 -344 m 299 102 q 360 117 330 102 q 420 157 391 131 q 474 215 449 183 q 519 283 499 247 l 573 666 q 528 677 551 674 q 478 681 504 681 q 331 621 392 681 q 239 473 269 561 q 208 298 208 385 q 217 200 208 244 q 245 129 225 156 q 299 102 265 102 m 519 876 q 403 908 450 876 q 333 993 356 939 q 315 1118 310 1048 l 413 1118 q 430 1043 417 1073 q 465 999 442 1014 q 525 985 488 985 q 592 1002 567 985 q 631 1050 617 1019 q 657 1118 646 1080 l 751 1118 q 721 999 751 1053 q 639 910 691 944 q 519 876 586 876 z "},"ġ":{"ha":797,"x_min":53,"x_max":740,"o":"m 265 -344 q 197 -340 235 -344 q 128 -330 160 -336 q 83 -319 97 -324 l 116 -196 q 166 -216 137 -206 q 228 -231 194 -225 q 294 -236 261 -236 q 416 -193 374 -236 q 474 -65 458 -150 l 508 135 q 403 32 465 74 q 266 -11 340 -11 q 106 67 159 -11 q 53 281 53 145 q 103 516 53 399 q 191 653 135 593 q 324 749 247 714 q 498 783 401 783 q 576 776 533 783 q 654 760 618 769 l 740 783 l 626 -56 q 601 -150 619 -108 q 554 -225 583 -192 q 421 -316 497 -289 q 265 -344 345 -344 m 299 102 q 360 117 330 102 q 420 157 391 131 q 474 215 449 183 q 519 283 499 247 l 573 666 q 528 677 551 674 q 478 681 504 681 q 331 621 392 681 q 239 473 269 561 q 208 298 208 385 q 217 200 208 244 q 245 129 225 156 q 299 102 265 102 m 515 896 q 456 920 482 896 q 431 979 431 945 q 463 1053 431 1021 q 538 1086 495 1086 q 601 1063 576 1086 q 626 1006 626 1040 q 594 929 626 962 q 515 896 561 896 z "},"ģ":{"ha":797,"x_min":53,"x_max":740,"o":"m 265 -344 q 197 -340 235 -344 q 128 -330 160 -336 q 83 -319 97 -324 l 116 -196 q 166 -216 137 -206 q 228 -231 194 -225 q 294 -236 261 -236 q 416 -193 374 -236 q 474 -65 458 -150 l 508 135 q 403 32 465 74 q 266 -11 340 -11 q 106 67 159 -11 q 53 281 53 145 q 103 516 53 399 q 191 653 135 593 q 324 749 247 714 q 498 783 401 783 q 576 776 533 783 q 654 760 618 769 l 740 783 l 626 -56 q 601 -150 619 -108 q 554 -225 583 -192 q 421 -316 497 -289 q 265 -344 345 -344 m 299 102 q 360 117 330 102 q 420 157 391 131 q 474 215 449 183 q 519 283 499 247 l 573 666 q 528 677 551 674 q 478 681 504 681 q 331 621 392 681 q 239 473 269 561 q 208 298 208 385 q 217 200 208 244 q 245 129 225 156 q 299 102 265 102 m 539 1244 l 601 1202 l 598 1183 q 564 1140 572 1163 q 556 1091 556 1117 q 572 1032 556 1058 q 608 1001 587 1005 l 603 954 l 513 895 q 468 936 488 913 q 439 988 449 960 q 428 1047 428 1015 q 452 1154 428 1103 q 539 1244 476 1206 z "},"ĥ":{"ha":825,"x_min":40,"x_max":739,"o":"m 59 0 l 201 1110 l 351 1110 l 312 776 l 287 619 q 424 738 346 692 q 583 783 503 783 q 700 738 661 783 q 739 586 739 692 q 737 550 739 574 q 730 490 735 526 q 719 404 726 453 q 704 293 713 355 q 684 159 695 232 q 660 0 674 85 l 509 0 q 522 95 516 53 q 534 175 528 138 q 544 247 539 213 q 555 317 549 282 q 566 392 560 353 q 581 504 576 460 q 585 574 585 548 q 569 635 585 619 q 517 651 553 651 q 436 625 483 651 q 345 560 389 598 q 274 487 301 522 l 208 0 l 59 0 m 99 1142 l 40 1194 l 267 1438 l 388 1438 l 519 1194 l 449 1147 l 309 1307 l 99 1142 z "},"ħ":{"ha":825,"x_min":59,"x_max":739,"o":"m 88 856 l 99 944 l 505 944 l 495 856 l 88 856 m 59 0 l 201 1110 l 351 1110 l 312 776 l 287 619 q 424 738 346 692 q 583 783 503 783 q 700 738 661 783 q 739 586 739 692 q 737 550 739 574 q 730 490 735 526 q 719 404 726 453 q 704 293 713 355 q 684 159 695 232 q 660 0 674 85 l 509 0 q 522 95 516 53 q 534 175 528 138 q 544 247 539 213 q 555 317 549 282 q 566 392 560 353 q 581 504 576 460 q 585 574 585 548 q 569 635 585 619 q 517 651 553 651 q 436 625 483 651 q 345 560 389 598 q 274 487 301 522 l 208 0 l 59 0 z "},"ĩ":{"ha":405,"x_min":30,"x_max":520,"o":"m 80 0 l 185 774 l 335 774 l 230 0 l 80 0 m 369 864 q 298 880 331 864 q 242 919 265 896 q 207 951 223 940 q 170 961 191 961 q 126 946 145 961 q 85 899 106 931 l 30 963 q 95 1043 51 1006 q 187 1081 140 1081 q 252 1063 219 1081 q 309 1019 284 1046 q 343 992 328 1000 q 374 983 358 983 q 410 993 394 983 q 439 1019 426 1002 q 465 1058 453 1035 l 520 992 q 486 928 509 958 q 433 882 464 899 q 369 864 403 864 z "},"ī":{"ha":405,"x_min":80,"x_max":465,"o":"m 80 0 l 185 774 l 335 774 l 230 0 l 80 0 m 101 910 l 112 1017 l 465 1017 l 453 910 l 101 910 z "},"ĭ":{"ha":405,"x_min":68,"x_max":509,"o":"m 80 0 l 185 774 l 335 774 l 230 0 l 80 0 m 277 876 q 160 908 208 876 q 91 993 113 939 q 73 1118 68 1048 l 170 1118 q 188 1043 175 1073 q 223 999 200 1014 q 283 985 246 985 q 349 1002 324 985 q 389 1050 374 1019 q 415 1118 403 1080 l 509 1118 q 479 999 509 1053 q 396 910 449 944 q 277 876 344 876 z "},"į":{"ha":405,"x_min":-51,"x_max":384,"o":"m 80 0 l 185 774 l 335 774 l 230 0 l 80 0 m 273 896 q 214 920 240 896 q 188 979 188 945 q 220 1053 188 1021 q 295 1086 253 1086 q 359 1063 334 1086 q 384 1006 384 1040 q 351 929 384 962 q 273 896 319 896 m 80 -300 q -16 -268 20 -300 q -51 -194 -51 -237 q -27 -119 -51 -153 q 35 -55 -3 -85 q 118 0 74 -26 l 188 40 l 230 0 q 130 -80 169 -43 q 90 -149 90 -117 q 103 -184 90 -174 q 133 -194 116 -194 q 176 -187 156 -194 q 224 -160 197 -179 l 258 -230 q 181 -279 226 -258 q 80 -300 135 -300 z "},"ı":{"ha":405,"x_min":80,"x_max":335,"o":"m 80 0 l 185 774 l 335 774 l 230 0 l 80 0 z "},"ĳ":{"ha":807,"x_min":80,"x_max":792,"o":"m 80 0 l 185 774 l 335 774 l 230 0 l 80 0 m 290 926 q 232 951 258 926 q 207 1009 207 975 q 239 1083 207 1051 q 313 1115 270 1115 q 377 1092 351 1115 q 402 1035 402 1069 q 369 959 402 991 q 290 926 335 926 m 340 -350 q 287 -344 311 -350 q 244 -324 263 -337 l 283 -242 q 300 -248 289 -246 q 318 -251 311 -251 q 393 -227 363 -251 q 441 -161 422 -203 q 470 -66 459 -119 q 490 47 481 -12 l 588 774 l 738 774 l 634 2 q 583 -175 621 -95 q 484 -303 545 -256 q 340 -350 424 -350 m 681 926 q 623 951 648 926 q 597 1009 597 975 q 629 1083 597 1051 q 703 1115 660 1115 q 767 1092 742 1115 q 792 1035 792 1069 q 759 959 792 991 q 681 926 726 926 z "},"ĵ":{"ha":403,"x_min":-160,"x_max":521,"o":"m -65 -350 q -118 -344 -94 -350 q -160 -324 -142 -337 l -122 -242 q -105 -248 -116 -246 q -87 -251 -94 -251 q -12 -227 -42 -251 q 36 -161 17 -203 q 65 -66 54 -119 q 85 47 76 -12 l 183 774 l 333 774 l 229 2 q 178 -175 216 -95 q 80 -303 140 -256 q -65 -350 19 -350 m 101 857 l 42 908 l 269 1154 l 390 1154 l 521 908 l 451 861 l 311 1031 l 101 857 z "},"ķ":{"ha":726,"x_min":59,"x_max":730,"o":"m 59 0 l 201 1110 l 351 1110 l 208 0 l 59 0 m 517 2 l 288 430 q 413 522 353 466 q 517 642 472 577 q 585 774 563 708 l 730 774 q 699 667 725 721 q 633 564 673 613 q 544 475 592 515 q 449 410 497 435 l 690 2 l 517 2 m 262 -456 l 205 -419 l 208 -401 q 242 -361 232 -383 q 252 -306 251 -340 q 239 -254 253 -277 q 205 -228 225 -231 l 209 -190 l 302 -119 q 366 -169 342 -131 q 390 -260 390 -208 q 372 -350 390 -308 q 324 -421 353 -392 q 262 -456 295 -449 z "},"ĸ":{"ha":726,"x_min":56,"x_max":733,"o":"m 519 0 l 290 428 q 387 495 341 457 q 472 579 433 533 q 541 676 511 624 q 588 782 570 727 l 733 782 q 683 634 727 707 q 577 501 640 560 q 449 408 514 441 l 690 0 l 519 0 m 56 0 l 162 782 l 312 782 l 206 0 l 56 0 z "},"ĺ":{"ha":405,"x_min":81,"x_max":553,"o":"m 81 2 l 231 1110 l 381 1110 l 231 2 l 81 2 m 292 1178 l 232 1228 l 444 1506 l 553 1406 q 520 1361 544 1388 q 467 1306 497 1335 q 403 1251 436 1277 q 342 1205 371 1224 q 292 1178 313 1185 z "},"ļ":{"ha":405,"x_min":53,"x_max":381,"o":"m 81 2 l 231 1110 l 381 1110 l 231 2 l 81 2 m 110 -456 l 53 -419 l 56 -401 q 90 -361 80 -383 q 100 -306 99 -340 q 87 -254 101 -277 q 53 -228 73 -231 l 57 -190 l 150 -119 q 214 -169 190 -131 q 238 -260 238 -208 q 219 -350 238 -308 q 172 -421 201 -392 q 110 -456 143 -449 z "},"ľ":{"ha":538,"x_min":81,"x_max":631,"o":"m 547 681 l 474 707 l 469 724 q 490 832 483 778 q 497 934 497 885 q 492 1012 497 975 q 477 1065 487 1049 l 484 1088 l 610 1119 q 627 1058 622 1095 q 631 967 631 1022 q 621 868 631 921 q 592 766 610 815 q 547 681 573 717 m 81 2 l 231 1110 l 381 1110 l 231 2 l 81 2 z "}}}
